
<svg
  viewBox="0 0 106.6 106.6"
  width="200"
  height="200"
  xmlns="http://www.w3.org/2000/svg"
>
  <defs>
    <filter
      id="a"
      x="38.763"
      y="2.84"
      width="38.059"
      height="38.058"
      filterUnits="userSpaceOnUse"
      color-interpolation-filters="sRGB"
    >
      <feFlood flood-opacity="0" result="BackgroundImageFix" />
      <feBlend in="SourceGraphic" in2="BackgroundImageFix" result="shape" />
      <feGaussianBlur
        stdDeviation="6"
        result="effect1_foregroundBlur_292_13345"
      />
    </filter>
  </defs>
  <g>
    <path
      d="M41.037 22.018.002 53.888m36.714 3.286-36.74 36.74m70.473-42.14L42.554 95.61"
      stroke="#150D0D"
    />
    <path
      d="M84.89 20.45a6.617 6.617 0 0 1-5.37-5.368c0-.122-.183-.122-.244 0a6.617 6.617 0 0 1-5.37 5.369c-.121 0-.121.183 0 .244a6.62 6.62 0 0 1 5.37 5.37c0 .122.184.122.245 0a6.62 6.62 0 0 1 5.369-5.37c.122-.061.122-.183 0-.244zM106.482 42.069a10.265 10.265 0 0 1-8.327-8.327c0-.19-.283-.19-.378 0a10.265 10.265 0 0 1-8.327 8.327c-.19 0-.19.284 0 .379a10.264 10.264 0 0 1 8.327 8.327c0 .189.284.189.378 0a10.264 10.264 0 0 1 8.327-8.327c.189-.095.189-.284 0-.38zM97.114 62.492c-.92-.281-1.746-1.125-2.021-2.062-.092-.187-.276-.187-.276 0-.368.937-1.195 1.78-2.113 2.062-.184.094-.184.28 0 .28 1.01.282 1.745 1.126 2.02 2.063.093.187.277.187.277 0 .367-.843 1.194-1.687 2.113-1.968.184-.094.184-.281 0-.375z"
      fill="#6743EE"
    />
    <path
      d="M73.34 42.232c0 12.94-10.315 23.43-23.04 23.43-12.724 0-23.04-10.49-23.04-23.43s10.316-23.43 23.04-23.43c12.725 0 23.04 10.49 23.04 23.43zM90.11 12.425a2.103 2.103 0 0 1-1.342-1.343c-.061-.122-.183-.122-.183 0-.244.61-.793 1.16-1.403 1.343-.122.06-.122.183 0 .183.67.183 1.159.732 1.342 1.342.06.122.183.122.183 0 .244-.55.793-1.098 1.403-1.281.122-.061.122-.183 0-.244zM86.21 35.073a2.101 2.101 0 0 1-1.342-1.342c-.061-.122-.183-.122-.183 0-.244.61-.794 1.159-1.404 1.342-.122.06-.122.183 0 .183.67.183 1.16.732 1.343 1.342.06.122.183.122.183 0 .244-.55.793-1.098 1.403-1.281.122-.061.122-.183 0-.244zm-3.125 21.869a2.101 2.101 0 0 1-1.342-1.342c-.061-.122-.183-.122-.183 0-.244.61-.794 1.159-1.404 1.342-.122.06-.122.183 0 .183.67.183 1.16.732 1.343 1.342.06.122.183.122.183 0 .244-.55.793-1.098 1.403-1.281.122-.061.122-.183 0-.244zm-36.711 15.62a2.101 2.101 0 0 1-1.342-1.341c-.061-.122-.183-.122-.183 0-.244.61-.793 1.159-1.404 1.342-.122.06-.122.183 0 .183.672.183 1.16.732 1.343 1.343.06.122.183.122.183 0 .244-.55.793-1.1 1.403-1.282.122-.061.122-.183 0-.244z"
      fill="#150D0D"
    />
    <g filter="url(#a)" transform="translate(-.377 10.99)">
      <circle cx="57.792" cy="21.869" r="7.029" fill="#D9D9D9" />
    </g>
  </g>
</svg>