<svg width="24" height="24" viewBox="0 0 24 24" fill="none" xmlns="http://www.w3.org/2000/svg">
<path d="M8.99964 8L8.88264 8.007C8.63939 8.03566 8.41511 8.15259 8.25235 8.33563C8.08959 8.51866 7.99967 8.75507 7.99964 9V10.999L5.41364 11C5.01814 11.0001 4.63154 11.1174 4.30272 11.3372C3.9739 11.557 3.71762 11.8693 3.56628 12.2347C3.41494 12.6001 3.37533 13.0022 3.45247 13.3901C3.5296 13.778 3.72002 14.1343 3.99964 14.414L10.5856 21C10.9607 21.3749 11.4693 21.5856 11.9996 21.5856C12.53 21.5856 13.0386 21.3749 13.4136 21L19.9996 14.414C20.2795 14.1343 20.4701 13.7779 20.5474 13.3898C20.6246 13.0018 20.585 12.5995 20.4336 12.234L20.3656 12.089C20.1979 11.7612 19.943 11.4861 19.6289 11.294C19.3148 11.1018 18.9538 11.0001 18.5856 11L15.9996 10.999V9C15.9996 8.73478 15.8943 8.48043 15.7067 8.29289C15.5192 8.10536 15.2649 8 14.9996 8H8.99964Z" fill="black"/>
<path d="M14.9999 2C15.2547 2.00028 15.4999 2.09788 15.6852 2.27285C15.8706 2.44782 15.9821 2.68695 15.997 2.94139C16.012 3.19584 15.9292 3.44638 15.7656 3.64183C15.602 3.83729 15.37 3.9629 15.1169 3.993L14.9999 4H8.99987C8.74499 3.99972 8.49984 3.90212 8.3145 3.72715C8.12916 3.55218 8.01763 3.31305 8.0027 3.05861C7.98776 2.80416 8.07054 2.55362 8.23413 2.35817C8.39772 2.16271 8.62977 2.0371 8.88287 2.007L8.99987 2H14.9999Z" fill="black"/>
<path d="M14.9999 5C15.2547 5.00028 15.4999 5.09788 15.6852 5.27285C15.8706 5.44782 15.9821 5.68695 15.997 5.94139C16.012 6.19584 15.9292 6.44638 15.7656 6.64183C15.602 6.83729 15.37 6.9629 15.1169 6.993L14.9999 7H8.99987C8.74499 6.99972 8.49984 6.90212 8.3145 6.72715C8.12916 6.55218 8.01763 6.31305 8.0027 6.05861C7.98776 5.80416 8.07054 5.55362 8.23413 5.35817C8.39772 5.16271 8.62977 5.0371 8.88287 5.007L8.99987 5H14.9999Z" fill="black"/>
<path d="M8.99964 8L8.88264 8.007C8.63939 8.03566 8.41511 8.15259 8.25235 8.33563C8.08959 8.51866 7.99967 8.75507 7.99964 9V10.999L5.41364 11C5.01814 11.0001 4.63154 11.1174 4.30272 11.3372C3.9739 11.557 3.71762 11.8693 3.56628 12.2347C3.41494 12.6001 3.37533 13.0022 3.45247 13.3901C3.5296 13.778 3.72002 14.1343 3.99964 14.414L10.5856 21C10.9607 21.3749 11.4693 21.5856 11.9996 21.5856C12.53 21.5856 13.0386 21.3749 13.4136 21L19.9996 14.414C20.2795 14.1343 20.4701 13.7779 20.5474 13.3898C20.6246 13.0018 20.585 12.5995 20.4336 12.234L20.3656 12.089C20.1979 11.7612 19.943 11.4861 19.6289 11.294C19.3148 11.1018 18.9538 11.0001 18.5856 11L15.9996 10.999V9C15.9996 8.73478 15.8943 8.48043 15.7067 8.29289C15.5192 8.10536 15.2649 8 14.9996 8H8.99964Z" stroke="black"/>
<path d="M14.9999 2C15.2547 2.00028 15.4999 2.09788 15.6852 2.27285C15.8706 2.44782 15.9821 2.68695 15.997 2.94139C16.012 3.19584 15.9292 3.44638 15.7656 3.64183C15.602 3.83729 15.37 3.9629 15.1169 3.993L14.9999 4H8.99987C8.74499 3.99972 8.49984 3.90212 8.3145 3.72715C8.12916 3.55218 8.01763 3.31305 8.0027 3.05861C7.98776 2.80416 8.07054 2.55362 8.23413 2.35817C8.39772 2.16271 8.62977 2.0371 8.88287 2.007L8.99987 2H14.9999Z" stroke="black"/>
<path d="M14.9999 5C15.2547 5.00028 15.4999 5.09788 15.6852 5.27285C15.8706 5.44782 15.9821 5.68695 15.997 5.94139C16.012 6.19584 15.9292 6.44638 15.7656 6.64183C15.602 6.83729 15.37 6.9629 15.1169 6.993L14.9999 7H8.99987C8.74499 6.99972 8.49984 6.90212 8.3145 6.72715C8.12916 6.55218 8.01763 6.31305 8.0027 6.05861C7.98776 5.80416 8.07054 5.55362 8.23413 5.35817C8.39772 5.16271 8.62977 5.0371 8.88287 5.007L8.99987 5H14.9999Z" stroke="black"/>
</svg>
