<svg width="24" height="24" viewBox="0 0 24 24" fill="none" xmlns="http://www.w3.org/2000/svg">
<path fill-rule="evenodd" clip-rule="evenodd" d="M5.08595 7.38046C5.99967 7.00207 7.00508 6.90314 7.97503 7.09619C8.93672 7.28759 9.82071 7.7575 10.5172 8.44718C11.067 8.94796 11.5635 9.50223 11.9999 10.101C12.4362 9.50223 12.9328 8.94796 13.4826 8.44718C14.179 7.75749 15.063 7.28759 16.0247 7.09619C16.9947 6.90314 18.0001 7.00207 18.9138 7.38046C19.8275 7.75885 20.6085 8.39972 21.158 9.22199C21.7074 10.0443 22.0007 11.011 22.0007 12C22.0007 12.989 21.7074 13.9557 21.158 14.778C20.6085 15.6003 19.8275 16.2411 18.9138 16.6195C18.0001 16.9979 16.9947 17.0969 16.0247 16.9038C15.063 16.7124 14.179 16.2425 13.4826 15.5528C12.9328 15.052 12.4362 14.4978 11.9999 13.8991C11.5635 14.4978 11.067 15.052 10.5172 15.5528C9.82071 16.2425 8.93672 16.7124 7.97503 16.9038C7.00508 17.0969 5.99967 16.9979 5.08595 16.6195C4.17224 16.2411 3.39125 15.6003 2.84178 14.778C2.29231 13.9557 1.99902 12.989 1.99902 12C1.99902 11.011 2.29231 10.0443 2.84178 9.22199C3.39125 8.39972 4.17224 7.75885 5.08595 7.38046ZM10.8579 12C10.399 11.2237 9.82557 10.5199 9.1561 9.91276C9.14402 9.9018 9.1322 9.89054 9.12066 9.879C8.70114 9.45935 8.1666 9.17354 7.58463 9.05771C7.00266 8.94188 6.39941 9.00124 5.85118 9.22828C5.30295 9.45531 4.83436 9.83983 4.50468 10.3332C4.17499 10.8266 3.99902 11.4066 3.99902 12C3.99902 12.5934 4.17499 13.1734 4.50468 13.6668C4.83436 14.1602 5.30295 14.5447 5.85118 14.7717C6.39941 14.9988 7.00266 15.0581 7.58463 14.9423C8.1666 14.8265 8.70114 14.5407 9.12066 14.121C9.1322 14.1095 9.14402 14.0982 9.1561 14.0872C9.82557 13.4801 10.399 12.7763 10.8579 12ZM13.1419 12C13.6007 12.7763 14.1742 13.4801 14.8437 14.0872C14.8557 14.0982 14.8676 14.1095 14.8791 14.121C15.2986 14.5407 15.8332 14.8265 16.4151 14.9423C16.9971 15.0581 17.6003 14.9988 18.1486 14.7717C18.6968 14.5447 19.1654 14.1602 19.4951 13.6668C19.8248 13.1734 20.0007 12.5934 20.0007 12C20.0007 11.4066 19.8248 10.8266 19.4951 10.3332C19.1654 9.83983 18.6968 9.45531 18.1486 9.22828C17.6003 9.00124 16.9971 8.94188 16.4151 9.05771C15.8332 9.17354 15.2986 9.45935 14.8791 9.879C14.8676 9.89054 14.8557 9.9018 14.8437 9.91276C14.1742 10.5199 13.6007 11.2237 13.1419 12Z" fill="black"/>
</svg>
