<svg width="24" height="24" viewBox="0 0 24 24" fill="none" xmlns="http://www.w3.org/2000/svg">
<path fill-rule="evenodd" clip-rule="evenodd" d="M5 5C4.73478 5 4.48043 5.10536 4.29289 5.29289C4.10536 5.48043 4 5.73478 4 6V18C4 18.2652 4.10536 18.5196 4.29289 18.7071C4.48043 18.8946 4.73478 19 5 19H19C19.2652 19 19.5196 18.8946 19.7071 18.7071C19.8946 18.5196 20 18.2652 20 18V6C20 5.73478 19.8946 5.48043 19.7071 5.29289C19.5196 5.10536 19.2652 5 19 5H5ZM2.87868 3.87868C3.44129 3.31607 4.20435 3 5 3H19C19.7957 3 20.5587 3.31607 21.1213 3.87868C21.6839 4.44129 22 5.20435 22 6V18C22 18.7957 21.6839 19.5587 21.1213 20.1213C20.5587 20.6839 19.7957 21 19 21H5C4.20435 21 3.44129 20.6839 2.87868 20.1213C2.31607 19.5587 2 18.7956 2 18V6C2 5.20435 2.31607 4.44129 2.87868 3.87868ZM6 8C6 7.44772 6.44772 7 7 7H17C17.5523 7 18 7.44772 18 8C18 8.55228 17.5523 9 17 9H7C6.44772 9 6 8.55228 6 8ZM6 12C6 11.4477 6.44772 11 7 11H17C17.5523 11 18 11.4477 18 12C18 12.5523 17.5523 13 17 13H7C6.44772 13 6 12.5523 6 12ZM6 16C6 15.4477 6.44772 15 7 15H17C17.5523 15 18 15.4477 18 16C18 16.5523 17.5523 17 17 17H7C6.44772 17 6 16.5523 6 16Z" fill="black"/>
</svg>
