<svg width="24" height="24" viewBox="0 0 24 24" fill="none" xmlns="http://www.w3.org/2000/svg">
<path fill-rule="evenodd" clip-rule="evenodd" d="M7.75736 3.75736C8.88258 2.63214 10.4087 2 12 2C13.5913 2 15.1174 2.63214 16.2426 3.75736C17.1293 4.64405 17.7098 5.77969 17.9161 7H18C18.5523 7 19 7.44772 19 8C19 8.55228 18.5523 9 18 9V11C18.5304 11 19.0391 11.2107 19.4142 11.5858C19.7893 11.9609 20 12.4696 20 13V15C20 15.5304 19.7893 16.0391 19.4142 16.4142C19.0391 16.7893 18.5304 17 18 17V20H19C19.5523 20 20 20.4477 20 21C20 21.5523 19.5523 22 19 22H5C4.44772 22 4 21.5523 4 21C4 20.4477 4.44772 20 5 20H6V17C5.46957 17 4.96086 16.7893 4.58579 16.4142C4.21071 16.0391 4 15.5304 4 15V13C4 12.4696 4.21071 11.9609 4.58579 11.5858C4.96086 11.2107 5.46957 11 6 11V9C5.44772 9 5 8.55228 5 8C5 7.44772 5.44772 7 6 7H6.08389C6.29016 5.77969 6.87067 4.64405 7.75736 3.75736ZM8 9V12C8 12.5523 7.55228 13 7 13H6L6 15H7C7.55228 15 8 15.4477 8 16V20H16V16C16 15.4477 16.4477 15 17 15H18V13H17C16.4477 13 16 12.5523 16 12V9H8ZM15.873 7H8.12701C8.30416 6.31397 8.66203 5.68111 9.17157 5.17157C9.92172 4.42143 10.9391 4 12 4C13.0609 4 14.0783 4.42143 14.8284 5.17157C15.338 5.68111 15.6958 6.31397 15.873 7ZM9.87868 11.8787C10.4413 11.3161 11.2043 11 12 11C12.7957 11 13.5587 11.3161 14.1213 11.8787C14.6839 12.4413 15 13.2043 15 14C15 14.7957 14.6839 15.5587 14.1213 16.1213C13.5587 16.6839 12.7957 17 12 17C11.2043 17 10.4413 16.6839 9.87868 16.1213C9.31607 15.5587 9 14.7957 9 14C9 13.2043 9.31607 12.4413 9.87868 11.8787ZM12 13C11.7348 13 11.4804 13.1054 11.2929 13.2929C11.1054 13.4804 11 13.7348 11 14C11 14.2652 11.1054 14.5196 11.2929 14.7071C11.4804 14.8946 11.7348 15 12 15C12.2652 15 12.5196 14.8946 12.7071 14.7071C12.8946 14.5196 13 14.2652 13 14C13 13.7348 12.8946 13.4804 12.7071 13.2929C12.5196 13.1054 12.2652 13 12 13Z" fill="black"/>
</svg>
