<svg width="24" height="24" viewBox="0 0 24 24" fill="none" xmlns="http://www.w3.org/2000/svg">
<path fill-rule="evenodd" clip-rule="evenodd" d="M16 3C16 2.44772 16.4477 2 17 2H21C21.5523 2 22 2.44772 22 3V7C22 7.55228 21.5523 8 21 8H17C16.4477 8 16 7.55228 16 7V3ZM18 4V6H20V4H18ZM8.5 6C7.83696 6 7.20107 6.26339 6.73223 6.73223C6.26339 7.20107 6 7.83696 6 8.5C6 9.16304 6.26339 9.79893 6.73223 10.2678C7.20107 10.7366 7.83696 11 8.5 11H16.5C17.6935 11 18.8381 11.4741 19.682 12.318C20.5259 13.1619 21 14.3065 21 15.5C21 16.6935 20.5259 17.8381 19.682 18.682C18.8381 19.5259 17.6935 20 16.5 20H11C10.4477 20 10 19.5523 10 19C10 18.4477 10.4477 18 11 18H16.5C17.163 18 17.7989 17.7366 18.2678 17.2678C18.7366 16.7989 19 16.163 19 15.5C19 14.837 18.7366 14.2011 18.2678 13.7322C17.7989 13.2634 17.163 13 16.5 13H8.5C7.30653 13 6.16193 12.5259 5.31802 11.682C4.47411 10.8381 4 9.69347 4 8.5C4 7.30653 4.47411 6.16193 5.31802 5.31802C6.16193 4.47411 7.30653 4 8.5 4H13C13.5523 4 14 4.44772 14 5C14 5.55228 13.5523 6 13 6H8.5ZM2 17C2 16.4477 2.44772 16 3 16H7C7.55228 16 8 16.4477 8 17V21C8 21.5523 7.55228 22 7 22H3C2.44772 22 2 21.5523 2 21V17ZM4 18V20H6V18H4Z" fill="black"/>
</svg>
