<svg width="21" height="24" viewBox="0 0 21 24" fill="none" xmlns="http://www.w3.org/2000/svg">
<g clip-path="url(#clip0_2519_11710)">
<path d="M7.47628 24.0008C7.29694 23.913 7.10304 23.8459 6.94061 23.7332C6.48428 23.4168 6.32513 22.952 6.327 22.4135C6.33076 21.453 6.32794 20.4925 6.32794 19.5319C6.32794 19.4385 6.32794 19.3455 6.32794 19.2145C6.20024 19.2145 6.0871 19.2145 5.97349 19.2145C5.67678 19.2145 5.38007 19.215 5.08384 19.2145C4.16085 19.2127 3.61203 18.6718 3.60922 17.747C3.60452 16.1616 3.60781 14.5761 3.60781 12.9907C3.60781 11.4443 3.60781 9.8983 3.60781 8.35185V8.06641H16.8691V8.32696C16.8691 11.4508 16.87 14.5747 16.8686 17.6986C16.8686 18.6873 16.3381 19.2141 15.3498 19.2145C14.9611 19.2145 14.5724 19.2145 14.1522 19.2145C14.1522 19.3267 14.1522 19.4174 14.1522 19.508C14.1522 20.3826 14.1254 21.2582 14.1597 22.1319C14.1949 23.0332 13.9132 23.7018 13.0043 24.0004H12.3485C12.3325 23.9853 12.3194 23.9637 12.3006 23.9567C11.5246 23.6703 11.2227 23.2384 11.2217 22.4074C11.2208 21.4328 11.2217 20.4582 11.2217 19.4836C11.2217 19.4005 11.2217 19.3174 11.2217 19.2329H9.25793C9.25793 19.3361 9.25793 19.4211 9.25793 19.5061C9.25793 20.5352 9.25981 21.5643 9.25512 22.5938C9.25324 23.0417 9.07014 23.4145 8.71381 23.6816C8.5387 23.813 8.32743 23.8957 8.1326 23.9999H7.47675L7.47628 24.0008Z" fill="white"/>
<path d="M20.4988 15.518C20.4664 15.6518 20.441 15.7875 20.4007 15.9189C20.1931 16.594 19.5152 17.0109 18.7932 16.9119C18.0941 16.8156 17.5528 16.2232 17.5505 15.5199C17.5444 13.4213 17.5444 11.3223 17.5505 9.22376C17.5524 8.49655 18.1622 7.882 18.8678 7.83083C19.8218 7.76135 20.41 8.48246 20.4542 9.08574C20.4579 9.13738 20.4833 9.18714 20.4988 9.23785V15.518Z" fill="white"/>
<path d="M13.556 2.07824C15.6752 3.24723 16.9724 4.9087 16.9071 7.44762H3.59564C3.49705 6.28426 3.79563 5.23499 4.42191 4.2721C5.04584 3.31296 5.90123 2.61438 6.93407 2.09139C6.60919 1.58905 6.29277 1.09986 5.97634 0.611134C5.93409 0.545877 5.8909 0.48062 5.84958 0.414424C5.76414 0.277807 5.75193 0.143538 5.89982 0.046826C6.04817 -0.0503552 6.16742 0.0134933 6.25521 0.148702C6.57398 0.638833 6.89088 1.13037 7.20871 1.62144C7.26317 1.70595 7.32045 1.78858 7.3843 1.88388C9.28708 1.15807 11.187 1.15338 13.0983 1.88576C13.4466 1.34962 13.7903 0.821459 14.1339 0.2933C14.172 0.234616 14.2076 0.173115 14.2504 0.118186C14.3372 0.00598169 14.4485 -0.0400268 14.5766 0.0426007C14.7123 0.129923 14.7278 0.256681 14.6452 0.388134C14.4757 0.659021 14.3001 0.926621 14.1274 1.19516C13.9377 1.48905 13.748 1.78294 13.5569 2.07824H13.556ZM7.16646 5.16363C7.51058 5.16034 7.79133 4.88194 7.79415 4.5411C7.79696 4.19557 7.49603 3.89792 7.1505 3.90403C6.79558 3.9106 6.52516 4.19651 6.53267 4.55754C6.54018 4.90683 6.81248 5.16691 7.16646 5.16363ZM13.3264 5.16363C13.679 5.16222 13.9443 4.89744 13.9466 4.54486C13.949 4.18524 13.6687 3.8998 13.3166 3.90356C12.9786 3.90731 12.6908 4.19322 12.6856 4.53078C12.6804 4.87819 12.971 5.16504 13.3264 5.16363Z" fill="white"/>
<path d="M2.93193 12.3807C2.93193 13.4112 2.93474 14.4412 2.93099 15.4717C2.92817 16.2214 2.38781 16.8308 1.66294 16.913C0.905205 16.9994 0.234796 16.5524 0.0531093 15.8261C0.012265 15.6618 0.00287553 15.4862 0.00287553 15.3163C-0.00041079 13.3492 -0.000880265 11.3821 0.00146711 9.415C0.00240606 8.59811 0.398173 8.05587 1.11976 7.86385C2.00612 7.62771 2.91878 8.30328 2.92817 9.21923C2.93944 10.2727 2.93099 11.3267 2.93099 12.3807H2.93193Z" fill="white"/>
</g>
<defs>
<clipPath id="clip0_2519_11710">
<rect width="20.4987" height="24" fill="white"/>
</clipPath>
</defs>
</svg>
