<svg width="19" height="24" viewBox="0 0 19 24" fill="none" xmlns="http://www.w3.org/2000/svg">
<g clip-path="url(#clip0_2519_11707)">
<path d="M0 13.7289C0 13.2288 0 12.7293 0 12.2293C0.0141227 12.1697 0.0323455 12.1105 0.0419124 12.0499C0.106603 11.6433 0.138949 11.2283 0.238263 10.8306C0.694744 8.99817 1.60452 7.49341 3.24502 6.54314C4.25092 5.96049 5.33336 5.66893 6.47274 5.92246C7.23445 6.09195 7.97339 6.38727 8.7064 6.66944C9.30183 6.89856 9.86446 6.93987 10.4622 6.67601C10.9883 6.44314 11.5341 6.25299 12.0813 6.07787C13.9222 5.48723 15.6352 5.80321 17.2164 6.91029C17.687 7.23988 18.0624 7.67558 18.3713 8.19485C16.6228 9.3409 15.745 10.9311 15.8935 13.0903C16.042 15.2543 17.1568 16.6957 18.9995 17.6102C18.9827 17.6666 18.974 17.6952 18.9649 17.7239C18.6355 18.7582 18.1777 19.7329 17.6096 20.646C17.083 21.4926 16.5431 22.3344 15.8388 23.0429C15.042 23.8448 14.1008 24.156 13.012 23.8654C12.5172 23.733 12.0334 23.5494 11.5546 23.3612C10.705 23.0269 9.83712 22.9123 8.95514 23.156C8.40299 23.3086 7.86997 23.5358 7.32739 23.7269C6.79528 23.9142 6.25634 24.0772 5.68688 23.9612C4.92562 23.8063 4.34204 23.3372 3.83043 22.7701C2.66417 21.478 1.77399 19.9981 1.10612 18.3783C0.616842 17.191 0.293387 15.9529 0.130293 14.6716C0.091114 14.3566 0.0437347 14.043 0 13.7289Z" fill="white"/>
<path d="M14.1344 0C14.2707 1.50945 13.7891 2.8034 12.8406 3.93349C12.381 4.4814 11.8634 4.95278 11.2092 5.24575C10.6562 5.49364 10.0812 5.57252 9.46759 5.51665C9.4111 4.74807 9.50358 4.00532 9.8038 3.30342C10.5673 1.5179 11.8994 0.4526 13.739 0.0422552C13.7663 0.0361516 13.7905 0.0145546 13.8165 0C13.9226 0 14.0288 0 14.1344 0Z" fill="white"/>
</g>
<defs>
<clipPath id="clip0_2519_11707">
<rect width="19" height="24" fill="white"/>
</clipPath>
</defs>
</svg>
