<svg width="132" height="44" viewBox="0 0 132 44" fill="none" xmlns="http://www.w3.org/2000/svg">
<path fill-rule="evenodd" clip-rule="evenodd" d="M27.1636 28.6781C30.8067 31.2593 34.3139 33.744 37.8247 36.2287C33.0376 41.9132 24.4644 45.188 15.8161 42.7498C6.65306 40.1721 0.418026 32.0065 0.0211863 22.7862C-0.42213 12.4612 6.14182 3.91667 15.0082 1.05298C23.5527 -1.70702 32.5478 1.15666 37.8354 7.33092C36.723 8.11816 35.6122 8.9054 34.4931 9.69851L34.4873 9.70259L34.4845 9.70459L34.4787 9.70872L32.6729 10.9883C29.1871 7.56688 25.0114 5.97237 20.142 6.42999C16.2666 6.79465 13.0025 8.48569 10.3569 11.3422C5.34099 16.7621 4.94415 25.1887 9.42022 31.0948C14.0357 37.1869 21.5935 38.3166 26.7632 36.2967C26.7023 36.2489 26.6468 36.2028 26.5937 36.1588L26.5935 36.1586L26.5931 36.1583L26.5929 36.1581L26.5928 36.158L26.5928 36.158L26.5924 36.1577L26.5922 36.1576L26.5921 36.1575L26.592 36.1574C26.5147 36.0933 26.4424 36.0334 26.3664 35.9785C25.5255 35.3772 24.6828 34.778 23.8399 34.1788L23.8397 34.1787L23.8395 34.1785L23.8393 34.1784L23.8391 34.1782L23.8389 34.1781L23.8387 34.1779L23.8385 34.1778L23.8383 34.1776L23.8381 34.1775L23.8367 34.1765C21.6238 32.6033 19.4101 31.0295 17.2283 29.4145C16.2344 28.6781 15.2584 27.8343 14.5076 26.8619C10.7001 21.9282 13.5817 14.3954 19.7345 13.0762C24.7754 11.9965 29.6269 15.282 30.4063 20.3516C30.8889 23.5013 29.9379 26.1933 27.6141 28.3849C27.5419 28.4524 27.4546 28.5032 27.3502 28.564C27.2942 28.5966 27.2333 28.6321 27.1672 28.6745L27.1636 28.6781ZM70.512 14.9867V18.8693H68.1953V7.28226C68.2215 7.2775 68.2485 7.27074 68.2761 7.26386C68.3312 7.25009 68.3884 7.23579 68.4456 7.23579C68.7857 7.23579 69.1257 7.23543 69.4655 7.23508H69.4656C70.6546 7.23385 71.8425 7.23261 73.0325 7.24651C73.8119 7.25724 74.5698 7.41454 75.2491 7.82211C76.2036 8.39413 76.6183 9.30221 76.7292 10.3605C76.8936 11.9121 76.6112 13.3099 75.2562 14.3146C75.1668 14.3789 75.1525 14.6435 75.2026 14.7793C75.5296 15.6933 75.8686 16.6012 76.2076 17.5091L76.2082 17.5105C76.3212 17.8132 76.4342 18.1159 76.5468 18.4188C76.5864 18.5218 76.6202 18.6268 76.6611 18.7538L76.6611 18.754L76.6617 18.7559C76.676 18.8002 76.6911 18.8473 76.7077 18.8979C76.502 18.8979 76.2999 18.8988 76.1007 18.8997C75.5139 18.9024 74.9515 18.9049 74.391 18.8836C74.273 18.88 74.105 18.6869 74.055 18.5475C73.6724 17.4893 73.3078 16.4275 72.9574 15.3585C72.8644 15.0796 72.7357 14.9688 72.4318 14.9795C72.0019 14.997 71.5719 14.9936 71.1175 14.9899L71.1173 14.9899C70.9219 14.9883 70.722 14.9867 70.5156 14.9867H70.512ZM70.562 9.27004V12.9667C70.8151 12.9667 71.0644 12.9701 71.311 12.9734C71.8692 12.9809 72.4132 12.9882 72.9538 12.956C73.7654 12.906 74.2838 12.3089 74.366 11.4437C74.4697 10.3283 74.0943 9.58108 73.297 9.32367L73.2886 9.3207C73.2193 9.29643 73.1441 9.27004 73.0754 9.27004C72.5242 9.26766 71.9731 9.26845 71.4146 9.26924H71.4142H71.4138H71.4135C71.1319 9.26964 70.8483 9.27004 70.562 9.27004ZM84.9219 12.1485C84.8851 12.428 84.8493 12.6996 84.8096 12.9589C84.8505 13.297 84.8829 13.6194 84.9142 13.9304L84.9143 13.9316C84.9758 14.5442 85.033 15.113 85.1421 15.6724C85.4495 17.2383 86.2182 18.5111 87.8913 18.8615C88.8101 19.0545 89.7933 19.0903 90.7336 19.0188C92.6641 18.8686 93.8118 17.7389 94.2229 15.8691C94.6448 13.9599 94.6448 12.0437 94.1729 10.1453C93.7832 8.58652 92.8751 7.46392 91.2269 7.19221C90.3546 7.04921 89.4394 7.03491 88.5599 7.12428C86.7973 7.30304 85.689 8.34341 85.2779 10.0452C85.1059 10.7509 85.0109 11.4727 84.9219 12.1485ZM92.0778 12.2829C92.1137 12.5559 92.1496 12.8294 92.1922 13.1019L92.1886 13.0983C92.1473 13.3712 92.1129 13.6433 92.0787 13.9138C92.0037 14.508 91.9296 15.0942 91.7847 15.6617C91.5308 16.6627 90.8444 17.0596 89.6682 17.056C88.5349 17.0524 87.8663 16.6484 87.6018 15.6546C87.1441 13.9421 87.1477 12.2081 87.6232 10.4992C87.9056 9.48387 88.5885 9.06916 89.729 9.07273C90.8265 9.07988 91.5165 9.50532 91.7739 10.5135C91.9212 11.0902 91.9993 11.6854 92.0778 12.2829ZM57.767 24.8313C58.0557 24.8313 58.3419 24.831 58.6262 24.8307C59.7537 24.8295 60.8507 24.8284 61.9499 24.8456C62.0715 24.8456 62.2645 25.0207 62.2931 25.1459C63.1369 28.839 63.9627 32.5321 64.7886 36.2288C64.7979 36.2752 64.7951 36.3245 64.792 36.3798V36.3799C64.7904 36.4099 64.7886 36.4416 64.7886 36.4755H62.5076C62.4708 36.3098 62.4352 36.1426 62.3993 35.9746L62.3993 35.9746L62.3993 35.9745L62.3993 35.9745L62.3993 35.9745L62.3993 35.9744L62.3993 35.9744L62.3993 35.9744L62.3993 35.9743L62.3992 35.9743L62.3992 35.9743L62.3992 35.9742C62.3099 35.5553 62.2195 35.1314 62.1072 34.7129C62.0715 34.5807 61.8892 34.3948 61.7712 34.3912C60.8136 34.372 59.8539 34.3738 58.8694 34.3757C58.5712 34.3763 58.2706 34.3769 57.9672 34.3769C57.8818 34.7448 57.7982 35.1088 57.7151 35.471C57.6383 35.8057 57.5619 36.1388 57.4846 36.4719H55.1572C55.6475 34.2854 56.1345 32.1091 56.6219 29.9309L56.6252 29.9161L56.6268 29.9088L56.6298 29.8955C57.0068 28.2104 57.3841 26.5242 57.7635 24.8313H57.767ZM60.4257 26.8046C59.9914 26.7588 59.7809 26.7366 59.6577 26.8298C59.5418 26.9173 59.5031 27.1069 59.4278 27.4746L59.4259 27.484C59.3245 27.9776 59.2191 28.4699 59.1137 28.9616L59.1135 28.9628L59.1132 28.964C59.0479 29.2692 58.9825 29.5743 58.9182 29.8794C58.7466 30.6838 58.5786 31.4882 58.407 32.314H61.5996C61.2063 30.4621 60.8202 28.6424 60.4305 26.8047H60.4269L60.4257 26.8046ZM95.7041 24.831H95.7015C95.417 24.8313 95.1314 24.8316 94.8445 24.8316V24.828C93.9758 28.7178 93.1106 32.5825 92.2383 36.4758H94.5692C94.6057 36.3096 94.6408 36.1434 94.6758 35.9774C94.7642 35.5579 94.8523 35.14 94.9625 34.7276C94.9983 34.5917 95.1699 34.3879 95.2807 34.3879C96.2922 34.3708 97.3037 34.3719 98.3316 34.373C98.5898 34.3733 98.8491 34.3736 99.1097 34.3736C99.2741 35.0922 99.435 35.7894 99.5887 36.4543H101.913C101.839 36.122 101.766 35.7936 101.694 35.468L101.693 35.4626L101.692 35.4581C101.538 34.7609 101.386 34.0767 101.233 33.394L100.934 32.064C100.42 29.7733 99.9056 27.4848 99.3814 25.1962C99.3492 25.0604 99.1847 24.8459 99.0811 24.8459C97.961 24.8287 96.8409 24.8299 95.7043 24.831H95.7041ZM98.6392 32.267C98.6371 32.2749 98.6349 32.2834 98.6326 32.2927L98.6291 32.3081L98.627 32.3179H95.4809C95.6418 31.5564 95.7991 30.8128 95.9564 30.0727C96.0207 29.7703 96.0867 29.4684 96.1526 29.1667L96.1529 29.1653C96.3067 28.462 96.4602 27.7595 96.5928 27.0517C96.6494 26.7486 96.824 26.759 97.0181 26.7705L97.0611 26.7729C97.1 26.775 97.1405 26.7727 97.1809 26.7704C97.3411 26.7611 97.5002 26.7519 97.5545 27.0231C97.7932 28.1901 98.0416 29.3554 98.2899 30.5202C98.4099 31.0826 98.5297 31.6448 98.6485 32.2071C98.6507 32.223 98.6458 32.2417 98.6392 32.267ZM56.044 7.25H58.3678V7.80057V14.5576V14.9294C58.4179 16.717 59.873 17.6072 61.5247 16.8635C62.1932 16.5632 62.4864 16.0019 62.4971 15.3084C62.5144 13.8554 62.5163 12.4024 62.5182 10.9494C62.5191 10.3038 62.5199 9.65815 62.5221 9.01254V7.27145H64.8782V7.74694C64.8782 8.37695 64.8789 9.0067 64.8797 9.63632L64.8797 9.65395V9.65431V9.65468V9.65504V9.6554V9.65576V9.65612V9.65648V9.65684V9.6572V9.65756V9.65792C64.8819 11.3507 64.884 13.0426 64.871 14.7363C64.8674 15.2726 64.8138 15.816 64.7137 16.3416C64.4563 17.6858 63.6126 18.5224 62.3112 18.8763C61.1743 19.1874 60.016 19.1981 58.8719 18.9443C57.0772 18.5474 56.1548 17.5357 56.0726 15.4871C55.995 13.5799 56.012 11.6691 56.0292 9.74016V9.73993V9.7397V9.73947V9.73923V9.739V9.73876V9.73852V9.73829V9.73805V9.73781V9.73757C56.0366 8.9121 56.044 8.0833 56.044 7.25ZM68.9826 24.9008L68.9825 24.9008C68.434 24.9119 67.8834 24.923 67.3307 24.923H67.3271V36.4599H69.626V33.0635C69.9043 33.0635 70.1753 33.0664 70.4413 33.0691H70.4416H70.4419H70.4422H70.4424H70.4426H70.4429H70.4432C71.0271 33.0752 71.5868 33.0809 72.1464 33.0564C73.7874 32.9885 75.078 32.0589 75.4356 30.5574C75.6322 29.7351 75.693 28.8413 75.6107 27.9976C75.4391 26.2386 74.4095 25.1053 72.6684 24.9551C71.4514 24.851 70.2225 24.8758 68.9826 24.9008ZM70.3432 31.0591C70.1136 31.0567 69.881 31.0543 69.6438 31.0543L69.6403 31.0507V26.9215C69.8956 26.9215 70.1497 26.9178 70.4027 26.9141C71.0107 26.9052 71.6125 26.8964 72.2108 26.9393C72.7041 26.9751 73.0223 27.3576 73.1653 27.8367C73.387 28.5803 73.3727 29.3275 73.1189 30.0604C72.9151 30.6503 72.4861 31.0186 71.8533 31.0472C71.3563 31.0694 70.8577 31.0643 70.3432 31.0591ZM97.0591 17.5193L97.0592 17.5186C97.091 17.2742 97.1227 17.031 97.155 16.7799C97.3909 16.8039 97.6239 16.8303 97.8549 16.8564C98.3801 16.9159 98.8956 16.9742 99.4145 17.0015C100.072 17.0337 100.744 17.048 101.392 16.9586C102.049 16.8693 102.396 16.4116 102.457 15.7967C102.525 15.1031 102.339 14.7456 101.653 14.4596C101.315 14.3189 100.968 14.2057 100.621 14.0924C100.368 14.0099 100.115 13.9273 99.8649 13.834C99.3465 13.6373 98.8282 13.4371 98.3384 13.1869C97.0084 12.504 96.6724 11.3314 96.8082 9.95138C96.9333 8.66075 97.6055 7.78484 98.8246 7.32723C99.7327 6.98759 100.677 6.98759 101.613 7.06624C102.305 7.12456 102.994 7.22243 103.692 7.32161L103.692 7.32165C103.978 7.36231 104.266 7.40318 104.556 7.44163C104.491 8.11376 104.434 8.68935 104.37 9.31858C104.15 9.29855 103.933 9.27576 103.718 9.25311C103.24 9.20295 102.769 9.15348 102.296 9.13624C101.574 9.11122 100.845 9.08619 100.133 9.172C99.4753 9.25065 99.1535 9.65106 99.1106 10.1909C99.0677 10.7415 99.2715 11.0668 99.9186 11.335C100.258 11.4753 100.605 11.5975 100.951 11.7198C101.258 11.828 101.565 11.9363 101.867 12.0571C102.425 12.2788 102.979 12.5112 103.508 12.79C104.191 13.1475 104.598 13.7374 104.72 14.4989C105.188 17.4842 103.519 18.9643 101.134 19.0823C100.673 19.1037 100.205 19.1073 99.747 19.0501C99.0894 18.9641 98.4354 18.8548 97.7634 18.7426L97.7628 18.7425L97.7627 18.7425L97.7626 18.7424L97.7622 18.7424L97.7619 18.7423L97.7616 18.7423L97.7612 18.7422L97.7609 18.7422L97.7605 18.7421L97.7602 18.742L97.7598 18.742L97.7595 18.7419C97.4829 18.6957 97.2033 18.649 96.919 18.6032C96.9675 18.2221 97.0134 17.8696 97.0591 17.5193ZM53.2833 18.7392V16.8051H53.2761C53.2234 16.8095 53.1826 16.8139 53.1487 16.8175L53.1487 16.8175C53.0999 16.8228 53.0653 16.8265 53.0294 16.8265C52.6887 16.842 52.3476 16.8645 52.0064 16.8871C51.2414 16.9378 50.4757 16.9885 49.7117 16.9588C48.7679 16.9231 48.2388 16.4476 48.1351 15.5002C47.9957 14.2346 47.9885 12.9511 47.9957 11.6783C47.9992 11.1671 48.1494 10.6451 48.2995 10.1482C48.4783 9.569 48.9216 9.22579 49.5294 9.17574C50.1264 9.12568 50.7306 9.10781 51.3277 9.13284C51.7577 9.15195 52.1845 9.20139 52.6338 9.25343L52.6339 9.25345C52.8569 9.27928 53.0854 9.30575 53.3226 9.32947C53.3226 9.17855 53.3214 9.03003 53.3202 8.88329C53.3173 8.5225 53.3145 8.17252 53.3298 7.82434C53.3405 7.55978 53.2582 7.4561 52.9901 7.39532C51.7352 7.11646 50.4696 6.96988 49.179 7.05568C47.2878 7.18439 46.2188 8.07102 45.822 9.91936C45.393 11.9179 45.3894 13.9378 45.7505 15.9399C46.0293 17.4879 46.823 18.707 48.514 18.9537C49.4507 19.0896 50.4196 19.0538 51.3706 19.0181C51.8133 19.001 52.256 18.9202 52.6896 18.8412C52.8897 18.8047 53.0879 18.7686 53.2833 18.7392ZM53.2729 34.419V36.3389C53.0865 36.3681 52.8985 36.4033 52.7092 36.4387L52.7092 36.4387L52.7091 36.4387L52.709 36.4387L52.709 36.4387L52.7089 36.4388L52.7088 36.4388L52.7088 36.4388C52.2737 36.5202 51.8322 36.6028 51.3888 36.6177C50.4235 36.6535 49.4368 36.6856 48.4858 36.5462C46.9878 36.3317 46.0368 35.2556 45.7401 33.5145C45.4005 31.5231 45.3897 29.5211 45.8152 27.5404C46.2228 25.6528 47.3024 24.7661 49.2437 24.6482C50.5165 24.5731 51.7678 24.7232 53.0084 24.9985C53.2586 25.0557 53.3337 25.1558 53.3265 25.3989C53.3142 25.747 53.3172 26.095 53.3202 26.4477V26.4479C53.3216 26.606 53.323 26.7651 53.323 26.9255C53.0968 26.9028 52.8792 26.8784 52.6673 26.8547L52.6672 26.8547C52.1791 26.8001 51.7213 26.7488 51.2601 26.7289C50.6917 26.7039 50.1196 26.7217 49.5548 26.7682C48.9291 26.8218 48.4751 27.1651 48.2928 27.7657C48.1497 28.234 48.0175 28.7238 48.0032 29.2065C47.971 30.3755 47.9424 31.5518 48.0461 32.7101C48.1676 34.0615 48.8326 34.6228 50.1912 34.6192C50.8319 34.6168 51.4709 34.5612 52.1095 34.5057L52.1098 34.5057C52.4082 34.4797 52.7065 34.4538 53.0048 34.4333C53.0461 34.4313 53.0874 34.4283 53.1352 34.4248L53.1356 34.4247L53.1359 34.4247L53.1946 34.4204C53.2177 34.4188 53.2424 34.4171 53.2693 34.4154L53.2729 34.419ZM122.571 7.23189H122.571H122.571H122.571H122.571H122.571L122.571 7.23189C122.368 7.23303 122.163 7.23418 121.952 7.23418L121.948 7.23776C121.996 7.3346 122.035 7.41522 122.07 7.48684L122.072 7.49078L122.072 7.49173C122.115 7.57925 122.151 7.6534 122.188 7.72755C122.507 8.34792 122.828 8.96762 123.148 9.58727L123.15 9.58986L123.151 9.59312L123.154 9.59773C123.879 10.9993 124.603 12.4007 125.316 13.8089C125.445 14.0591 125.516 14.363 125.52 14.6419C125.536 15.5775 125.534 16.5151 125.532 17.4517V17.4526C125.531 17.7647 125.531 18.0768 125.531 18.3886C125.531 18.4953 125.537 18.6036 125.543 18.7125L125.547 18.7821L125.549 18.8206L125.552 18.8784H127.858V18.36C127.858 18.0147 127.857 17.6697 127.856 17.3247V17.3244V17.324V17.3237V17.3233V17.3229V17.3226C127.854 16.404 127.852 15.4864 127.865 14.5668C127.865 14.3308 127.926 14.077 128.033 13.8661C128.826 12.2941 129.627 10.7263 130.429 9.15788L130.43 9.15559L130.432 9.15199L130.469 9.07914C130.699 8.6299 130.928 8.1806 131.158 7.73113C131.202 7.6462 131.242 7.55748 131.286 7.45824C131.316 7.39039 131.349 7.31761 131.387 7.23776C131.173 7.23776 130.965 7.23996 130.76 7.24212C130.274 7.24726 129.808 7.25218 129.345 7.22703C128.952 7.20558 128.755 7.32356 128.591 7.69895C128.163 8.68148 127.712 9.65494 127.249 10.6542C127.062 11.0584 126.872 11.4669 126.682 11.8819C126.642 11.8004 126.606 11.731 126.574 11.6683L126.574 11.667L126.573 11.6665C126.526 11.5731 126.486 11.4946 126.449 11.4135C126.278 11.0424 126.108 10.671 125.938 10.2996L125.938 10.2994L125.938 10.2991L125.938 10.2988L125.938 10.2986L125.937 10.2978L125.937 10.2971C125.524 9.39569 125.112 8.49458 124.687 7.59885C124.615 7.44869 124.429 7.25921 124.29 7.25206C123.728 7.2254 123.165 7.22856 122.571 7.23189ZM86.0674 26.904H82.957V24.8555H91.4694C91.4694 25.0003 91.4702 25.145 91.471 25.2895C91.4736 25.7583 91.4761 26.2249 91.4516 26.6895C91.448 26.7646 91.212 26.8861 91.0833 26.8897C90.5498 26.9058 90.0184 26.9038 89.4859 26.9018C89.3083 26.9011 89.1305 26.9004 88.9525 26.9004H88.3912V36.4711H86.071V26.904H86.0674ZM115.415 18.8741H117.761V9.27843H120.778V7.26562H112.319V9.2963C112.595 9.2963 112.866 9.2959 113.135 9.2955H113.135H113.136H113.136H113.136C113.666 9.29471 114.186 9.29393 114.708 9.2963C114.786 9.29666 114.856 9.29611 114.918 9.29561C115.167 9.29364 115.292 9.29264 115.355 9.35487C115.419 9.41837 115.418 9.54769 115.416 9.80895V9.80903L115.416 9.81075C115.416 9.84308 115.416 9.87742 115.416 9.9139C115.415 9.93493 115.415 9.95668 115.415 9.97915V18.3092V18.8741ZM110.943 36.4714H104.411V24.8594H106.699V34.4157H110.943V36.4714ZM107.602 18.8741H109.89V7.26562H107.602V18.8741ZM81.9388 18.8748H79.6758V7.27344H81.9388V18.8748ZM78.2666 36.4747H80.5332V24.8555H78.2666V36.4747Z" fill="white"/>
</svg>
