<svg width="22" height="18" viewBox="0 0 22 18" fill="none" xmlns="http://www.w3.org/2000/svg">
<path d="M20.5259 7.71615C19.6768 4.80964 18.7192 3.30786 18.7037 3.28092C18.6491 3.21454 17.296 1.60126 14.0346 0.40799L13.6036 1.57694C15.1552 2.14464 16.2559 2.83721 16.8613 3.2847C15.054 2.747 12.9039 2.4177 10.9997 2.4177C9.09542 2.4177 6.94538 2.747 5.13805 3.2847C5.74338 2.83725 6.84413 2.14464 8.39567 1.57694L7.96472 0.40799C4.70342 1.60126 3.35026 3.21454 3.29567 3.28092C3.28022 3.30786 2.32259 4.80964 1.47351 7.71615C0.655174 10.5171 0.344299 14.4685 0.333008 14.627C0.405924 14.7405 2.08301 17.5932 6.65355 17.5932L7.81205 15.9219C6.51413 15.5785 5.27651 15.0249 4.14359 14.2735L4.83622 13.2369C6.66392 14.4489 8.79522 15.0896 10.9997 15.0896C13.2041 15.0896 15.3354 14.4489 17.1631 13.2369L17.8558 14.2735C16.7229 15.0249 15.4852 15.5785 14.1873 15.9219L15.3458 17.5932C19.9163 17.5932 21.5934 14.7405 21.6663 14.627C21.6551 14.4685 21.3442 10.5171 20.5259 7.71615ZM8.10976 10.974H6.85976V8.89846H8.10976V10.974ZM15.1396 10.974H13.8896V8.89846H15.1396V10.974Z" fill="#E5E5E5"/>
</svg>
