<svg width="22" height="26" viewBox="0 0 22 26" fill="none" xmlns="http://www.w3.org/2000/svg">
<path fill-rule="evenodd" clip-rule="evenodd" d="M2.5 0C1.39543 0 0.5 0.89543 0.5 2V24C0.5 25.1046 1.39543 26 2.5 26H19.5C20.6046 26 21.5 25.1046 21.5 24V6.91987C21.5 6.33602 21.2449 5.78132 20.8016 5.40136L15.0617 0.481487C14.6992 0.170784 14.2376 0 13.7602 0H2.5ZM2.5 4C2.5 3.44772 2.94772 3 3.5 3H7.5C8.05228 3 8.5 3.44772 8.5 4C8.5 4.55228 8.05228 5 7.5 5H3.5C2.94772 5 2.5 4.55228 2.5 4ZM2.5 8C2.5 7.44772 2.94772 7 3.5 7H10.5C11.0523 7 11.5 7.44772 11.5 8C11.5 8.55228 11.0523 9 10.5 9H3.5C2.94772 9 2.5 8.55228 2.5 8ZM4.5 15C3.39543 15 2.5 15.8954 2.5 17V22C2.5 23.1046 3.39543 24 4.5 24H17.5C18.6046 24 19.5 23.1046 19.5 22V17C19.5 15.8954 18.6046 15 17.5 15H4.5Z" fill="#FEFEFE"/>
<path d="M14.5 4V0L21.5 6H16.5C15.3954 6 14.5 5.10457 14.5 4Z" fill="#8E8E8E"/>
</svg>
