<svg width="121" height="120" viewBox="0 0 121 120" fill="none" xmlns="http://www.w3.org/2000/svg">
<rect width="120" height="120" transform="translate(0.666504)" fill="#2A2A2A"/>
<rect x="18.6665" y="19" width="84" height="28" rx="4" fill="#454545"/>
<path d="M42.908 27.1818H43.962V30.983C43.962 31.3996 43.8635 31.7661 43.6665 32.0824C43.4714 32.3987 43.1968 32.6458 42.8426 32.8239C42.4885 33 42.0746 33.0881 41.6012 33.0881C41.1258 33.0881 40.711 33 40.3568 32.8239C40.0027 32.6458 39.7281 32.3987 39.533 32.0824C39.3379 31.7661 39.2404 31.3996 39.2404 30.983V27.1818H40.2943V30.8949C40.2943 31.1373 40.3474 31.3532 40.4534 31.5426C40.5614 31.732 40.7129 31.8807 40.908 31.9886C41.1031 32.0947 41.3341 32.1477 41.6012 32.1477C41.8682 32.1477 42.0993 32.0947 42.2943 31.9886C42.4913 31.8807 42.6428 31.732 42.7489 31.5426C42.855 31.3532 42.908 31.1373 42.908 30.8949V27.1818ZM48.1815 28.7812C48.155 28.5331 48.0432 28.34 47.8463 28.2017C47.6512 28.0634 47.3974 27.9943 47.0849 27.9943C46.8652 27.9943 46.6768 28.0275 46.5196 28.0938C46.3624 28.16 46.2421 28.25 46.1588 28.3636C46.0754 28.4773 46.0328 28.607 46.0309 28.7528C46.0309 28.8741 46.0584 28.9792 46.1133 29.0682C46.1701 29.1572 46.2468 29.233 46.3434 29.2955C46.44 29.3561 46.547 29.4072 46.6644 29.4489C46.7819 29.4905 46.9002 29.5256 47.0196 29.554L47.565 29.6903C47.7847 29.7415 47.9959 29.8106 48.1985 29.8977C48.4031 29.9848 48.5858 30.0947 48.7468 30.2273C48.9097 30.3598 49.0385 30.5199 49.1332 30.7074C49.2279 30.8949 49.2752 31.1146 49.2752 31.3665C49.2752 31.7074 49.1881 32.0076 49.0139 32.267C48.8396 32.5246 48.5877 32.7263 48.2582 32.8722C47.9305 33.0161 47.5338 33.0881 47.0679 33.0881C46.6152 33.0881 46.2222 33.018 45.8889 32.8778C45.5574 32.7377 45.298 32.5331 45.1105 32.2642C44.9249 31.9953 44.8245 31.6676 44.8093 31.2812H45.8463C45.8614 31.4839 45.9239 31.6525 46.0338 31.7869C46.1436 31.9214 46.2866 32.0218 46.4627 32.0881C46.6408 32.1544 46.8396 32.1875 47.0593 32.1875C47.2885 32.1875 47.4893 32.1534 47.6616 32.0852C47.8358 32.0152 47.9722 31.9186 48.0707 31.7955C48.1692 31.6705 48.2194 31.5246 48.2213 31.358C48.2194 31.2064 48.1749 31.0814 48.0877 30.983C48.0006 30.8826 47.8785 30.7992 47.7213 30.733C47.566 30.6648 47.3841 30.6042 47.1758 30.5511L46.5139 30.3807C46.0347 30.2576 45.6559 30.071 45.3775 29.821C45.101 29.5691 44.9627 29.2348 44.9627 28.8182C44.9627 28.4754 45.0555 28.1752 45.2411 27.9176C45.4286 27.66 45.6834 27.4602 46.0054 27.3182C46.3273 27.1742 46.6919 27.1023 47.0991 27.1023C47.512 27.1023 47.8737 27.1742 48.1843 27.3182C48.4968 27.4602 48.7421 27.6581 48.9201 27.9119C49.0982 28.1638 49.19 28.4536 49.1957 28.7812H48.1815ZM52.0985 33H50.1269V27.1818H52.1382C52.7159 27.1818 53.2121 27.2983 53.6269 27.5312C54.0435 27.7623 54.3636 28.0947 54.5871 28.5284C54.8106 28.9621 54.9223 29.4811 54.9223 30.0852C54.9223 30.6913 54.8096 31.2121 54.5843 31.6477C54.3608 32.0833 54.0379 32.4176 53.6155 32.6506C53.195 32.8835 52.6894 33 52.0985 33ZM51.1808 32.0881H52.0473C52.4526 32.0881 52.7907 32.0142 53.0615 31.8665C53.3324 31.7169 53.536 31.4943 53.6723 31.1989C53.8087 30.9015 53.8769 30.5303 53.8769 30.0852C53.8769 29.6402 53.8087 29.2708 53.6723 28.9773C53.536 28.6818 53.3343 28.4612 53.0672 28.3153C52.8021 28.1676 52.4725 28.0938 52.0786 28.0938H51.1808V32.0881ZM55.3222 28.0653V27.1818H59.9643V28.0653H58.166V33H57.1205V28.0653H55.3222Z" fill="#767676"/>
<path d="M72.0585 33.7273V26.4545H72.5245V33.7273H72.0585ZM73.4023 28.7812C73.3758 28.5331 73.264 28.34 73.0671 28.2017C72.872 28.0634 72.6182 27.9943 72.3057 27.9943C72.086 27.9943 71.8976 28.0275 71.7404 28.0938C71.5832 28.16 71.4629 28.25 71.3796 28.3636C71.2962 28.4773 71.2536 28.607 71.2517 28.7528C71.2517 28.8741 71.2792 28.9792 71.3341 29.0682C71.3909 29.1572 71.4676 29.233 71.5642 29.2955C71.6608 29.3561 71.7678 29.4072 71.8853 29.4489C72.0027 29.4905 72.121 29.5256 72.2404 29.554L72.7858 29.6903C73.0055 29.7415 73.2167 29.8106 73.4193 29.8977C73.6239 29.9848 73.8067 30.0947 73.9676 30.2273C74.1305 30.3598 74.2593 30.5199 74.354 30.7074C74.4487 30.8949 74.496 31.1146 74.496 31.3665C74.496 31.7074 74.4089 32.0076 74.2347 32.267C74.0604 32.5246 73.8085 32.7263 73.479 32.8722C73.1514 33.0161 72.7546 33.0881 72.2887 33.0881C71.836 33.0881 71.443 33.018 71.1097 32.8778C70.7782 32.7377 70.5188 32.5331 70.3313 32.2642C70.1457 31.9953 70.0453 31.6676 70.0301 31.2812H71.0671C71.0822 31.4839 71.1447 31.6525 71.2546 31.7869C71.3644 31.9214 71.5074 32.0218 71.6835 32.0881C71.8616 32.1544 72.0604 32.1875 72.2801 32.1875C72.5093 32.1875 72.7101 32.1534 72.8824 32.0852C73.0567 32.0152 73.193 31.9186 73.2915 31.7955C73.39 31.6705 73.4402 31.5246 73.4421 31.358C73.4402 31.2064 73.3957 31.0814 73.3085 30.983C73.2214 30.8826 73.0993 30.7992 72.9421 30.733C72.7868 30.6648 72.605 30.6042 72.3966 30.5511L71.7347 30.3807C71.2555 30.2576 70.8767 30.071 70.5983 29.821C70.3218 29.5691 70.1835 29.2348 70.1835 28.8182C70.1835 28.4754 70.2764 28.1752 70.462 27.9176C70.6495 27.66 70.9042 27.4602 71.2262 27.3182C71.5481 27.1742 71.9127 27.1023 72.3199 27.1023C72.7328 27.1023 73.0945 27.1742 73.4051 27.3182C73.7176 27.4602 73.9629 27.6581 74.1409 27.9119C74.319 28.1638 74.4108 28.4536 74.4165 28.7812H73.4023ZM77.4215 33.0795C77.1431 33.0777 76.8714 33.0294 76.6062 32.9347C76.3411 32.8381 76.1024 32.6818 75.8903 32.4659C75.6782 32.2481 75.5096 31.9593 75.3846 31.5994C75.2596 31.2377 75.1981 30.7898 75.2 30.2557C75.2 29.7576 75.253 29.3134 75.359 28.9233C75.4651 28.5331 75.6176 28.2036 75.8164 27.9347C76.0153 27.6638 76.2549 27.4574 76.5352 27.3153C76.8174 27.1733 77.1327 27.1023 77.4812 27.1023C77.8467 27.1023 78.1706 27.1742 78.4528 27.3182C78.7369 27.4621 78.9661 27.6591 79.1403 27.9091C79.3145 28.1572 79.4225 28.4375 79.4642 28.75H78.4272C78.3742 28.5265 78.2653 28.3485 78.1005 28.2159C77.9376 28.0814 77.7312 28.0142 77.4812 28.0142C77.0778 28.0142 76.7672 28.1894 76.5494 28.5398C76.3335 28.8902 76.2246 29.3712 76.2227 29.983H76.2625C76.3553 29.8163 76.4755 29.6733 76.6232 29.554C76.771 29.4347 76.9376 29.3428 77.1232 29.2784C77.3107 29.2121 77.5087 29.179 77.717 29.179C78.0579 29.179 78.3638 29.2604 78.6346 29.4233C78.9073 29.5862 79.1232 29.8106 79.2823 30.0966C79.4414 30.3807 79.52 30.7064 79.5181 31.0739C79.52 31.4564 79.4329 31.8002 79.2568 32.1051C79.0806 32.4081 78.8354 32.6468 78.521 32.821C78.2066 32.9953 77.8401 33.0814 77.4215 33.0795ZM77.4159 32.2273C77.6223 32.2273 77.807 32.1771 77.9698 32.0767C78.1327 31.9763 78.2615 31.8409 78.3562 31.6705C78.4509 31.5 78.4973 31.3087 78.4954 31.0966C78.4973 30.8883 78.4518 30.6998 78.359 30.5312C78.2681 30.3627 78.1422 30.2292 77.9812 30.1307C77.8202 30.0322 77.6365 29.983 77.4301 29.983C77.2767 29.983 77.1337 30.0123 77.0011 30.071C76.8685 30.1297 76.753 30.2112 76.6545 30.3153C76.556 30.4176 76.4784 30.5369 76.4215 30.6733C76.3666 30.8078 76.3382 30.9517 76.3363 31.1051C76.3382 31.3078 76.3856 31.4943 76.4784 31.6648C76.5712 31.8352 76.699 31.9716 76.8619 32.0739C77.0248 32.1761 77.2094 32.2273 77.4159 32.2273ZM82.4131 33.0795C82.0343 33.0795 81.6953 33.0085 81.396 32.8665C81.0968 32.7225 80.8591 32.5256 80.683 32.2756C80.5087 32.0256 80.4159 31.7396 80.4046 31.4176H81.4273C81.4462 31.6562 81.5495 31.8513 81.737 32.0028C81.9245 32.1525 82.1498 32.2273 82.4131 32.2273C82.6195 32.2273 82.8032 32.1799 82.9642 32.0852C83.1252 31.9905 83.2521 31.8589 83.3449 31.6903C83.4377 31.5218 83.4832 31.3295 83.4813 31.1136C83.4832 30.8939 83.4368 30.6989 83.3421 30.5284C83.2474 30.358 83.1176 30.2244 82.9529 30.1278C82.7881 30.0294 82.5987 29.9801 82.3847 29.9801C82.2104 29.9782 82.039 30.0104 81.8705 30.0767C81.7019 30.143 81.5684 30.2301 81.4699 30.3381L80.5182 30.1818L80.8222 27.1818H84.1972V28.0625H81.6943L81.5267 29.6051H81.5608C81.6688 29.4782 81.8212 29.3731 82.0182 29.2898C82.2152 29.2045 82.4311 29.1619 82.6659 29.1619C83.0182 29.1619 83.3326 29.2453 83.6091 29.4119C83.8856 29.5767 84.1034 29.804 84.2625 30.0938C84.4216 30.3835 84.5012 30.715 84.5012 31.0881C84.5012 31.4725 84.4121 31.8153 84.2341 32.1165C84.058 32.4157 83.8127 32.6515 83.4983 32.8239C83.1858 32.9943 82.8241 33.0795 82.4131 33.0795ZM87.5154 33.1108C87.0476 33.1108 86.6461 32.9924 86.3109 32.7557C85.9776 32.517 85.7209 32.1733 85.541 31.7244C85.363 31.2737 85.274 30.7311 85.274 30.0966C85.2758 29.4621 85.3658 28.9223 85.5438 28.4773C85.7238 28.0303 85.9804 27.6894 86.3137 27.4545C86.649 27.2197 87.0495 27.1023 87.5154 27.1023C87.9813 27.1023 88.3819 27.2197 88.7171 27.4545C89.0524 27.6894 89.309 28.0303 89.487 28.4773C89.6669 28.9242 89.7569 29.464 89.7569 30.0966C89.7569 30.733 89.6669 31.2765 89.487 31.7273C89.309 32.1761 89.0524 32.5189 88.7171 32.7557C88.3838 32.9924 87.9832 33.1108 87.5154 33.1108ZM87.5154 32.2216C87.8791 32.2216 88.166 32.0426 88.3762 31.6847C88.5883 31.3248 88.6944 30.7955 88.6944 30.0966C88.6944 29.6345 88.6461 29.2462 88.5495 28.9318C88.4529 28.6174 88.3166 28.3807 88.1404 28.2216C87.9643 28.0606 87.756 27.9801 87.5154 27.9801C87.1537 27.9801 86.8677 28.16 86.6575 28.5199C86.4472 28.8778 86.3412 29.4034 86.3393 30.0966C86.3374 30.5606 86.3838 30.9508 86.4785 31.267C86.5751 31.5833 86.7115 31.822 86.8876 31.983C87.0637 32.142 87.273 32.2216 87.5154 32.2216ZM92.7634 33.1108C92.2956 33.1108 91.8941 32.9924 91.5588 32.7557C91.2255 32.517 90.9689 32.1733 90.7889 31.7244C90.6109 31.2737 90.5219 30.7311 90.5219 30.0966C90.5238 29.4621 90.6137 28.9223 90.7918 28.4773C90.9717 28.0303 91.2283 27.6894 91.5617 27.4545C91.8969 27.2197 92.2975 27.1023 92.7634 27.1023C93.2293 27.1023 93.6298 27.2197 93.9651 27.4545C94.3003 27.6894 94.5569 28.0303 94.735 28.4773C94.9149 28.9242 95.0048 29.464 95.0048 30.0966C95.0048 30.733 94.9149 31.2765 94.735 31.7273C94.5569 32.1761 94.3003 32.5189 93.9651 32.7557C93.6317 32.9924 93.2312 33.1108 92.7634 33.1108ZM92.7634 32.2216C93.127 32.2216 93.4139 32.0426 93.6242 31.6847C93.8363 31.3248 93.9423 30.7955 93.9423 30.0966C93.9423 29.6345 93.8941 29.2462 93.7975 28.9318C93.7009 28.6174 93.5645 28.3807 93.3884 28.2216C93.2122 28.0606 93.0039 27.9801 92.7634 27.9801C92.4016 27.9801 92.1156 28.16 91.9054 28.5199C91.6952 28.8778 91.5891 29.4034 91.5872 30.0966C91.5853 30.5606 91.6317 30.9508 91.7264 31.267C91.823 31.5833 91.9594 31.822 92.1355 31.983C92.3117 32.142 92.5209 32.2216 92.7634 32.2216Z" fill="#767676"/>
<rect x="19.3333" y="62" width="83" height="20" rx="4" fill="#6743EE"/>
<rect x="23.6665" y="24" width="12" height="12" rx="6" fill="#767676"/>
<path d="M48.3487 68.8317V67.7273H54.1512V68.8317H51.9034V75H50.5966V68.8317H48.3487ZM54.5366 75V69.5455H55.7831V70.4545H55.8399C55.9393 70.1397 56.1098 69.897 56.3513 69.7266C56.5951 69.5537 56.8733 69.4673 57.1858 69.4673C57.2568 69.4673 57.3361 69.4709 57.4237 69.478C57.5137 69.4827 57.5882 69.491 57.6474 69.5028V70.6854C57.593 70.6664 57.5066 70.6499 57.3882 70.6357C57.2722 70.6191 57.1597 70.6108 57.0508 70.6108C56.8165 70.6108 56.6058 70.6617 56.4187 70.7635C56.2341 70.8629 56.0885 71.0014 55.9819 71.179C55.8754 71.3565 55.8221 71.5613 55.8221 71.7933V75H54.5366ZM59.8634 75.1101C59.5178 75.1101 59.2065 75.0485 58.9295 74.9254C58.6548 74.8 58.437 74.6153 58.2761 74.3714C58.1174 74.1276 58.0381 73.8269 58.0381 73.4695C58.0381 73.1617 58.0949 72.9072 58.2086 72.706C58.3222 72.5047 58.4773 72.3438 58.6738 72.223C58.8703 72.1023 59.0916 72.0111 59.3378 71.9496C59.5864 71.8857 59.8433 71.8395 60.1084 71.8111C60.428 71.7779 60.6873 71.7483 60.8861 71.7223C61.085 71.6939 61.2294 71.6513 61.3194 71.5945C61.4117 71.5353 61.4579 71.4441 61.4579 71.321V71.2997C61.4579 71.0322 61.3786 70.825 61.2199 70.6783C61.0613 70.5315 60.8329 70.4581 60.5346 70.4581C60.2197 70.4581 59.9699 70.5268 59.7853 70.6641C59.603 70.8014 59.4799 70.9635 59.416 71.1506L58.2157 70.9801C58.3104 70.6487 58.4666 70.3717 58.6844 70.1491C58.9022 69.9242 59.1686 69.7562 59.4834 69.6449C59.7983 69.5312 60.1463 69.4744 60.5275 69.4744C60.7903 69.4744 61.0519 69.5052 61.3123 69.5668C61.5727 69.6283 61.8106 69.7301 62.0261 69.8722C62.2415 70.0118 62.4143 70.2024 62.5445 70.4439C62.6771 70.6854 62.7434 70.9872 62.7434 71.3494V75H61.5076V74.2507H61.465C61.3869 74.4022 61.2768 74.5443 61.1347 74.6768C60.995 74.8071 60.8187 74.9124 60.6056 74.9929C60.3949 75.071 60.1475 75.1101 59.8634 75.1101ZM60.1972 74.1655C60.4553 74.1655 60.679 74.1146 60.8684 74.0128C61.0578 73.9086 61.2034 73.7713 61.3052 73.6009C61.4093 73.4304 61.4614 73.2446 61.4614 73.0433V72.4006C61.4212 72.4337 61.3525 72.4645 61.2555 72.4929C61.1608 72.5213 61.0542 72.5462 60.9359 72.5675C60.8175 72.5888 60.7003 72.6077 60.5843 72.6243C60.4683 72.6409 60.3677 72.6551 60.2824 72.6669C60.0907 72.6929 59.919 72.7356 59.7675 72.7947C59.616 72.8539 59.4965 72.9368 59.4089 73.0433C59.3213 73.1475 59.2775 73.2824 59.2775 73.4482C59.2775 73.6849 59.3639 73.8636 59.5367 73.9844C59.7095 74.1051 59.9297 74.1655 60.1972 74.1655ZM65.9501 75.0959C65.5216 75.0959 65.1381 74.9858 64.7996 74.7656C64.461 74.5455 64.1935 74.2259 63.997 73.8068C63.8005 73.3878 63.7023 72.8788 63.7023 72.2798C63.7023 71.6738 63.8017 71.1624 64.0006 70.7457C64.2018 70.3267 64.4729 70.0107 64.8138 69.7976C65.1547 69.5821 65.5347 69.4744 65.9537 69.4744C66.2733 69.4744 66.5361 69.5289 66.7421 69.6378C66.948 69.7443 67.1114 69.8733 67.2321 70.0249C67.3528 70.174 67.4464 70.3149 67.5126 70.4474H67.5659V67.7273H68.855V75H67.5908V74.1406H67.5126C67.4464 74.2732 67.3505 74.4141 67.225 74.5632C67.0995 74.71 66.9338 74.8355 66.7278 74.9396C66.5219 75.0438 66.2626 75.0959 65.9501 75.0959ZM66.3088 74.0412C66.5811 74.0412 66.8131 73.9678 67.0048 73.821C67.1966 73.6719 67.3422 73.4647 67.4416 73.1996C67.5411 72.9344 67.5908 72.6255 67.5908 72.2727C67.5908 71.92 67.5411 71.6134 67.4416 71.353C67.3446 71.0926 67.2001 70.8902 67.0084 70.7457C66.819 70.6013 66.5858 70.5291 66.3088 70.5291C66.0224 70.5291 65.7832 70.6037 65.5915 70.7528C65.3997 70.902 65.2553 71.108 65.1582 71.3707C65.0612 71.6335 65.0126 71.9342 65.0126 72.2727C65.0126 72.6136 65.0612 72.9179 65.1582 73.1854C65.2577 73.4505 65.4033 73.66 65.595 73.8139C65.7892 73.9654 66.0271 74.0412 66.3088 74.0412ZM72.5296 75.1065C71.9827 75.1065 71.5104 74.9929 71.1127 74.7656C70.7173 74.536 70.4131 74.2116 70.2001 73.7926C69.987 73.3712 69.8805 72.8752 69.8805 72.3047C69.8805 71.7436 69.987 71.2512 70.2001 70.8274C70.4155 70.4013 70.7162 70.0698 71.102 69.8331C71.4879 69.594 71.9413 69.4744 72.4621 69.4744C72.7983 69.4744 73.1155 69.5289 73.4138 69.6378C73.7145 69.7443 73.9796 69.91 74.2093 70.1349C74.4413 70.3598 74.6236 70.6463 74.7562 70.9943C74.8887 71.34 74.955 71.7519 74.955 72.2301V72.6243H70.4841V71.7578H73.7228C73.7204 71.5116 73.6671 71.2926 73.563 71.1009C73.4588 70.9067 73.3132 70.754 73.1262 70.6428C72.9415 70.5315 72.7261 70.4759 72.4799 70.4759C72.2171 70.4759 71.9863 70.5398 71.7874 70.6676C71.5885 70.7931 71.4335 70.9588 71.3222 71.1648C71.2133 71.3684 71.1577 71.5921 71.1553 71.8359V72.5923C71.1553 72.9096 71.2133 73.1818 71.3293 73.4091C71.4453 73.634 71.6075 73.8068 71.8158 73.9276C72.0242 74.0459 72.268 74.1051 72.5474 74.1051C72.7344 74.1051 72.9037 74.0791 73.0552 74.027C73.2067 73.9725 73.3381 73.8932 73.4493 73.7891C73.5606 73.6849 73.6447 73.5559 73.7015 73.402L74.9018 73.5369C74.826 73.8542 74.6816 74.1312 74.4685 74.3679C74.2578 74.6023 73.9879 74.7846 73.6589 74.9148C73.3298 75.0426 72.9534 75.1065 72.5296 75.1065Z" fill="white"/>
<rect x="5.33325" y="39" width="111" height="32" rx="4" fill="#010101"/>
<path d="M32.0506 58V50.7273H34.8347C35.3602 50.7273 35.797 50.8101 36.145 50.9759C36.4954 51.1392 36.757 51.3629 36.9298 51.647C37.105 51.9311 37.1926 52.2531 37.1926 52.6129C37.1926 52.9089 37.1358 53.1622 37.0222 53.3729C36.9085 53.5812 36.7558 53.7505 36.5641 53.8807C36.3723 54.0109 36.1581 54.1044 35.9213 54.1612V54.2322C36.1794 54.2464 36.4268 54.3258 36.6635 54.4702C36.9026 54.6122 37.0979 54.8134 37.2494 55.0739C37.401 55.3343 37.4767 55.6491 37.4767 56.0185C37.4767 56.3949 37.3856 56.7334 37.2033 57.0341C37.021 57.3324 36.7464 57.5679 36.3794 57.7408C36.0125 57.9136 35.5508 58 34.9945 58H32.0506ZM33.3681 56.8991H34.785C35.2632 56.8991 35.6076 56.808 35.8183 56.6257C36.0314 56.4411 36.1379 56.2043 36.1379 55.9155C36.1379 55.7 36.0847 55.5059 35.9781 55.3331C35.8716 55.1579 35.7201 55.0206 35.5236 54.9212C35.3271 54.8194 35.0927 54.7685 34.8205 54.7685H33.3681V56.8991ZM33.3681 53.8203H34.6713C34.8986 53.8203 35.1034 53.7789 35.2857 53.696C35.468 53.6108 35.6112 53.4912 35.7154 53.3374C35.8219 53.1811 35.8752 52.9964 35.8752 52.7834C35.8752 52.5017 35.7757 52.2696 35.5769 52.0874C35.3804 51.9051 35.088 51.8139 34.6997 51.8139H33.3681V53.8203ZM38.1932 51.8317V50.7273H43.9958V51.8317H41.7479V58H40.4411V51.8317H38.1932ZM50.9073 53.1811H49.5792C49.5413 52.9633 49.4714 52.7704 49.3696 52.6023C49.2678 52.4318 49.1412 52.2874 48.9897 52.169C48.8382 52.0507 48.6653 51.9619 48.4712 51.9027C48.2794 51.8411 48.0723 51.8104 47.8498 51.8104C47.4544 51.8104 47.104 51.9098 46.7986 52.1087C46.4932 52.3052 46.2541 52.594 46.0813 52.9751C45.9085 53.3539 45.8221 53.8168 45.8221 54.3636C45.8221 54.92 45.9085 55.3887 46.0813 55.7699C46.2565 56.1487 46.4956 56.4351 46.7986 56.6293C47.104 56.821 47.4532 56.9169 47.8462 56.9169C48.064 56.9169 48.2676 56.8885 48.457 56.8317C48.6488 56.7725 48.8204 56.6861 48.9719 56.5724C49.1258 56.4588 49.2548 56.3191 49.359 56.1534C49.4655 55.9877 49.5389 55.7983 49.5792 55.5852L50.9073 55.5923C50.8576 55.938 50.7499 56.2623 50.5841 56.5653C50.4208 56.8684 50.2065 57.1359 49.9414 57.3679C49.6762 57.5975 49.3661 57.7775 49.011 57.9077C48.6559 58.0355 48.2617 58.0994 47.8285 58.0994C47.1892 58.0994 46.6187 57.9515 46.1168 57.6555C45.6149 57.3596 45.2195 56.9323 44.9307 56.3736C44.6419 55.8149 44.4975 55.1449 44.4975 54.3636C44.4975 53.58 44.6431 52.91 44.9343 52.3537C45.2255 51.795 45.622 51.3677 46.1239 51.0717C46.6258 50.7758 47.194 50.6278 47.8285 50.6278C48.2333 50.6278 48.6097 50.6847 48.9577 50.7983C49.3057 50.9119 49.6159 51.0788 49.8881 51.299C50.1604 51.5168 50.3841 51.7843 50.5593 52.1016C50.7368 52.4164 50.8528 52.7763 50.9073 53.1811Z" fill="white"/>
<path d="M96.6678 58.1385C96.083 58.1385 95.5811 57.9905 95.1621 57.6946C94.7454 57.3963 94.4246 56.9666 94.1997 56.4055C93.9772 55.8421 93.8659 55.1638 93.8659 54.3707C93.8683 53.5777 93.9807 52.9029 94.2033 52.3466C94.4282 51.7879 94.749 51.3617 95.1656 51.0682C95.5847 50.7746 96.0854 50.6278 96.6678 50.6278C97.2502 50.6278 97.7509 50.7746 98.1699 51.0682C98.5889 51.3617 98.9097 51.7879 99.1323 52.3466C99.3572 52.9053 99.4696 53.58 99.4696 54.3707C99.4696 55.1662 99.3572 55.8456 99.1323 56.4091C98.9097 56.9702 98.5889 57.3987 98.1699 57.6946C97.7532 57.9905 97.2525 58.1385 96.6678 58.1385ZM96.6678 57.027C97.1223 57.027 97.481 56.8033 97.7438 56.3558C98.0089 55.906 98.1415 55.2443 98.1415 54.3707C98.1415 53.7931 98.0811 53.3078 97.9604 52.9148C97.8396 52.5218 97.6692 52.2259 97.449 52.027C97.2288 51.8258 96.9684 51.7251 96.6678 51.7251C96.2156 51.7251 95.8581 51.95 95.5953 52.3999C95.3325 52.8473 95.2 53.5043 95.1976 54.3707C95.1952 54.9508 95.2532 55.4384 95.3716 55.8338C95.4923 56.2292 95.6628 56.5275 95.883 56.7287C96.1031 56.9276 96.3647 57.027 96.6678 57.027ZM101.062 58.0781C100.847 58.0781 100.662 58.0024 100.508 57.8509C100.355 57.6993 100.279 57.5147 100.281 57.2969C100.279 57.0838 100.355 56.9015 100.508 56.75C100.662 56.5985 100.847 56.5227 101.062 56.5227C101.271 56.5227 101.452 56.5985 101.606 56.75C101.762 56.9015 101.841 57.0838 101.844 57.2969C101.841 57.4413 101.803 57.5727 101.73 57.6911C101.659 57.8094 101.564 57.9041 101.446 57.9751C101.33 58.0438 101.202 58.0781 101.062 58.0781ZM105.106 50.7273V58H103.789V52.0092H103.746L102.045 53.0959V51.8885L103.853 50.7273H105.106Z" fill="white"/>
<rect x="12.3333" y="47" width="15" height="15" rx="7.5" fill="#767676"/>
<path d="M101.128 12.2268C94.9808 11.1339 90.1994 6.35246 89.1065 0.204918C89.1065 -0.068306 88.6966 -0.068306 88.56 0.204918C87.4671 6.35246 82.6857 11.1339 76.5382 12.2268C76.2649 12.2268 76.2649 12.6366 76.5382 12.7732C82.6857 13.8661 87.4671 18.6475 88.56 24.7951C88.56 25.0683 88.9699 25.0683 89.1065 24.7951C90.1994 18.6475 94.9808 13.8661 101.128 12.7732C101.402 12.6366 101.402 12.3634 101.128 12.2268Z" fill="#454545"/>
<path d="M109.49 20.82C108.314 20.46 107.255 19.38 106.902 18.18C106.784 17.94 106.549 17.94 106.549 18.18C106.078 19.38 105.019 20.46 103.843 20.82C103.608 20.94 103.608 21.18 103.843 21.18C105.137 21.54 106.078 22.62 106.431 23.82C106.549 24.06 106.784 24.06 106.784 23.82C107.255 22.74 108.314 21.66 109.49 21.3C109.725 21.18 109.725 20.94 109.49 20.82Z" fill="#454545"/>
<path d="M17.0506 58V50.7273H19.8347C20.3602 50.7273 20.797 50.8101 21.145 50.9759C21.4954 51.1392 21.757 51.3629 21.9298 51.647C22.105 51.9311 22.1926 52.2531 22.1926 52.6129C22.1926 52.9089 22.1358 53.1622 22.0222 53.3729C21.9085 53.5812 21.7558 53.7505 21.5641 53.8807C21.3723 54.0109 21.1581 54.1044 20.9213 54.1612V54.2322C21.1794 54.2464 21.4268 54.3258 21.6635 54.4702C21.9026 54.6122 22.0979 54.8134 22.2494 55.0739C22.401 55.3343 22.4767 55.6491 22.4767 56.0185C22.4767 56.3949 22.3856 56.7334 22.2033 57.0341C22.021 57.3324 21.7464 57.5679 21.3794 57.7408C21.0125 57.9136 20.5508 58 19.9945 58H17.0506ZM18.3681 56.8991H19.785C20.2632 56.8991 20.6076 56.808 20.8183 56.6257C21.0314 56.4411 21.1379 56.2043 21.1379 55.9155C21.1379 55.7 21.0847 55.5059 20.9781 55.3331C20.8716 55.1579 20.7201 55.0206 20.5236 54.9212C20.3271 54.8194 20.0927 54.7685 19.8205 54.7685H18.3681V56.8991ZM18.3681 53.8203H19.6713C19.8986 53.8203 20.1034 53.7789 20.2857 53.696C20.468 53.6108 20.6112 53.4912 20.7154 53.3374C20.8219 53.1811 20.8752 52.9964 20.8752 52.7834C20.8752 52.5017 20.7757 52.2696 20.5769 52.0874C20.3804 51.9051 20.088 51.8139 19.6997 51.8139H18.3681V53.8203Z" fill="#010101"/>
<line x1="107.833" y1="46" x2="107.833" y2="62" stroke="white"/>
</svg>
