<svg width="107" height="85" viewBox="0 0 107 85" fill="none" xmlns="http://www.w3.org/2000/svg">
<line x1="70.8255" y1="40.7841" x2="42.9307" y2="84.6188" stroke="#150D0D"/>
<line x1="41.4135" y1="11.0277" x2="0.378828" y2="42.8986" stroke="#150D0D"/>
<line x1="37.0932" y1="46.1836" x2="0.353534" y2="82.9233" stroke="#150D0D"/>
<path d="M85.2666 9.46065C82.521 8.97255 80.3856 6.8371 79.8975 4.09152C79.8975 3.96949 79.7144 3.96949 79.6534 4.09152C79.1653 6.8371 77.0298 8.97255 74.2843 9.46065C74.1622 9.46065 74.1622 9.64369 74.2843 9.7047C77.0298 10.1928 79.1653 12.3283 79.6534 15.0738C79.6534 15.1959 79.8364 15.1959 79.8975 15.0738C80.3856 12.3283 82.521 10.1928 85.2666 9.7047C85.3886 9.64369 85.3886 9.52167 85.2666 9.46065Z" fill="#6743EE"/>
<path d="M90.4863 1.4338C89.8762 1.25076 89.3271 0.701648 89.144 0.0915193C89.083 -0.0305064 88.961 -0.0305064 88.961 0.0915193C88.717 0.701648 88.1678 1.25076 87.5577 1.4338C87.4357 1.49482 87.4357 1.61684 87.5577 1.61684C88.2288 1.79988 88.7169 2.349 88.9 2.95912C88.961 3.08115 89.083 3.08115 89.083 2.95912C89.3271 2.41001 89.8762 1.86089 90.4863 1.67785C90.6083 1.61684 90.6083 1.49482 90.4863 1.4338Z" fill="#150D0D"/>
<path d="M106.859 31.0783C102.601 30.3213 99.2894 27.0095 98.5324 22.7513C98.5324 22.5621 98.2485 22.5621 98.1539 22.7513C97.3969 27.0095 94.085 30.3213 89.8269 31.0783C89.6376 31.0783 89.6376 31.3622 89.8269 31.4569C94.085 32.2139 97.3969 35.5257 98.1539 39.7839C98.1539 39.9731 98.4378 39.9731 98.5324 39.7839C99.2894 35.5257 102.601 32.2139 106.859 31.4569C107.049 31.3622 107.049 31.173 106.859 31.0783Z" fill="#6743EE"/>
<path d="M86.5879 24.0822C85.9778 23.8992 85.4286 23.3501 85.2456 22.74C85.1846 22.6179 85.0626 22.6179 85.0626 22.74C84.8185 23.3501 84.2694 23.8992 83.6593 24.0822C83.5372 24.1433 83.5372 24.2653 83.6593 24.2653C84.3304 24.4483 84.8185 24.9974 85.0016 25.6076C85.0626 25.7296 85.1846 25.7296 85.1846 25.6076C85.4286 25.0584 85.9778 24.5093 86.5879 24.3263C86.7099 24.2653 86.7099 24.1433 86.5879 24.0822Z" fill="#150D0D"/>
<path d="M83.4629 45.9514C82.8528 45.7683 82.3036 45.2192 82.1206 44.6091C82.0596 44.4871 81.9376 44.4871 81.9376 44.6091C81.6935 45.2192 81.1444 45.7683 80.5343 45.9514C80.4122 46.0124 80.4122 46.1344 80.5343 46.1344C81.2054 46.3175 81.6935 46.8666 81.8766 47.4767C81.9376 47.5987 82.0596 47.5987 82.0596 47.4767C82.3036 46.9276 82.8528 46.3785 83.4629 46.1954C83.5849 46.1344 83.5849 46.0124 83.4629 45.9514Z" fill="#150D0D"/>
<path d="M46.7519 61.5725C46.1418 61.3894 45.5927 60.8403 45.4097 60.2302C45.3487 60.1082 45.2266 60.1082 45.2266 60.2302C44.9826 60.8403 44.4335 61.3894 43.8233 61.5725C43.7013 61.6335 43.7013 61.7555 43.8233 61.7555C44.4945 61.9386 44.9826 62.4877 45.1656 63.0978C45.2266 63.2198 45.3487 63.2198 45.3487 63.0978C45.5927 62.5487 46.1418 61.9996 46.7519 61.8165C46.874 61.7555 46.874 61.6335 46.7519 61.5725Z" fill="#150D0D"/>
<path d="M97.491 51.5013C96.5721 51.2201 95.7452 50.3766 95.4695 49.4394C95.3777 49.252 95.1939 49.252 95.1939 49.4394C94.8264 50.3766 93.9994 51.2201 93.0806 51.5013C92.8968 51.595 92.8968 51.7824 93.0806 51.7824C94.0913 52.0636 94.8264 52.9071 95.102 53.8443C95.1939 54.0317 95.3777 54.0317 95.3777 53.8443C95.7452 53.0008 96.5721 52.1573 97.491 51.8762C97.6747 51.7824 97.6747 51.595 97.491 51.5013Z" fill="#6743EE"/>
<ellipse cx="50.6778" cy="31.2408" rx="23.0398" ry="23.4303" fill="#150D0D"/>
<g filter="url(#filter0_f_292_13345)">
<circle cx="57.7921" cy="21.8689" r="7.02909" fill="#D9D9D9"/>
</g>
<defs>
<filter id="filter0_f_292_13345" x="38.7631" y="2.83984" width="38.0582" height="38.0581" filterUnits="userSpaceOnUse" color-interpolation-filters="sRGB">
<feFlood flood-opacity="0" result="BackgroundImageFix"/>
<feBlend mode="normal" in="SourceGraphic" in2="BackgroundImageFix" result="shape"/>
<feGaussianBlur stdDeviation="6" result="effect1_foregroundBlur_292_13345"/>
</filter>
</defs>
</svg>
