<svg width="120" height="120" viewBox="0 0 120 120" fill="none" xmlns="http://www.w3.org/2000/svg">
<rect width="120" height="120" fill="#2A2A2A"/>
<path d="M83.1187 76L83.7659 75.6211L83.5487 75.25H83.1187V76ZM83.6363 76.5826L83.1777 77.176H83.1777L83.6363 76.5826ZM97.7771 87.5096L98.2357 86.9161H98.2357L97.7771 87.5096ZM101 75.6778L100.84 74.9451L100.25 75.0739V75.6778H101ZM41.75 22C41.75 14.6822 47.6822 8.75 55 8.75V7.25C46.8538 7.25 40.25 13.8538 40.25 22H41.75ZM41.75 62V22H40.25V62H41.75ZM55 75.25C47.6822 75.25 41.75 69.3178 41.75 62H40.25C40.25 70.1462 46.8538 76.75 55 76.75V75.25ZM83.1187 75.25H55V76.75H83.1187V75.25ZM84.0949 75.9891C83.948 75.8756 83.8414 75.75 83.7659 75.6211L82.4714 76.3789C82.6458 76.6768 82.8816 76.9472 83.1777 77.176L84.0949 75.9891ZM98.2357 86.9161L84.0949 75.9891L83.1777 77.176L97.3185 88.103L98.2357 86.9161ZM100.25 85.927C100.25 86.9654 99.0573 87.551 98.2357 86.9161L97.3185 88.103C99.1261 89.4998 101.75 88.2114 101.75 85.927H100.25ZM100.25 75.6778V85.927H101.75V75.6778H100.25ZM111.25 62C111.25 68.3423 106.793 73.6453 100.84 74.9451L101.16 76.4106C107.788 74.9636 112.75 69.0622 112.75 62H111.25ZM111.25 22V62H112.75V22H111.25ZM98 8.75C105.318 8.75 111.25 14.6822 111.25 22H112.75C112.75 13.8538 106.146 7.25 98 7.25V8.75ZM55 8.75H98V7.25H55V8.75Z" fill="#515151"/>
<g filter="url(#filter0_bi_2657_17970)">
<path fill-rule="evenodd" clip-rule="evenodd" d="M36 38C30.4772 38 26 42.4772 26 48V79C26 84.5228 30.4772 89 36 89H51.3061C51.4073 89.1275 51.5277 89.2471 51.6684 89.3558L64.6699 99.4024C65.9846 100.418 67.8928 99.4812 67.8928 97.8198V89H68C73.5228 89 78 84.5228 78 79V48C78 42.4772 73.5228 38 68 38H36Z" fill="#010101"/>
</g>
<rect x="15" y="66" width="14" height="14" rx="7" fill="#6743EE"/>
<path d="M36.4766 25.111C31.8956 24.2966 28.3326 20.7337 27.5182 16.1527C27.5182 15.9491 27.2128 15.9491 27.111 16.1527C26.2966 20.7337 22.7337 24.2966 18.1527 25.111C17.9491 25.111 17.9491 25.4164 18.1527 25.5182C22.7337 26.3326 26.2966 29.8956 27.111 34.4766C27.111 34.6802 27.4164 34.6802 27.5182 34.4766C28.3326 29.8956 31.8956 26.3326 36.4766 25.5182C36.6802 25.4164 36.6802 25.2128 36.4766 25.111Z" fill="#D9D9D9"/>
<path d="M19.8235 14.82C18.6471 14.46 17.5882 13.38 17.2353 12.18C17.1176 11.94 16.8824 11.94 16.8824 12.18C16.4118 13.38 15.3529 14.46 14.1765 14.82C13.9412 14.94 13.9412 15.18 14.1765 15.18C15.4706 15.54 16.4118 16.62 16.7647 17.82C16.8824 18.06 17.1176 18.06 17.1176 17.82C17.5882 16.74 18.6471 15.66 19.8235 15.3C20.0588 15.18 20.0588 14.94 19.8235 14.82Z" fill="#D9D9D9"/>
<path d="M30 96C32.2091 96 34.0514 94.182 33.51 92.0402C32.9479 89.8165 31.9158 87.7695 30.4853 86.1005C28.2348 83.475 25.1826 82 22 82C18.8174 82 15.7652 83.475 13.5147 86.1005C12.0842 87.7695 11.0521 89.8165 10.49 92.0402C9.94857 94.182 11.7909 96 14 96L22 96H30Z" fill="#6743EE"/>
<rect x="34" y="46" width="22" height="2" rx="1" fill="#454545"/>
<rect x="50" y="16" width="29" height="2" rx="1" fill="#454545"/>
<rect x="34" y="56" width="11" height="2" rx="1" fill="#454545"/>
<rect x="50" y="26" width="15" height="2" rx="1" fill="#454545"/>
<rect x="34" y="51" width="22" height="2" rx="1" fill="#454545"/>
<rect x="50" y="21" width="29" height="2" rx="1" fill="#454545"/>
<rect x="34" y="61" width="11" height="2" rx="1" fill="#454545"/>
<rect x="50" y="31" width="15" height="2" rx="1" fill="#454545"/>
<circle cx="96" cy="25" r="10" fill="#D9D9D9"/>
<circle cx="67" cy="50.5" r="6" fill="#454545"/>
<path d="M91 25L94 28L100.5 21.5" stroke="#2A2A2A" stroke-width="2"/>
<rect x="64.8784" y="47.1211" width="8" height="2" transform="rotate(45 64.8784 47.1211)" fill="#010101"/>
<rect x="70.5354" y="48.5352" width="8" height="2" transform="rotate(135 70.5354 48.5352)" fill="#010101"/>
<defs>
<filter id="filter0_bi_2657_17970" x="4" y="16" width="96" height="105.824" filterUnits="userSpaceOnUse" color-interpolation-filters="sRGB">
<feFlood flood-opacity="0" result="BackgroundImageFix"/>
<feGaussianBlur in="BackgroundImageFix" stdDeviation="11"/>
<feComposite in2="SourceAlpha" operator="in" result="effect1_backgroundBlur_2657_17970"/>
<feBlend mode="normal" in="SourceGraphic" in2="effect1_backgroundBlur_2657_17970" result="shape"/>
<feColorMatrix in="SourceAlpha" type="matrix" values="0 0 0 0 0 0 0 0 0 0 0 0 0 0 0 0 0 0 127 0" result="hardAlpha"/>
<feOffset dy="1"/>
<feGaussianBlur stdDeviation="0.5"/>
<feComposite in2="hardAlpha" operator="arithmetic" k2="-1" k3="1"/>
<feColorMatrix type="matrix" values="0 0 0 0 1 0 0 0 0 0.989437 0 0 0 0 0.989437 0 0 0 0.12 0"/>
<feBlend mode="normal" in2="shape" result="effect2_innerShadow_2657_17970"/>
</filter>
</defs>
</svg>
