<svg width="119" height="86" viewBox="0 0 119 86" fill="none" xmlns="http://www.w3.org/2000/svg">
<path d="M70.8984 24.6135V28.0503" stroke="#858585" stroke-width="2" stroke-linecap="round"/>
<path fill-rule="evenodd" clip-rule="evenodd" d="M88.3438 21.5247C83.6798 18.3043 78.0238 16.4184 71.9273 16.4184C55.9512 16.4184 43 29.3696 43 45.3457C43 61.3218 55.9512 74.2729 71.9273 74.2729C78.0238 74.2729 83.6798 72.387 88.3438 69.1667V21.5247Z" fill="url(#paint0_linear_292_13361)"/>
<path fill-rule="evenodd" clip-rule="evenodd" d="M96.1641 64.6166V26.8008C100.547 31.8713 103.198 38.4804 103.198 45.7087C103.198 52.937 100.547 59.5461 96.1641 64.6166Z" fill="#6743EE"/>
<g clip-path="url(#clip0_292_13361)">
<g filter="url(#filter0_bi_292_13361)">
<path fill-rule="evenodd" clip-rule="evenodd" d="M28.814 16.4182C34.5353 16.4182 40.1281 18.1147 44.8851 21.2933C49.6422 24.4719 53.3499 28.9897 55.5393 34.2755C57.7287 39.5612 58.3016 45.3775 57.1854 50.9889C56.0693 56.6002 53.3142 61.7546 49.2687 65.8001C45.2231 69.8457 40.0688 72.6007 34.4574 73.7169C28.8461 74.8331 23.0298 74.2602 17.744 72.0708C12.4582 69.8813 7.94041 66.1737 4.76184 61.4166C1.58327 56.6595 -0.113281 51.0667 -0.113281 45.3455C-0.113281 37.6735 2.9344 30.3157 8.35932 24.8908C13.7842 19.4659 21.142 16.4182 28.814 16.4182V16.4182Z" fill="white" fill-opacity="0.09"/>
</g>
<path fill-rule="evenodd" clip-rule="evenodd" d="M28.8138 22.6297L36.4243 34.0007L44.0348 45.3744L28.8138 53.0428L13.5928 45.3455L21.2033 33.9718L28.8138 22.6297ZM28.8138 56.1064L14.4369 48.4354L28.8138 68.0613L43.1906 48.4354L28.8138 56.1064Z" fill="#343434"/>
<path fill-rule="evenodd" clip-rule="evenodd" d="M28.8145 22.6297L36.425 33.9718L44.0355 45.3455L28.8145 39.5995V22.6297Z" fill="#343434"/>
<path fill-rule="evenodd" clip-rule="evenodd" d="M28.8145 56.1064L43.2202 48.4354L28.8145 68.0902V56.1064Z" fill="#313131"/>
<path fill-rule="evenodd" clip-rule="evenodd" d="M28.8145 39.5995L44.0355 45.3455L28.8145 53.0138V39.5995Z" fill="#151515"/>
<path fill-rule="evenodd" clip-rule="evenodd" d="M28.8138 22.6297L21.2033 33.9718L13.5928 45.3455L28.8138 39.5995V22.6297Z" fill="#8C8C8C"/>
<path fill-rule="evenodd" clip-rule="evenodd" d="M28.8144 56.1064L14.4375 48.4354L28.8144 68.0902V56.1064Z" fill="#8A8A8A"/>
<path fill-rule="evenodd" clip-rule="evenodd" d="M28.8138 39.5995L13.5928 45.3455L28.8138 53.0138V39.5995Z" fill="#353535"/>
</g>
<path d="M118.707 46.053C119.098 45.6625 119.098 45.0293 118.707 44.6388L112.343 38.2748C111.953 37.8843 111.319 37.8843 110.929 38.2748C110.538 38.6654 110.538 39.2985 110.929 39.6891L116.586 45.3459L110.929 51.0028C110.538 51.3933 110.538 52.0265 110.929 52.417C111.319 52.8075 111.953 52.8075 112.343 52.417L118.707 46.053ZM101.633 46.3459H118V44.3459H101.633V46.3459Z" fill="#6642EE"/>
<path d="M100.562 10.0272C95.9815 9.21284 92.4186 5.64986 91.6042 1.0689C91.6042 0.865299 91.2988 0.865299 91.197 1.0689C90.3826 5.64986 86.8196 9.21284 82.2386 10.0272C82.035 10.0272 82.035 10.3326 82.2386 10.4344C86.8196 11.2488 90.3826 14.8118 91.197 19.3928C91.197 19.5964 91.5024 19.5964 91.6042 19.3928C92.4186 14.8118 95.9815 11.2488 100.562 10.4344C100.766 10.3326 100.766 10.129 100.562 10.0272Z" fill="#171010"/>
<path d="M101.477 2.39228C100.459 2.08688 99.5424 1.17069 99.237 0.152699C99.1352 -0.0508996 98.9316 -0.0508996 98.9316 0.152699C98.5244 1.17069 97.6082 2.08688 96.5902 2.39228C96.3866 2.49408 96.3866 2.69768 96.5902 2.69768C97.71 3.00308 98.5244 3.91927 98.8298 4.93726C98.9316 5.14086 99.1352 5.14086 99.1352 4.93726C99.5424 4.02107 100.459 3.10488 101.477 2.79948C101.68 2.69768 101.68 2.49408 101.477 2.39228Z" fill="#171010"/>
<path d="M56.2068 80.4749C53.5484 80.0023 51.4807 77.9346 51.0081 75.2761C51.0081 75.158 50.8308 75.158 50.7718 75.2761C50.2991 77.9346 48.2315 80.0023 45.573 80.4749C45.4548 80.4749 45.4548 80.6521 45.573 80.7112C48.2315 81.1838 50.2991 83.2515 50.7718 85.91C50.7718 86.0281 50.949 86.0281 51.0081 85.91C51.4807 83.2515 53.5484 81.1838 56.2068 80.7112C56.325 80.6521 56.325 80.534 56.2068 80.4749Z" fill="#171010"/>
<defs>
<filter id="filter0_bi_292_13361" x="-33.1133" y="-16.5818" width="123.854" height="123.855" filterUnits="userSpaceOnUse" color-interpolation-filters="sRGB">
<feFlood flood-opacity="0" result="BackgroundImageFix"/>
<feGaussianBlur in="BackgroundImageFix" stdDeviation="16.5"/>
<feComposite in2="SourceAlpha" operator="in" result="effect1_backgroundBlur_292_13361"/>
<feBlend mode="normal" in="SourceGraphic" in2="effect1_backgroundBlur_292_13361" result="shape"/>
<feColorMatrix in="SourceAlpha" type="matrix" values="0 0 0 0 0 0 0 0 0 0 0 0 0 0 0 0 0 0 127 0" result="hardAlpha"/>
<feOffset dx="1" dy="1"/>
<feGaussianBlur stdDeviation="0.5"/>
<feComposite in2="hardAlpha" operator="arithmetic" k2="-1" k3="1"/>
<feColorMatrix type="matrix" values="0 0 0 0 1 0 0 0 0 0.955192 0 0 0 0 0.955192 0 0 0 0.11 0"/>
<feBlend mode="normal" in2="shape" result="effect2_innerShadow_292_13361"/>
</filter>
<linearGradient id="paint0_linear_292_13361" x1="62.9356" y1="30.1002" x2="13.291" y2="60.5895" gradientUnits="userSpaceOnUse">
<stop stop-color="#140C0C"/>
<stop offset="1" stop-color="#2F2F2F"/>
</linearGradient>
<clipPath id="clip0_292_13361">
<rect width="57.8545" height="57.8545" fill="white" transform="translate(0 16.4182)"/>
</clipPath>
</defs>
</svg>
