<svg width="111" height="86" viewBox="0 0 111 86" fill="none" xmlns="http://www.w3.org/2000/svg">
<g filter="url(#filter0_bi_292_13386)">
<path d="M54.338 35.5735C53.8955 35.5735 53.521 35.4487 53.2147 35.1991C52.9083 34.9608 52.704 34.6204 52.6019 34.1778L51.7168 30.4332C51.3878 30.3198 51.0644 30.2006 50.7466 30.0758C50.4289 29.951 50.1282 29.8205 49.8445 29.6843L46.5765 31.6928C46.2021 31.9197 45.8163 32.0162 45.4191 31.9821C45.0333 31.9481 44.6872 31.7779 44.3809 31.4715L42.2022 29.2928C41.8958 28.9865 41.7199 28.629 41.6745 28.2205C41.6405 27.812 41.7483 27.4262 41.9979 27.0631L43.9894 23.8121C43.8532 23.5171 43.7227 23.2164 43.5979 22.91C43.4731 22.6037 43.3653 22.2973 43.2745 21.9909L39.4959 21.0888C39.0533 20.998 38.7129 20.7994 38.4746 20.4931C38.2363 20.1867 38.1172 19.8122 38.1172 19.3697V16.2889C38.1172 15.8577 38.2363 15.489 38.4746 15.1826C38.7129 14.8762 39.0533 14.6776 39.4959 14.5868L43.2405 13.6847C43.3426 13.333 43.4561 13.0039 43.5809 12.6975C43.717 12.3912 43.8419 12.1018 43.9553 11.8295L41.9639 8.52743C41.7143 8.16432 41.6065 7.78987 41.6405 7.40406C41.6745 7.00691 41.8504 6.65514 42.1681 6.34877L44.3809 4.15308C44.6986 3.85805 45.039 3.68785 45.4021 3.64246C45.7766 3.59707 46.151 3.68217 46.5255 3.89777L49.8275 5.94027C50.1112 5.79275 50.4119 5.65659 50.7296 5.53177C51.0587 5.3956 51.3878 5.27078 51.7168 5.15731L52.6019 1.39571C52.704 0.964513 52.9083 0.624097 53.2147 0.374458C53.521 0.124819 53.8955 0 54.338 0H57.4699C57.9124 0 58.2869 0.124819 58.5932 0.374458C58.8996 0.624097 59.0982 0.964513 59.189 1.39571L60.0741 5.19135C60.4258 5.30482 60.7549 5.42397 61.0613 5.54879C61.379 5.67361 61.674 5.80978 61.9463 5.95729L65.2824 3.89777C65.6569 3.68217 66.0257 3.60274 66.3888 3.65948C66.7519 3.70487 67.0923 3.8694 67.41 4.15308L69.6398 6.34877C69.9575 6.65514 70.1277 7.00691 70.1504 7.40406C70.1844 7.78987 70.0823 8.16432 69.844 8.52743L67.8356 11.8295C67.949 12.1018 68.0682 12.3912 68.193 12.6975C68.3292 13.0039 68.454 13.333 68.5674 13.6847L72.312 14.5868C72.7432 14.6776 73.078 14.8762 73.3163 15.1826C73.5659 15.489 73.6907 15.8577 73.6907 16.2889V19.3697C73.6907 19.8122 73.5659 20.1867 73.3163 20.4931C73.078 20.7994 72.7432 20.998 72.312 21.0888L68.5334 21.9909C68.4313 22.2973 68.3178 22.6037 68.193 22.91C68.0795 23.2164 67.949 23.5171 67.8015 23.8121L69.81 27.0631C70.0596 27.4262 70.1617 27.812 70.1163 28.2205C70.0823 28.629 69.9121 28.9865 69.6057 29.2928L67.41 31.4715C67.1037 31.7779 66.7519 31.9481 66.3547 31.9821C65.9689 32.0162 65.5945 31.9197 65.2314 31.6928L61.9463 29.6843C61.6627 29.8205 61.362 29.951 61.0442 30.0758C60.7265 30.2006 60.4031 30.3198 60.0741 30.4332L59.189 34.1778C59.0982 34.6204 58.8996 34.9608 58.5932 35.1991C58.2869 35.4487 57.9124 35.5735 57.4699 35.5735H54.338ZM55.904 23.7951C57.0046 23.7951 58.0089 23.5228 58.9166 22.9781C59.8358 22.4334 60.562 21.7072 61.0953 20.7994C61.64 19.8803 61.9123 18.8704 61.9123 17.7697C61.9123 16.6691 61.64 15.6705 61.0953 14.7741C60.562 13.8663 59.8358 13.1401 58.9166 12.5954C58.0089 12.0507 57.0046 11.7784 55.904 11.7784C54.8033 11.7784 53.799 12.0507 52.8913 12.5954C51.9835 13.1401 51.2573 13.8663 50.7126 14.7741C50.1679 15.6705 49.8956 16.6691 49.8956 17.7697C49.8956 18.8704 50.1623 19.8803 50.6956 20.7994C51.2402 21.7072 51.9665 22.4334 52.8742 22.9781C53.7934 23.5228 54.8033 23.7951 55.904 23.7951Z" fill="#070707"/>
</g>
<path d="M55.471 85.0295C20.172 78.4099 19.2749 37.7321 23.2388 18.2207C23.2388 18.2207 31.0624 18.8336 39.1987 19.753C47.335 20.6724 55.471 20.3659 55.471 20.3659V28.0275V85.0295Z" fill="#373737"/>
<path d="M55.4669 85.0295C89.8609 78.4099 90.7349 37.7321 86.8727 18.2207C86.8727 18.2207 79.2497 18.8336 71.322 19.753C63.3943 20.6724 55.4669 20.3659 55.4669 20.3659V28.0275V85.0295Z" fill="#070707"/>
<path d="M24.8608 64V55.2727H28.2017C28.8324 55.2727 29.3565 55.3722 29.7741 55.571C30.1946 55.767 30.5085 56.0355 30.7159 56.3764C30.9261 56.7173 31.0312 57.1037 31.0312 57.5355C31.0312 57.8906 30.9631 58.1946 30.8267 58.4474C30.6903 58.6974 30.5071 58.9006 30.277 59.0568C30.0469 59.2131 29.7898 59.3253 29.5057 59.3935V59.4787C29.8153 59.4957 30.1122 59.5909 30.3963 59.7642C30.6832 59.9347 30.9176 60.1761 31.0994 60.4886C31.2813 60.8011 31.3722 61.179 31.3722 61.6222C31.3722 62.0739 31.2628 62.4801 31.044 62.8409C30.8253 63.1989 30.4957 63.4815 30.0554 63.6889C29.6151 63.8963 29.0611 64 28.3935 64H24.8608ZM26.4418 62.679H28.142C28.7159 62.679 29.1293 62.5696 29.3821 62.3509C29.6378 62.1293 29.7656 61.8452 29.7656 61.4986C29.7656 61.2401 29.7017 61.0071 29.5739 60.7997C29.446 60.5895 29.2642 60.4247 29.0284 60.3054C28.7926 60.1832 28.5114 60.1222 28.1847 60.1222H26.4418V62.679ZM26.4418 58.9844H28.0057C28.2784 58.9844 28.5241 58.9347 28.7429 58.8352C28.9616 58.733 29.1335 58.5895 29.2585 58.4048C29.3864 58.2173 29.4503 57.9957 29.4503 57.7401C29.4503 57.402 29.331 57.1236 29.0923 56.9048C28.8565 56.6861 28.5057 56.5767 28.0398 56.5767H26.4418V58.9844ZM36.7192 61.2472V57.4545H38.2618V64H36.7661V62.8366H36.6979C36.5502 63.2031 36.3073 63.5028 35.9692 63.7358C35.634 63.9687 35.2206 64.0852 34.7292 64.0852C34.3002 64.0852 33.9209 63.9901 33.5914 63.7997C33.2647 63.6065 33.009 63.3267 32.8243 62.9602C32.6397 62.5909 32.5473 62.1449 32.5473 61.6222V57.4545H34.0899V61.3835C34.0899 61.7983 34.2036 62.1278 34.4309 62.3722C34.6581 62.6165 34.9564 62.7386 35.3257 62.7386C35.553 62.7386 35.7732 62.6832 35.9863 62.5724C36.1993 62.4616 36.374 62.2969 36.5104 62.0781C36.6496 61.8565 36.7192 61.5795 36.7192 61.2472ZM40.6749 66.4545C40.4647 66.4545 40.2701 66.4375 40.0911 66.4034C39.915 66.3722 39.7744 66.3352 39.6692 66.2926L40.0272 65.0909C40.2516 65.1563 40.4519 65.1875 40.628 65.1847C40.8042 65.1818 40.959 65.1264 41.0925 65.0185C41.2289 64.9134 41.344 64.7372 41.4377 64.4901L41.5698 64.1364L39.1962 57.4545H40.8326L42.3411 62.3977H42.4093L43.9221 57.4545H45.5627L42.942 64.7926C42.8198 65.1392 42.6579 65.4361 42.4562 65.6832C42.2545 65.9332 42.0073 66.1236 41.7147 66.2543C41.4249 66.3878 41.0783 66.4545 40.6749 66.4545Z" fill="white"/>
<g filter="url(#filter1_b_292_13386)">
<path fill-rule="evenodd" clip-rule="evenodd" d="M51.1273 26.8991V39.582V52.2649C51.1273 45.2406 38.4018 40.8828 32.0391 39.582C38.4018 38.2812 51.1273 33.9235 51.1273 26.8991ZM51.1328 31.2363H111C106.689 31.2383 103.195 34.7337 103.195 39.0451C103.195 43.3566 106.689 46.852 111 46.854H51.1328V31.2363Z" fill="#606060" fill-opacity="0.49"/>
</g>
<path d="M70.6037 36.6719C70.5639 36.2997 70.3963 36.0099 70.1009 35.8026C69.8082 35.5952 69.4276 35.4915 68.9588 35.4915C68.6293 35.4915 68.3466 35.5412 68.1108 35.6406C67.875 35.7401 67.6946 35.875 67.5696 36.0455C67.4446 36.2159 67.3807 36.4105 67.3778 36.6293C67.3778 36.8111 67.419 36.9687 67.5014 37.1023C67.5866 37.2358 67.7017 37.3494 67.8466 37.4432C67.9915 37.5341 68.152 37.6108 68.3281 37.6733C68.5043 37.7358 68.6818 37.7884 68.8608 37.831L69.679 38.0355C70.0085 38.1122 70.3253 38.2159 70.6293 38.3466C70.9361 38.4773 71.2102 38.642 71.4517 38.8409C71.696 39.0398 71.8892 39.2798 72.0312 39.5611C72.1733 39.8423 72.2443 40.1719 72.2443 40.5497C72.2443 41.0611 72.1136 41.5114 71.8523 41.9006C71.5909 42.2869 71.2131 42.5895 70.7188 42.8082C70.2273 43.0241 69.6321 43.1321 68.9332 43.1321C68.2543 43.1321 67.6648 43.027 67.1648 42.8168C66.6676 42.6065 66.2784 42.2997 65.9972 41.8963C65.7188 41.4929 65.5682 41.0014 65.5455 40.4219H67.1009C67.1236 40.7259 67.2173 40.9787 67.3821 41.1804C67.5469 41.3821 67.7614 41.5327 68.0256 41.6321C68.2926 41.7315 68.5909 41.7812 68.9205 41.7812C69.2642 41.7812 69.5653 41.7301 69.8239 41.6278C70.0852 41.5227 70.2898 41.3778 70.4375 41.1932C70.5852 41.0057 70.6605 40.7869 70.6634 40.5369C70.6605 40.3097 70.5938 40.1222 70.4631 39.9744C70.3324 39.8239 70.1491 39.6989 69.9134 39.5994C69.6804 39.4972 69.4077 39.4062 69.0952 39.3267L68.1023 39.071C67.3835 38.8864 66.8153 38.6065 66.3977 38.2315C65.983 37.8537 65.7756 37.3523 65.7756 36.7273C65.7756 36.2131 65.9148 35.7628 66.1932 35.3764C66.4744 34.9901 66.8565 34.6903 67.3395 34.4773C67.8224 34.2614 68.3693 34.1534 68.9801 34.1534C69.5994 34.1534 70.142 34.2614 70.608 34.4773C71.0767 34.6903 71.4446 34.9872 71.7116 35.3679C71.9787 35.7457 72.1165 36.1804 72.125 36.6719H70.6037ZM76.3513 43.1278C75.6951 43.1278 75.1283 42.9915 74.651 42.7188C74.1766 42.4432 73.8115 42.054 73.5559 41.5511C73.3002 41.0455 73.1723 40.4503 73.1723 39.7656C73.1723 39.0923 73.3002 38.5014 73.5559 37.9929C73.8144 37.4815 74.1752 37.0838 74.6382 36.7997C75.1013 36.5128 75.6453 36.3693 76.2703 36.3693C76.6738 36.3693 77.0544 36.4347 77.4124 36.5653C77.7732 36.6932 78.0914 36.892 78.3669 37.1619C78.6453 37.4318 78.8641 37.7756 79.0232 38.1932C79.1823 38.608 79.2618 39.1023 79.2618 39.6761V40.1491H73.8968V39.1094H77.7831C77.7803 38.8139 77.7164 38.5511 77.5914 38.321C77.4664 38.0881 77.2917 37.9048 77.0672 37.7713C76.8456 37.6378 76.5871 37.571 76.2917 37.571C75.9763 37.571 75.6993 37.6477 75.4607 37.8011C75.222 37.9517 75.036 38.1506 74.9024 38.3977C74.7718 38.642 74.705 38.9105 74.7022 39.2031V40.1108C74.7022 40.4915 74.7718 40.8182 74.911 41.0909C75.0502 41.3608 75.2448 41.5682 75.4948 41.7131C75.7448 41.8551 76.0374 41.9261 76.3726 41.9261C76.597 41.9261 76.8002 41.8949 76.982 41.8324C77.1638 41.767 77.3215 41.6719 77.455 41.5469C77.5885 41.4219 77.6894 41.267 77.7576 41.0824L79.1979 41.2443C79.107 41.625 78.9337 41.9574 78.678 42.2415C78.4252 42.5227 78.1013 42.7415 77.7064 42.8977C77.3115 43.0511 76.8598 43.1278 76.3513 43.1278ZM81.9775 34.2727V43H80.4349V34.2727H81.9775ZM84.9744 34.2727V43H83.4318V34.2727H84.9744Z" fill="white"/>
<g filter="url(#filter2_i_292_13386)">
<path fill-rule="evenodd" clip-rule="evenodd" d="M60.6695 72.1829V67.6758L0.915182 67.6758C5.17885 67.6189 8.61765 64.1448 8.61765 59.8677C8.61765 55.555 5.12152 52.0588 0.808824 52.0588C0.807119 52.0588 0.805415 52.0588 0.803711 52.0588V52.0581L60.6695 52.0581V46.8171C60.6695 53.8415 73.395 58.1992 79.7578 59.5C73.395 60.8008 60.6695 65.1585 60.6695 72.1829Z" fill="url(#paint0_linear_292_13386)"/>
</g>
<path d="M23.8608 64V55.2727H27.2017C27.8324 55.2727 28.3565 55.3722 28.7741 55.571C29.1946 55.767 29.5085 56.0355 29.7159 56.3764C29.9261 56.7173 30.0312 57.1037 30.0312 57.5355C30.0312 57.8906 29.9631 58.1946 29.8267 58.4474C29.6903 58.6974 29.5071 58.9006 29.277 59.0568C29.0469 59.2131 28.7898 59.3253 28.5057 59.3935V59.4787C28.8153 59.4957 29.1122 59.5909 29.3963 59.7642C29.6832 59.9347 29.9176 60.1761 30.0994 60.4886C30.2813 60.8011 30.3722 61.179 30.3722 61.6222C30.3722 62.0739 30.2628 62.4801 30.044 62.8409C29.8253 63.1989 29.4957 63.4815 29.0554 63.6889C28.6151 63.8963 28.0611 64 27.3935 64H23.8608ZM25.4418 62.679H27.142C27.7159 62.679 28.1293 62.5696 28.3821 62.3509C28.6378 62.1293 28.7656 61.8452 28.7656 61.4986C28.7656 61.2401 28.7017 61.0071 28.5739 60.7997C28.446 60.5895 28.2642 60.4247 28.0284 60.3054C27.7926 60.1832 27.5114 60.1222 27.1847 60.1222H25.4418V62.679ZM25.4418 58.9844H27.0057C27.2784 58.9844 27.5241 58.9347 27.7429 58.8352C27.9616 58.733 28.1335 58.5895 28.2585 58.4048C28.3864 58.2173 28.4503 57.9957 28.4503 57.7401C28.4503 57.402 28.331 57.1236 28.0923 56.9048C27.8565 56.6861 27.5057 56.5767 27.0398 56.5767H25.4418V58.9844ZM35.7192 61.2472V57.4545H37.2618V64H35.7661V62.8366H35.6979C35.5502 63.2031 35.3073 63.5028 34.9692 63.7358C34.634 63.9687 34.2206 64.0852 33.7292 64.0852C33.3002 64.0852 32.9209 63.9901 32.5914 63.7997C32.2647 63.6065 32.009 63.3267 31.8243 62.9602C31.6397 62.5909 31.5473 62.1449 31.5473 61.6222V57.4545H33.0899V61.3835C33.0899 61.7983 33.2036 62.1278 33.4309 62.3722C33.6581 62.6165 33.9564 62.7386 34.3257 62.7386C34.553 62.7386 34.7732 62.6832 34.9863 62.5724C35.1993 62.4616 35.374 62.2969 35.5104 62.0781C35.6496 61.8565 35.7192 61.5795 35.7192 61.2472ZM39.6749 66.4545C39.4647 66.4545 39.2701 66.4375 39.0911 66.4034C38.915 66.3722 38.7744 66.3352 38.6692 66.2926L39.0272 65.0909C39.2516 65.1563 39.4519 65.1875 39.628 65.1847C39.8042 65.1818 39.959 65.1264 40.0925 65.0185C40.2289 64.9134 40.344 64.7372 40.4377 64.4901L40.5698 64.1364L38.1962 57.4545H39.8326L41.3411 62.3977H41.4093L42.9221 57.4545H44.5627L41.942 64.7926C41.8198 65.1392 41.6579 65.4361 41.4562 65.6832C41.2545 65.9332 41.0073 66.1236 40.7147 66.2543C40.4249 66.3878 40.0783 66.4545 39.6749 66.4545Z" fill="white"/>
<defs>
<filter id="filter0_bi_292_13386" x="5.11719" y="-33" width="101.573" height="101.574" filterUnits="userSpaceOnUse" color-interpolation-filters="sRGB">
<feFlood flood-opacity="0" result="BackgroundImageFix"/>
<feGaussianBlur in="BackgroundImageFix" stdDeviation="16.5"/>
<feComposite in2="SourceAlpha" operator="in" result="effect1_backgroundBlur_292_13386"/>
<feBlend mode="normal" in="SourceGraphic" in2="effect1_backgroundBlur_292_13386" result="shape"/>
<feColorMatrix in="SourceAlpha" type="matrix" values="0 0 0 0 0 0 0 0 0 0 0 0 0 0 0 0 0 0 127 0" result="hardAlpha"/>
<feOffset dy="1"/>
<feComposite in2="hardAlpha" operator="arithmetic" k2="-1" k3="1"/>
<feColorMatrix type="matrix" values="0 0 0 0 1 0 0 0 0 1 0 0 0 0 1 0 0 0 0.13 0"/>
<feBlend mode="normal" in2="shape" result="effect2_innerShadow_292_13386"/>
</filter>
<filter id="filter1_b_292_13386" x="10.0391" y="4.89911" width="122.961" height="69.3658" filterUnits="userSpaceOnUse" color-interpolation-filters="sRGB">
<feFlood flood-opacity="0" result="BackgroundImageFix"/>
<feGaussianBlur in="BackgroundImageFix" stdDeviation="11"/>
<feComposite in2="SourceAlpha" operator="in" result="effect1_backgroundBlur_292_13386"/>
<feBlend mode="normal" in="SourceGraphic" in2="effect1_backgroundBlur_292_13386" result="shape"/>
</filter>
<filter id="filter2_i_292_13386" x="0.803711" y="46.8171" width="78.9541" height="25.3658" filterUnits="userSpaceOnUse" color-interpolation-filters="sRGB">
<feFlood flood-opacity="0" result="BackgroundImageFix"/>
<feBlend mode="normal" in="SourceGraphic" in2="BackgroundImageFix" result="shape"/>
<feColorMatrix in="SourceAlpha" type="matrix" values="0 0 0 0 0 0 0 0 0 0 0 0 0 0 0 0 0 0 127 0" result="hardAlpha"/>
<feOffset dy="1"/>
<feComposite in2="hardAlpha" operator="arithmetic" k2="-1" k3="1"/>
<feColorMatrix type="matrix" values="0 0 0 0 1 0 0 0 0 1 0 0 0 0 1 0 0 0 0.19 0"/>
<feBlend mode="normal" in2="shape" result="effect1_innerShadow_292_13386"/>
</filter>
<linearGradient id="paint0_linear_292_13386" x1="79.7577" y1="69.0122" x2="47.7314" y2="60.2075" gradientUnits="userSpaceOnUse">
<stop offset="0.0535893" stop-color="#D37C40"/>
<stop offset="1" stop-color="#6642EE"/>
</linearGradient>
</defs>
</svg>
