<svg width="107" height="85" viewBox="0 0 107 85" fill="none" xmlns="http://www.w3.org/2000/svg">
<line x1="70.8252" y1="40.7841" x2="42.9303" y2="84.6188" stroke="#150D0D"/>
<line x1="41.4131" y1="11.0277" x2="0.378461" y2="42.8986" stroke="#150D0D"/>
<line x1="37.0928" y1="46.1836" x2="0.353168" y2="82.9233" stroke="#150D0D"/>
<path d="M85.2662 9.46065C82.5206 8.97255 80.3852 6.8371 79.8971 4.09152C79.8971 3.96949 79.714 3.96949 79.653 4.09152C79.1649 6.8371 77.0295 8.97255 74.2839 9.46065C74.1619 9.46065 74.1619 9.64369 74.2839 9.7047C77.0295 10.1928 79.1649 12.3283 79.653 15.0738C79.653 15.1959 79.8361 15.1959 79.8971 15.0738C80.3852 12.3283 82.5206 10.1928 85.2662 9.7047C85.3882 9.64369 85.3882 9.52167 85.2662 9.46065Z" fill="#6743EE"/>
<path d="M90.486 1.4338C89.8758 1.25076 89.3267 0.701648 89.1437 0.0915193C89.0827 -0.0305064 88.9606 -0.0305064 88.9606 0.0915193C88.7166 0.701648 88.1675 1.25076 87.5573 1.4338C87.4353 1.49482 87.4353 1.61684 87.5573 1.61684C88.2285 1.79988 88.7166 2.349 88.8996 2.95912C88.9606 3.08115 89.0827 3.08115 89.0827 2.95912C89.3267 2.41001 89.8758 1.86089 90.486 1.67785C90.608 1.61684 90.608 1.49482 90.486 1.4338Z" fill="#150D0D"/>
<path d="M106.859 31.0783C102.601 30.3213 99.289 27.0095 98.532 22.7513C98.532 22.5621 98.2482 22.5621 98.1535 22.7513C97.3965 27.0095 94.0847 30.3213 89.8265 31.0783C89.6373 31.0783 89.6373 31.3622 89.8265 31.4569C94.0847 32.2139 97.3965 35.5257 98.1535 39.7839C98.1535 39.9731 98.4374 39.9731 98.532 39.7839C99.289 35.5257 102.601 32.2139 106.859 31.4569C107.048 31.3622 107.048 31.173 106.859 31.0783Z" fill="#6743EE"/>
<path d="M86.5875 24.0822C85.9774 23.8992 85.4283 23.3501 85.2452 22.74C85.1842 22.6179 85.0622 22.6179 85.0622 22.74C84.8181 23.3501 84.269 23.8992 83.6589 24.0822C83.5369 24.1433 83.5369 24.2653 83.6589 24.2653C84.33 24.4483 84.8181 24.9974 85.0012 25.6076C85.0622 25.7296 85.1842 25.7296 85.1842 25.6076C85.4283 25.0584 85.9774 24.5093 86.5875 24.3263C86.7095 24.2653 86.7095 24.1433 86.5875 24.0822Z" fill="#150D0D"/>
<path d="M83.4625 45.9514C82.8524 45.7683 82.3033 45.2192 82.1202 44.6091C82.0592 44.4871 81.9372 44.4871 81.9372 44.6091C81.6931 45.2192 81.144 45.7683 80.5339 45.9514C80.4119 46.0124 80.4119 46.1344 80.5339 46.1344C81.205 46.3175 81.6931 46.8666 81.8762 47.4767C81.9372 47.5987 82.0592 47.5987 82.0592 47.4767C82.3033 46.9276 82.8524 46.3785 83.4625 46.1954C83.5845 46.1344 83.5845 46.0124 83.4625 45.9514Z" fill="#150D0D"/>
<path d="M46.7516 61.5725C46.1415 61.3894 45.5923 60.8403 45.4093 60.2302C45.3483 60.1082 45.2263 60.1082 45.2263 60.2302C44.9822 60.8403 44.4331 61.3894 43.823 61.5725C43.7009 61.6335 43.7009 61.7555 43.823 61.7555C44.4941 61.9386 44.9822 62.4877 45.1652 63.0978C45.2263 63.2198 45.3483 63.2198 45.3483 63.0978C45.5923 62.5487 46.1415 61.9996 46.7516 61.8165C46.8736 61.7555 46.8736 61.6335 46.7516 61.5725Z" fill="#150D0D"/>
<path d="M97.4906 51.5013C96.5718 51.2201 95.7448 50.3766 95.4692 49.4394C95.3773 49.252 95.1935 49.252 95.1935 49.4394C94.826 50.3766 93.999 51.2201 93.0802 51.5013C92.8964 51.595 92.8964 51.7824 93.0802 51.7824C94.0909 52.0636 94.826 52.9071 95.1016 53.8443C95.1935 54.0317 95.3773 54.0317 95.3773 53.8443C95.7448 53.0008 96.5718 52.1573 97.4906 51.8762C97.6744 51.7824 97.6744 51.595 97.4906 51.5013Z" fill="#6743EE"/>
<ellipse cx="50.6775" cy="31.2408" rx="23.0398" ry="23.4303" fill="#150D0D"/>
<g filter="url(#filter0_f_292_13345)">
<circle cx="57.7918" cy="21.8689" r="7.02909" fill="#D9D9D9"/>
</g>
<defs>
<filter id="filter0_f_292_13345" x="38.7627" y="2.83984" width="38.0586" height="38.0582" filterUnits="userSpaceOnUse" color-interpolation-filters="sRGB">
<feFlood flood-opacity="0" result="BackgroundImageFix"/>
<feBlend mode="normal" in="SourceGraphic" in2="BackgroundImageFix" result="shape"/>
<feGaussianBlur stdDeviation="6" result="effect1_foregroundBlur_292_13345"/>
</filter>
</defs>
</svg>
