<svg width="72" height="18" viewBox="0 0 72 18" fill="none" xmlns="http://www.w3.org/2000/svg">
    <path d="M65.3981 16.6365H64.7759L68.4498 10.8984H69.7633V17.2883H68.4498V12.6465L68.7659 12.7354L65.8327 17.2883H64.3611L61.4279 12.7551L61.7439 12.6663V17.2883H60.4304V10.8984H61.7439L65.3981 16.6365Z" fill="white"/>
    <path d="M55.4347 17.2883L52.6101 10.8984H54.0619L56.4815 16.6661H56.0272L58.437 10.8984H59.869L57.0741 17.2883H55.4347Z" fill="white"/>
    <path d="M47.0174 14.6217V16.192H51.9456V17.2883H45.7039V10.8984H51.9357V11.9947H47.0174V13.5847H51.0468V14.6217H47.0174Z" fill="white"/>
    <path d="M43.0554 10.4062H44.3393V17.2899H43.0554V10.4062Z" fill="white"/>
    <path d="M40.8523 15.6609H42.0966C42.044 15.9967 41.9024 16.2963 41.672 16.5597C41.4481 16.823 41.142 17.0304 40.7535 17.1819C40.365 17.3333 39.891 17.409 39.3313 17.409C38.7059 17.409 38.1528 17.3103 37.6722 17.1127C37.1915 16.9086 36.8162 16.6156 36.5463 16.2338C36.2763 15.8519 36.1414 15.391 36.1414 14.8511C36.1414 14.3112 36.273 13.8503 36.5364 13.4684C36.7998 13.08 37.1652 12.7837 37.6326 12.5796C38.1067 12.3755 38.6598 12.2734 39.2918 12.2734C39.9371 12.2734 40.4737 12.3755 40.9016 12.5796C41.3296 12.7837 41.6456 13.0932 41.8497 13.508C42.0604 13.9162 42.1493 14.4396 42.1164 15.0783H37.4351C37.468 15.3284 37.5602 15.5556 37.7117 15.7597C37.8697 15.9638 38.0804 16.1251 38.3437 16.2436C38.6137 16.3621 38.933 16.4214 39.3017 16.4214C39.7099 16.4214 40.049 16.3523 40.3189 16.214C40.5955 16.0692 40.7733 15.8848 40.8523 15.6609ZM39.2326 13.2512C38.7585 13.2512 38.3734 13.3565 38.0771 13.5672C37.7808 13.7713 37.5899 14.0248 37.5043 14.3277H40.8424C40.8095 13.9985 40.6514 13.7384 40.3683 13.5475C40.0918 13.3499 39.7132 13.2512 39.2326 13.2512Z" fill="white"/>
    <path d="M35.3123 17.2893H34.0284V12.3809H35.3123V17.2893ZM34.0975 14.9289L34.1074 15.2647C34.0943 15.3569 34.0613 15.4918 34.0087 15.6696C33.956 15.8408 33.8737 16.0251 33.7618 16.2227C33.6564 16.4202 33.5181 16.6111 33.347 16.7955C33.1758 16.9732 32.9651 17.1214 32.7149 17.2399C32.4647 17.3518 32.1684 17.4078 31.826 17.4078C31.5561 17.4078 31.2894 17.3749 31.0261 17.309C30.7693 17.2432 30.5356 17.1346 30.3249 16.9831C30.1142 16.8251 29.9463 16.6144 29.8212 16.3511C29.6961 16.0877 29.6335 15.7552 29.6335 15.3536V12.3809H30.9174V15.1363C30.9174 15.4523 30.9668 15.7025 31.0656 15.8869C31.1709 16.0646 31.3224 16.1897 31.5199 16.2622C31.7174 16.3346 31.9511 16.3708 32.2211 16.3708C32.5766 16.3708 32.8828 16.2951 33.1396 16.1437C33.3963 15.9856 33.6037 15.7947 33.7618 15.5708C33.9264 15.347 34.0383 15.133 34.0975 14.9289Z" fill="white"/>
    <path d="M29.2169 10.8984V11.9947H24.2986V13.7131H28.3281V14.7402H24.2986V17.2883H22.9851V10.8984H29.2169Z" fill="white"/>
    <path d="M67.407 2.47656H68.2563L70.0241 7.21709L69.3328 7.41462L67.407 2.47656ZM71.9994 2.47656L69.2439 9.38984H68.3847L69.5797 6.72329L71.1599 2.47656H71.9994Z" fill="white"/>
    <path d="M64.9541 7.51204C64.592 7.51204 64.2957 7.42973 64.0653 7.26513C63.8348 7.09395 63.6538 6.87667 63.5221 6.61331C63.397 6.34336 63.3081 6.06354 63.2554 5.77384C63.2028 5.47756 63.1764 5.20432 63.1764 4.95412C63.1764 4.59858 63.1995 4.26609 63.2456 3.95664C63.2982 3.64719 63.3871 3.37395 63.5122 3.13692C63.6373 2.89989 63.8151 2.71554 64.0455 2.58386C64.2826 2.44559 64.5854 2.37646 64.9541 2.37646C65.3689 2.37646 65.7376 2.48839 66.0603 2.71225C66.3829 2.93611 66.6364 3.24227 66.8207 3.63073C67.0051 4.01919 67.0972 4.46032 67.0972 4.95412C67.0972 5.44793 67.0018 5.88906 66.8108 6.27752C66.6199 6.6594 66.3631 6.96227 66.0405 7.18612C65.7179 7.4034 65.3558 7.51204 64.9541 7.51204ZM64.7566 6.76145C65.0595 6.76145 65.3261 6.68573 65.5566 6.5343C65.787 6.37628 65.9681 6.1623 66.0998 5.89235C66.238 5.61582 66.3072 5.30308 66.3072 4.95412C66.3072 4.4274 66.1722 3.99285 65.9022 3.65048C65.6323 3.30152 65.2504 3.12704 64.7566 3.12704C64.4274 3.12704 64.1509 3.20605 63.927 3.36407C63.7097 3.5155 63.5451 3.72949 63.4332 4.00602C63.3279 4.27596 63.2752 4.592 63.2752 4.95412C63.2752 5.28333 63.3279 5.58619 63.4332 5.86273C63.5451 6.13267 63.7097 6.34995 63.927 6.51455C64.1443 6.67915 64.4208 6.76145 64.7566 6.76145ZM63.2752 0.5V6.42566C63.2752 6.54418 63.2653 6.70219 63.2456 6.89972C63.2324 7.09724 63.2192 7.26842 63.2061 7.41327H62.4851V0.5H63.2752Z" fill="white"/>
    <path d="M56.5813 7.51204C56.1863 7.51204 55.8242 7.4034 55.495 7.18612C55.1724 6.96227 54.9156 6.6594 54.7246 6.27752C54.5337 5.88906 54.4382 5.44793 54.4382 4.95412C54.4382 4.46032 54.5304 4.01919 54.7148 3.63073C54.8991 3.24227 55.1526 2.93611 55.4752 2.71225C55.7978 2.48839 56.1666 2.37646 56.5813 2.37646C56.9501 2.37646 57.2496 2.44559 57.4801 2.58386C57.7171 2.71554 57.8982 2.89989 58.0233 3.13692C58.1484 3.37395 58.234 3.64719 58.28 3.95664C58.3327 4.26609 58.359 4.59858 58.359 4.95412C58.359 5.20432 58.3327 5.47756 58.28 5.77384C58.2274 6.06354 58.1352 6.34336 58.0035 6.61331C57.8784 6.87667 57.7006 7.09395 57.4702 7.26513C57.2398 7.42973 56.9435 7.51204 56.5813 7.51204ZM56.7789 6.76145C57.1147 6.76145 57.3912 6.67915 57.6085 6.51455C57.8323 6.34995 57.9969 6.13267 58.1023 5.86273C58.2076 5.58619 58.2603 5.28333 58.2603 4.95412C58.2603 4.592 58.2043 4.27596 58.0924 4.00602C57.987 3.72949 57.8224 3.5155 57.5986 3.36407C57.3813 3.20605 57.1081 3.12704 56.7789 3.12704C56.2851 3.12704 55.9032 3.30152 55.6332 3.65048C55.3633 3.99285 55.2283 4.4274 55.2283 4.95412C55.2283 5.30308 55.2942 5.61582 55.4258 5.89235C55.5641 6.1623 55.7485 6.37628 55.9789 6.5343C56.2159 6.68573 56.4826 6.76145 56.7789 6.76145ZM58.2603 0.5H59.0504V7.41327H58.3294C58.3163 7.26842 58.2998 7.09724 58.28 6.89972C58.2669 6.70219 58.2603 6.54418 58.2603 6.42566V0.5Z" fill="white"/>
    <path d="M53.039 5.82371H53.7797C53.7271 6.14633 53.6086 6.43603 53.4242 6.69281C53.2464 6.94301 53.0094 7.14382 52.7131 7.29525C52.4234 7.4401 52.0876 7.51253 51.7058 7.51253C51.2449 7.51253 50.8301 7.40389 50.4614 7.18662C50.0927 6.96276 49.7997 6.65989 49.5824 6.27802C49.3717 5.88955 49.2664 5.44842 49.2664 4.95462C49.2664 4.46081 49.3684 4.01968 49.5725 3.63122C49.7832 3.24276 50.0696 2.9366 50.4317 2.71274C50.7939 2.48888 51.2021 2.37695 51.6564 2.37695C52.137 2.37695 52.5419 2.48559 52.8711 2.70286C53.2069 2.91356 53.4538 3.2263 53.6118 3.64109C53.7764 4.04931 53.8423 4.55299 53.8094 5.15214H50.0564C50.0894 5.47476 50.1783 5.75787 50.3231 6.00148C50.468 6.24509 50.6589 6.43603 50.8959 6.5743C51.1329 6.70598 51.4029 6.77182 51.7058 6.77182C52.0415 6.77182 52.3247 6.68623 52.5551 6.51504C52.7921 6.33727 52.9534 6.10683 53.039 5.82371ZM51.686 3.11766C51.2778 3.11766 50.9354 3.23617 50.6589 3.4732C50.3824 3.71023 50.198 4.03285 50.1058 4.44106H52.9995C52.9732 4.00651 52.8316 3.67731 52.5749 3.45345C52.3247 3.22959 52.0284 3.11766 51.686 3.11766Z" fill="white"/>
    <path d="M46.3914 2.47571H47.1814V7.41377H46.3914V2.47571ZM48.7616 3.21642C48.4258 3.21642 48.1427 3.30202 47.9123 3.4732C47.6884 3.6378 47.5106 3.84191 47.379 4.08552C47.2539 4.32255 47.1716 4.55299 47.1321 4.77685L47.1222 4.20403C47.1222 4.14478 47.1354 4.04602 47.1617 3.90775C47.188 3.76948 47.2374 3.61476 47.3098 3.44357C47.3823 3.2658 47.4777 3.09791 47.5962 2.93989C47.7213 2.77529 47.8794 2.64032 48.0703 2.53497C48.2612 2.42963 48.4917 2.37695 48.7616 2.37695V3.21642Z" fill="white"/>
    <path d="M44.7109 5.82371H45.4516C45.3989 6.14633 45.2804 6.43603 45.0961 6.69281C44.9183 6.94301 44.6813 7.14382 44.385 7.29525C44.0953 7.4401 43.7595 7.51253 43.3776 7.51253C42.9167 7.51253 42.5019 7.40389 42.1332 7.18662C41.7645 6.96276 41.4715 6.65989 41.2543 6.27802C41.0436 5.88955 40.9382 5.44842 40.9382 4.95462C40.9382 4.46081 41.0403 4.01968 41.2444 3.63122C41.4551 3.24276 41.7415 2.9366 42.1036 2.71274C42.4657 2.48888 42.874 2.37695 43.3283 2.37695C43.8089 2.37695 44.2138 2.48559 44.543 2.70286C44.8788 2.91356 45.1257 3.2263 45.2837 3.64109C45.4483 4.04931 45.5142 4.55299 45.4812 5.15214H41.7283C41.7612 5.47476 41.8501 5.75787 41.995 6.00148C42.1398 6.24509 42.3308 6.43603 42.5678 6.5743C42.8048 6.70598 43.0748 6.77182 43.3776 6.77182C43.7134 6.77182 43.9965 6.68623 44.227 6.51504C44.464 6.33727 44.6253 6.10683 44.7109 5.82371ZM43.3579 3.11766C42.9497 3.11766 42.6073 3.23617 42.3308 3.4732C42.0542 3.71023 41.8699 4.03285 41.7777 4.44106H44.6714C44.6451 4.00651 44.5035 3.67731 44.2467 3.45345C43.9965 3.22959 43.7003 3.11766 43.3579 3.11766Z" fill="white"/>
    <path d="M38.8092 6.69366L38.6117 6.68378L39.7672 2.47656H40.6264L39.1154 7.41462H38.3747L36.913 3.08888H37.1105L35.6489 7.41462H34.9082L33.407 2.47656H34.2662L35.402 6.68378L35.2044 6.69366L36.5377 2.47656H37.4957L38.8092 6.69366Z" fill="white"/>
    <path d="M30.7016 7.51253C30.2802 7.51253 29.8852 7.41048 29.5165 7.20637C29.1478 7.00226 28.8482 6.70927 28.6178 6.3274C28.3939 5.93894 28.282 5.48134 28.282 4.95462C28.282 4.42789 28.3939 3.97359 28.6178 3.59171C28.8482 3.20325 29.1478 2.90368 29.5165 2.69299C29.8852 2.4823 30.2802 2.37695 30.7016 2.37695C31.123 2.37695 31.5148 2.4823 31.8769 2.69299C32.2456 2.90368 32.5419 3.20325 32.7657 3.59171C32.9896 3.97359 33.1015 4.42789 33.1015 4.95462C33.1015 5.48134 32.9896 5.93894 32.7657 6.3274C32.5419 6.70927 32.2456 7.00226 31.8769 7.20637C31.5148 7.41048 31.123 7.51253 30.7016 7.51253ZM30.7016 6.77182C30.9782 6.77182 31.2382 6.70269 31.4818 6.56442C31.7255 6.42616 31.923 6.22205 32.0744 5.9521C32.2324 5.67557 32.3114 5.34308 32.3114 4.95462C32.3114 4.56616 32.2324 4.23695 32.0744 3.96701C31.923 3.69048 31.7255 3.47979 31.4818 3.33494C31.2382 3.19009 30.9782 3.11766 30.7016 3.11766C30.4251 3.11766 30.1617 3.19009 29.9115 3.33494C29.6679 3.4732 29.4671 3.6806 29.3091 3.95713C29.1511 4.22708 29.0721 4.55957 29.0721 4.95462C29.0721 5.34308 29.1478 5.67557 29.2992 5.9521C29.4572 6.22205 29.6613 6.42616 29.9115 6.56442C30.1617 6.70269 30.4251 6.77182 30.7016 6.77182Z" fill="white"/>
    <path d="M23.625 5.14211V4.4014H25.6397C26.0348 4.4014 26.3541 4.27959 26.5977 4.03598C26.8479 3.78579 26.973 3.46317 26.973 3.06812C26.973 2.65991 26.8479 2.33729 26.5977 2.10026C26.3541 1.85665 26.0348 1.73485 25.6397 1.73485H23.783V7.41361H22.9929V0.994141H25.6397C25.936 0.994141 26.2125 1.04023 26.4693 1.13241C26.7261 1.22458 26.9499 1.35956 27.1409 1.53733C27.3384 1.7151 27.4898 1.93237 27.5952 2.18915C27.7071 2.44593 27.7631 2.73892 27.7631 3.06812C27.7631 3.39733 27.7071 3.69032 27.5952 3.9471C27.4898 4.20388 27.3384 4.42115 27.1409 4.59892C26.9499 4.77669 26.7261 4.91166 26.4693 5.00384C26.2125 5.09602 25.936 5.14211 25.6397 5.14211H23.625Z" fill="white"/>
    <path d="M16.9624 0.697021C16.9744 0.950615 16.9911 1.14081 16.9911 1.331C16.9911 5.67261 16.9839 10.0119 17.0007 14.3535C17.0031 15.025 16.7347 15.504 16.3153 16.0159C15.3736 17.1618 14.2425 17.5351 12.7399 17.4976C8.75235 17.3989 4.75996 17.4647 0.767577 17.4647C0.535127 17.4647 0.300281 17.4647 0.000732422 17.4647C0.000732422 17.2017 0.000732422 16.9927 0.000732422 16.7861C0.000732422 11.8997 0.000732422 7.01337 0.000732422 2.12935C0.000732422 1.06567 0.376965 0.697021 1.46253 0.697021C6.40628 0.697021 11.35 0.697021 16.2938 0.697021C16.4927 0.697021 16.6892 0.697021 16.9624 0.697021ZM11.0816 2.85961C10.9043 2.82673 10.8132 2.79386 10.7222 2.79386C8.14366 2.79151 5.56515 2.78212 2.98663 2.79621C2.2102 2.80091 1.99453 3.16251 2.32283 3.85989C2.9435 5.17952 3.58094 6.48975 4.21358 7.80233C4.64014 8.68755 5.13619 8.77678 5.83594 8.08879C7.46069 6.49209 9.08305 4.8907 10.703 3.28931C10.8204 3.1719 10.9211 3.04041 11.0816 2.85726V2.85961ZM7.93038 9.52112C7.90882 9.50938 7.85849 9.46712 7.80817 9.46712C6.14507 9.46242 4.47958 9.45773 2.81649 9.46477C2.27491 9.46477 2.11435 9.80759 2.11674 10.2749C2.11674 11.362 2.11674 12.4515 2.11674 13.5387C2.11674 14.0905 2.11674 14.6446 2.11674 15.119C4.05782 13.2499 5.9941 11.3879 7.93278 9.52112H7.93038ZM6.77053 8.31656C6.80887 8.38465 6.84961 8.4504 6.88795 8.51849C7.5182 8.51849 8.14845 8.54902 8.77391 8.50206C9.00636 8.48562 9.26997 8.33534 9.4425 8.17098C11.1775 6.48975 12.8981 4.79208 14.6211 3.09911C14.6738 3.04745 14.7026 2.97701 14.7481 2.90892C13.6146 2.54262 12.5147 2.77977 11.7382 3.54525C11.3452 3.93033 10.9594 4.32246 10.5616 4.70285C9.30112 5.90977 8.03582 7.11199 6.77053 8.3189V8.31656Z" fill="white"/>
</svg>
