<svg width="128" height="29" viewBox="0 0 128 29" fill="none" xmlns="http://www.w3.org/2000/svg">
<g clip-path="url(#clip0_2562_16955)">
<path d="M0.000122371 28.7007C0.000122371 28.2597 0.000122371 27.9349 0.000122371 27.6102C0.000122371 19.2263 0.000122371 10.8424 0.000122371 2.46255C0.000122371 0.702377 0.648731 0.0488281 2.40118 0.0488281C10.7807 0.0488281 19.1602 0.0488281 27.5398 0.0488281C27.8701 0.0488281 28.2005 0.0488281 28.6879 0.0488281C28.6879 0.461807 28.6879 0.814644 28.6879 1.16347C28.6879 8.54898 28.6718 15.9305 28.7041 23.316C28.7081 24.4948 28.2569 25.3448 27.5237 26.2509C25.9283 28.2236 23.9986 28.817 21.4727 28.7569C14.7731 28.5965 8.06542 28.7007 1.3618 28.7007C0.962963 28.7007 0.560101 28.7007 -0.00390625 28.7007H0.000122371ZM18.7816 4.05833C18.697 3.94607 18.6124 3.82979 18.5278 3.71752C18.4029 3.68946 18.278 3.64134 18.1571 3.64134C13.774 3.63733 9.38681 3.61729 5.00367 3.64535C3.71048 3.65337 3.36805 4.28687 3.92803 5.49373C4.9795 7.74307 6.05111 9.98438 7.12273 12.2257C7.83176 13.7092 8.67777 13.8455 9.87024 12.6587C12.0457 10.4976 14.205 8.31643 16.3926 6.16733C17.15 5.42557 17.9799 4.76 18.7775 4.05833H18.7816ZM13.4114 15.1125C13.2946 15.0845 13.1455 15.0203 12.9924 15.0203C10.2852 15.0163 7.57796 15.0203 4.87073 15.0203C3.93609 15.0203 3.56545 15.5175 3.56948 16.3956C3.57754 18.1197 3.56948 19.8438 3.56948 21.5718C3.56948 22.6504 3.56948 23.729 3.56948 24.6712C6.84072 21.4957 10.112 18.3201 13.4114 15.1165V15.1125ZM11.4374 13.0557C11.4978 13.18 11.5623 13.3043 11.6227 13.4285C12.3116 13.4285 13.0085 13.3764 13.6894 13.4406C14.8536 13.5528 15.7158 13.1358 16.5255 12.3019C19.0636 9.69971 21.666 7.16169 24.2403 4.59561C24.478 4.35905 24.6915 4.09843 25.1065 3.63733C23.9422 3.63733 23.072 3.55714 22.226 3.6654C21.6258 3.74158 20.9046 3.90597 20.4937 4.29489C17.44 7.17773 14.4468 10.1247 11.4374 13.0517V13.0557Z" fill="white"/>
<path d="M88.6783 16.2224V25.0032H104.692V28.748C104.338 28.748 104.011 28.748 103.685 28.748C98.3228 28.748 92.9607 28.748 87.5946 28.748C85.6851 28.748 84.9156 27.9983 84.9116 26.0937C84.9035 18.2792 84.9035 10.4607 84.9116 2.64617C84.9116 0.749674 85.6891 0.00390625 87.6027 0.00390625C93.2669 0.00390625 98.9271 0.00390625 104.765 0.00390625C104.221 1.13459 103.802 2.21715 103.185 3.17542C102.968 3.51222 102.267 3.67661 101.787 3.68062C97.8313 3.72072 93.8793 3.70067 89.9232 3.70067C89.5284 3.70067 89.1376 3.70067 88.6944 3.70067V12.5577H102.492V16.2264H88.6743L88.6783 16.2224Z" fill="white"/>
<path d="M77.1677 24.9597V0.0766881H80.8256C80.8418 0.413487 80.874 0.734247 80.874 1.05902C80.874 9.33864 80.878 17.6223 80.874 25.9019C80.874 28.1152 80.2334 28.7446 78.0056 28.7446C72.5106 28.7446 67.0115 28.7446 61.5165 28.7446C59.8204 28.7446 59.0348 27.9989 59.0308 26.3229C59.0187 17.7746 59.0268 9.23039 59.0308 0.682123C59.0308 0.489667 59.063 0.297211 59.0832 0.0566406H62.6848V24.9597H77.1677Z" fill="white"/>
<path d="M53.8022 12.5778V16.2104H39.9156V28.684H36.1689C36.1689 28.3352 36.1689 27.9823 36.1689 27.6335C36.1689 19.3539 36.1689 11.0783 36.1689 2.79863C36.1689 0.693644 36.874 0 39.0091 0C44.3027 0 49.5963 0 54.8899 0C55.2163 0 55.5426 0 56.0381 0C55.4862 1.14271 55.0873 2.20523 54.4669 3.12741C54.2293 3.48426 53.5001 3.66469 52.9965 3.6687C49.0444 3.7128 45.0883 3.69676 41.1362 3.69676C40.7737 3.69676 40.4111 3.69676 39.9639 3.69676V12.5778H53.8022Z" fill="white"/>
<path d="M127.32 28.748C124.182 28.748 121.241 28.748 118.296 28.748C115.919 28.748 113.539 28.7601 111.162 28.744C109.699 28.736 108.805 27.91 108.801 26.4746C108.785 17.766 108.801 9.05736 108.801 0.348715C108.801 0.284563 108.829 0.220411 108.861 0.0800781H112.495V24.9911C112.975 25.0112 113.361 25.0433 113.744 25.0433C117.897 25.0433 122.051 25.0713 126.205 25.0272C127.087 25.0192 127.409 25.2638 127.333 26.1499C127.26 26.9678 127.316 27.7938 127.316 28.744L127.32 28.748Z" fill="white"/>
</g>
<defs>
<clipPath id="clip0_2562_16955">
<rect width="127.349" height="28.7562" fill="white"/>
</clipPath>
</defs>
</svg>
