<svg width="73" height="19" viewBox="0 0 73 19" fill="none" xmlns="http://www.w3.org/2000/svg">
    <path d="M68.4062 1.97656H69.2556L71.0234 6.71709L70.3321 6.91462L68.4062 1.97656ZM72.9986 1.97656L70.2432 8.88984H69.384L70.579 6.22329L72.1592 1.97656H72.9986Z"
          fill="white"/>
    <path d="M65.9534 7.01204C65.5913 7.01204 65.295 6.92973 65.0646 6.76513C64.8341 6.59395 64.653 6.37667 64.5214 6.11331C64.3963 5.84336 64.3074 5.56354 64.2547 5.27384C64.202 4.97756 64.1757 4.70432 64.1757 4.45412C64.1757 4.09858 64.1987 3.76609 64.2448 3.45664C64.2975 3.14719 64.3864 2.87395 64.5115 2.63692C64.6366 2.39989 64.8144 2.21554 65.0448 2.08386C65.2818 1.94559 65.5847 1.87646 65.9534 1.87646C66.3682 1.87646 66.7369 1.98839 67.0595 2.21225C67.3821 2.43611 67.6356 2.74227 67.82 3.13073C68.0043 3.51919 68.0965 3.96032 68.0965 4.45412C68.0965 4.94793 68.001 5.38906 67.8101 5.77752C67.6192 6.1594 67.3624 6.46227 67.0398 6.68612C66.7172 6.9034 66.355 7.01204 65.9534 7.01204ZM65.7559 6.26145C66.0587 6.26145 66.3254 6.18573 66.5558 6.0343C66.7863 5.87628 66.9673 5.6623 67.099 5.39235C67.2373 5.11582 67.3064 4.80308 67.3064 4.45412C67.3064 3.9274 67.1715 3.49285 66.9015 3.15048C66.6316 2.80152 66.2497 2.62704 65.7559 2.62704C65.4267 2.62704 65.1501 2.70605 64.9263 2.86407C64.709 3.0155 64.5444 3.22949 64.4325 3.50602C64.3271 3.77596 64.2745 4.092 64.2745 4.45412C64.2745 4.78333 64.3271 5.08619 64.4325 5.36273C64.5444 5.63267 64.709 5.84995 64.9263 6.01455C65.1436 6.17915 65.4201 6.26145 65.7559 6.26145ZM64.2745 0V5.92566C64.2745 6.04418 64.2646 6.20219 64.2448 6.39972C64.2317 6.59724 64.2185 6.76842 64.2053 6.91327H63.4844V0H64.2745Z"
          fill="white"/>
    <path d="M57.5806 7.01204C57.1856 7.01204 56.8234 6.9034 56.4942 6.68612C56.1716 6.46227 55.9148 6.1594 55.7239 5.77752C55.533 5.38906 55.4375 4.94793 55.4375 4.45412C55.4375 3.96032 55.5297 3.51919 55.714 3.13073C55.8984 2.74227 56.1519 2.43611 56.4745 2.21225C56.7971 1.98839 57.1658 1.87646 57.5806 1.87646C57.9493 1.87646 58.2489 1.94559 58.4793 2.08386C58.7164 2.21554 58.8974 2.39989 59.0225 2.63692C59.1476 2.87395 59.2332 3.14719 59.2793 3.45664C59.332 3.76609 59.3583 4.09858 59.3583 4.45412C59.3583 4.70432 59.332 4.97756 59.2793 5.27384C59.2266 5.56354 59.1345 5.84336 59.0028 6.11331C58.8777 6.37667 58.6999 6.59395 58.4695 6.76513C58.239 6.92973 57.9427 7.01204 57.5806 7.01204ZM57.7781 6.26145C58.1139 6.26145 58.3905 6.17915 58.6077 6.01455C58.8316 5.84995 58.9962 5.63267 59.1015 5.36273C59.2069 5.08619 59.2596 4.78333 59.2596 4.45412C59.2596 4.092 59.2036 3.77596 59.0917 3.50602C58.9863 3.22949 58.8217 3.0155 58.5979 2.86407C58.3806 2.70605 58.1073 2.62704 57.7781 2.62704C57.2843 2.62704 56.9025 2.80152 56.6325 3.15048C56.3626 3.49285 56.2276 3.9274 56.2276 4.45412C56.2276 4.80308 56.2934 5.11582 56.4251 5.39235C56.5634 5.6623 56.7477 5.87628 56.9782 6.0343C57.2152 6.18573 57.4819 6.26145 57.7781 6.26145ZM59.2596 0H60.0496V6.91327H59.3287C59.3155 6.76842 59.2991 6.59724 59.2793 6.39972C59.2661 6.20219 59.2596 6.04418 59.2596 5.92566V0Z"
          fill="white"/>
    <path d="M54.0383 5.32371H54.779C54.7263 5.64633 54.6078 5.93603 54.4235 6.19281C54.2457 6.44301 54.0087 6.64382 53.7124 6.79525C53.4227 6.9401 53.0869 7.01253 52.705 7.01253C52.2441 7.01253 51.8293 6.90389 51.4606 6.68662C51.0919 6.46276 50.7989 6.15989 50.5817 5.77802C50.371 5.38955 50.2656 4.94842 50.2656 4.45462C50.2656 3.96081 50.3677 3.51968 50.5718 3.13122C50.7825 2.74276 51.0689 2.4366 51.431 2.21274C51.7931 1.98888 52.2013 1.87695 52.6556 1.87695C53.1363 1.87695 53.5412 1.98559 53.8704 2.20286C54.2062 2.41356 54.4531 2.7263 54.6111 3.14109C54.7757 3.54931 54.8416 4.05299 54.8086 4.65214H51.0557C51.0886 4.97476 51.1775 5.25787 51.3224 5.50148C51.4672 5.74509 51.6582 5.93603 51.8952 6.0743C52.1322 6.20598 52.4022 6.27182 52.705 6.27182C53.0408 6.27182 53.3239 6.18623 53.5544 6.01504C53.7914 5.83727 53.9527 5.60683 54.0383 5.32371ZM52.6853 2.61766C52.2771 2.61766 51.9347 2.73617 51.6582 2.9732C51.3816 3.21023 51.1973 3.53285 51.1051 3.94106H53.9988C53.9725 3.50651 53.8309 3.17731 53.5741 2.95345C53.3239 2.72959 53.0276 2.61766 52.6853 2.61766Z"
          fill="white"/>
    <path d="M47.3906 1.97571H48.1807V6.91377H47.3906V1.97571ZM49.7609 2.71642C49.4251 2.71642 49.142 2.80202 48.9115 2.9732C48.6877 3.1378 48.5099 3.34191 48.3782 3.58552C48.2531 3.82255 48.1708 4.05299 48.1313 4.27685L48.1215 3.70403C48.1215 3.64478 48.1346 3.54602 48.161 3.40775C48.1873 3.26948 48.2367 3.11476 48.3091 2.94357C48.3815 2.7658 48.477 2.59791 48.5955 2.43989C48.7206 2.27529 48.8786 2.14032 49.0696 2.03497C49.2605 1.92963 49.4909 1.87695 49.7609 1.87695V2.71642Z"
          fill="white"/>
    <path d="M45.7102 5.32371H46.4509C46.3982 5.64633 46.2797 5.93603 46.0953 6.19281C45.9176 6.44301 45.6805 6.64382 45.3843 6.79525C45.0946 6.9401 44.7588 7.01253 44.3769 7.01253C43.916 7.01253 43.5012 6.90389 43.1325 6.68662C42.7638 6.46276 42.4708 6.15989 42.2535 5.77802C42.0428 5.38955 41.9375 4.94842 41.9375 4.45462C41.9375 3.96081 42.0396 3.51968 42.2437 3.13122C42.4543 2.74276 42.7408 2.4366 43.1029 2.21274C43.465 1.98888 43.8732 1.87695 44.3275 1.87695C44.8082 1.87695 45.2131 1.98559 45.5423 2.20286C45.8781 2.41356 46.125 2.7263 46.283 3.14109C46.4476 3.54931 46.5134 4.05299 46.4805 4.65214H42.7276C42.7605 4.97476 42.8494 5.25787 42.9942 5.50148C43.1391 5.74509 43.33 5.93603 43.5671 6.0743C43.8041 6.20598 44.074 6.27182 44.3769 6.27182C44.7127 6.27182 44.9958 6.18623 45.2262 6.01504C45.4633 5.83727 45.6246 5.60683 45.7102 5.32371ZM44.3571 2.61766C43.9489 2.61766 43.6066 2.73617 43.33 2.9732C43.0535 3.21023 42.8691 3.53285 42.777 3.94106H45.6707C45.6443 3.50651 45.5028 3.17731 45.246 2.95345C44.9958 2.72959 44.6995 2.61766 44.3571 2.61766Z"
          fill="white"/>
    <path d="M39.8085 6.19366L39.611 6.18378L40.7665 1.97656H41.6257L40.1146 6.91462H39.3739L37.9123 2.58888H38.1098L36.6481 6.91462H35.9074L34.4062 1.97656H35.2655L36.4012 6.18378L36.2037 6.19366L37.537 1.97656H38.495L39.8085 6.19366Z"
          fill="white"/>
    <path d="M31.7009 7.01253C31.2795 7.01253 30.8845 6.91048 30.5158 6.70637C30.1471 6.50226 29.8475 6.20927 29.617 5.8274C29.3932 5.43894 29.2812 4.98134 29.2812 4.45462C29.2812 3.92789 29.3932 3.47359 29.617 3.09171C29.8475 2.70325 30.1471 2.40368 30.5158 2.19299C30.8845 1.9823 31.2795 1.87695 31.7009 1.87695C32.1223 1.87695 32.514 1.9823 32.8762 2.19299C33.2449 2.40368 33.5411 2.70325 33.765 3.09171C33.9889 3.47359 34.1008 3.92789 34.1008 4.45462C34.1008 4.98134 33.9889 5.43894 33.765 5.8274C33.5411 6.20927 33.2449 6.50226 32.8762 6.70637C32.514 6.91048 32.1223 7.01253 31.7009 7.01253ZM31.7009 6.27182C31.9774 6.27182 32.2375 6.20269 32.4811 6.06442C32.7247 5.92616 32.9222 5.72205 33.0737 5.4521C33.2317 5.17557 33.3107 4.84308 33.3107 4.45462C33.3107 4.06616 33.2317 3.73695 33.0737 3.46701C32.9222 3.19048 32.7247 2.97979 32.4811 2.83494C32.2375 2.69009 31.9774 2.61766 31.7009 2.61766C31.4244 2.61766 31.161 2.69009 30.9108 2.83494C30.6672 2.9732 30.4664 3.1806 30.3084 3.45713C30.1503 3.72708 30.0713 4.05957 30.0713 4.45462C30.0713 4.84308 30.1471 5.17557 30.2985 5.4521C30.4565 5.72205 30.6606 5.92616 30.9108 6.06442C31.161 6.20269 31.4244 6.27182 31.7009 6.27182Z"
          fill="white"/>
    <path d="M24.6243 4.64211V3.9014H26.639C27.034 3.9014 27.3534 3.77959 27.597 3.53598C27.8472 3.28579 27.9723 2.96317 27.9723 2.56812C27.9723 2.15991 27.8472 1.83729 27.597 1.60026C27.3534 1.35665 27.034 1.23485 26.639 1.23485H24.7823V6.91361H23.9922V0.494141H26.639C26.9353 0.494141 27.2118 0.540229 27.4686 0.632406C27.7254 0.724583 27.9492 0.859557 28.1402 1.03733C28.3377 1.2151 28.4891 1.43237 28.5945 1.68915C28.7064 1.94593 28.7623 2.23892 28.7623 2.56812C28.7623 2.89733 28.7064 3.19032 28.5945 3.4471C28.4891 3.70388 28.3377 3.92115 28.1402 4.09892C27.9492 4.27669 27.7254 4.41166 27.4686 4.50384C27.2118 4.59602 26.9353 4.64211 26.639 4.64211H24.6243Z"
          fill="white"/>
    <path d="M17.9594 0C17.9721 0.271657 17.9898 0.4754 17.9898 0.679142C17.9898 5.33001 17.9822 9.97836 18 14.6292C18.0025 15.3486 17.7183 15.8617 17.2743 16.4101C16.2771 17.6376 15.0795 18.0375 13.4886 17.9973C9.26641 17.8916 5.03918 17.9621 0.811953 17.9621C0.56583 17.9621 0.317169 17.9621 0 17.9621C0 17.6803 0 17.4565 0 17.2351C0 12.0007 0 6.76627 0 1.53436C0 0.394909 0.398364 0 1.54779 0C6.78234 0 12.0169 0 17.2515 0C17.4621 0 17.6701 0 17.9594 0ZM11.7327 2.31663C11.545 2.28142 11.4485 2.2462 11.3521 2.2462C8.62193 2.24369 5.89173 2.23362 3.16154 2.24872C2.33944 2.25375 2.11108 2.64111 2.45869 3.38817C3.11587 4.80179 3.79081 6.20535 4.46067 7.61143C4.91232 8.55971 5.43755 8.65529 6.17845 7.9183C7.89878 6.20786 9.61657 4.4924 11.3318 2.77694C11.4561 2.65117 11.5627 2.51031 11.7327 2.31412V2.31663ZM8.3961 9.45266C8.37327 9.44008 8.31998 9.3948 8.2667 9.3948C6.50577 9.38977 4.74231 9.38474 2.98139 9.39229C2.40795 9.39229 2.23795 9.75953 2.24048 10.2601C2.24048 11.4247 2.24048 12.5918 2.24048 13.7564C2.24048 14.3475 2.24048 14.9411 2.24048 15.4492C4.29574 13.447 6.34592 11.4524 8.39864 9.45266H8.3961ZM7.16802 8.16229C7.20862 8.23523 7.25176 8.30566 7.29235 8.37861C7.95968 8.37861 8.627 8.41131 9.28925 8.361C9.53537 8.34339 9.81448 8.18241 9.99717 8.00634C11.8342 6.20535 13.656 4.38676 15.4804 2.5732C15.5362 2.51786 15.5667 2.4424 15.6149 2.36945C14.4147 1.97706 13.2501 2.23111 12.428 3.05111C12.0118 3.46363 11.6033 3.88369 11.1821 4.29117C9.84747 5.58406 8.50774 6.87191 7.16802 8.1648V8.16229Z"
          fill="white"/>
    <path d="M67.7529 17.3952H67.005L71.4211 10.498H73V18.1787H71.4211V12.5992L71.801 12.7061L68.2752 18.1787H66.5064L62.9807 12.7298L63.3606 12.623V18.1787H61.7817V10.498H63.3606L67.7529 17.3952Z"
          fill="white"/>
    <path d="M55.777 18.1787L52.3818 10.498H54.1269L57.0353 17.4308H56.4892L59.3858 10.498H61.1071L57.7476 18.1787H55.777Z"
          fill="white"/>
    <path d="M48.1089 9.90625H49.6521V18.1804H48.1089V9.90625Z" fill="white"/>
    <path d="M45.4609 16.2222H46.9566C46.8933 16.6258 46.7232 16.9859 46.4462 17.3025C46.1771 17.619 45.8091 17.8683 45.3422 18.0503C44.8752 18.2324 44.3054 18.3234 43.6327 18.3234C42.8809 18.3234 42.2161 18.2047 41.6384 17.9672C41.0606 17.7219 40.6095 17.3697 40.2851 16.9107C39.9606 16.4517 39.7983 15.8977 39.7983 15.2488C39.7983 14.5998 39.9566 14.0458 40.2732 13.5868C40.5897 13.1199 41.029 12.7637 41.5909 12.5184C42.1607 12.2731 42.8255 12.1504 43.5852 12.1504C44.3608 12.1504 45.0058 12.2731 45.5202 12.5184C46.0346 12.7637 46.4145 13.1357 46.6598 13.6343C46.9131 14.125 47.0199 14.7541 46.9804 15.5218H41.3535C41.393 15.8225 41.5038 16.0956 41.6858 16.3409C41.8758 16.5862 42.129 16.7801 42.4456 16.9226C42.7701 17.065 43.1539 17.1363 43.5971 17.1363C44.0878 17.1363 44.4953 17.0532 44.8198 16.887C45.1522 16.7129 45.3659 16.4913 45.4609 16.2222ZM43.514 13.3256C42.9442 13.3256 42.4812 13.4523 42.1251 13.7055C41.7689 13.9508 41.5394 14.2555 41.4366 14.6196H45.449C45.4094 14.2239 45.2195 13.9113 44.8792 13.6818C44.5468 13.4443 44.0917 13.3256 43.514 13.3256Z"
          fill="white"/>
    <path d="M38.8015 18.1792H37.2582V12.2793H38.8015V18.1792ZM37.3413 15.342L37.3532 15.7457C37.3374 15.8565 37.2978 16.0187 37.2345 16.2324C37.1712 16.4381 37.0723 16.6597 36.9377 16.8972C36.8111 17.1346 36.6449 17.3641 36.4391 17.5857C36.2334 17.7994 35.9801 17.9774 35.6794 18.1199C35.3786 18.2544 35.0225 18.3217 34.611 18.3217C34.2865 18.3217 33.966 18.2821 33.6494 18.203C33.3408 18.1238 33.0598 17.9933 32.8066 17.8112C32.5533 17.6213 32.3515 17.3681 32.2011 17.0515C32.0508 16.7349 31.9756 16.3353 31.9756 15.8525V12.2793H33.5188V15.5913C33.5188 15.9712 33.5782 16.272 33.6969 16.4935C33.8235 16.7072 34.0055 16.8576 34.243 16.9446C34.4804 17.0317 34.7613 17.0752 35.0858 17.0752C35.5132 17.0752 35.8812 16.9842 36.1898 16.8022C36.4985 16.6123 36.7478 16.3827 36.9377 16.1137C37.1356 15.8446 37.2701 15.5874 37.3413 15.342Z"
          fill="white"/>
    <path d="M31.4751 10.498V11.8157H25.5632V13.8813H30.4067V15.1159H25.5632V18.1787H23.9844V10.498H31.4751Z"
          fill="white"/>
</svg>
