<svg width="72" height="17" viewBox="0 0 72 17" fill="none" xmlns="http://www.w3.org/2000/svg">
<path d="M65.3974 16.1365H64.7752L68.4491 10.3984H69.7626V16.7883H68.4491V12.1465L68.7651 12.2354L65.8319 16.7883H64.3604L61.4272 12.2551L61.7432 12.1663V16.7883H60.4297V10.3984H61.7432L65.3974 16.1365Z" fill="white"/>
<path d="M55.4339 16.7883L52.6094 10.3984H54.0612L56.4808 16.1661H56.0265L58.4363 10.3984H59.8683L57.0734 16.7883H55.4339Z" fill="white"/>
<path d="M47.0166 14.1217V15.692H51.9448V16.7883H45.7031V10.3984H51.9349V11.4947H47.0166V13.0847H51.0461V14.1217H47.0166Z" fill="white"/>
<path d="M43.0547 9.90625H44.3386V16.7899H43.0547V9.90625Z" fill="white"/>
<path d="M40.8515 15.1609H42.0959C42.0432 15.4967 41.9017 15.7963 41.6712 16.0597C41.4474 16.323 41.1412 16.5304 40.7528 16.6819C40.3643 16.8333 39.8903 16.909 39.3306 16.909C38.7051 16.909 38.1521 16.8103 37.6714 16.6127C37.1908 16.4086 36.8155 16.1156 36.5455 15.7338C36.2756 15.3519 36.1406 14.891 36.1406 14.3511C36.1406 13.8112 36.2723 13.3503 36.5357 12.9684C36.799 12.58 37.1644 12.2837 37.6319 12.0796C38.106 11.8755 38.659 11.7734 39.2911 11.7734C39.9363 11.7734 40.4729 11.8755 40.9009 12.0796C41.3289 12.2837 41.6449 12.5932 41.849 13.008C42.0597 13.4162 42.1486 13.9396 42.1157 14.5783H37.4344C37.4673 14.8284 37.5595 15.0556 37.7109 15.2597C37.8689 15.4638 38.0796 15.6251 38.343 15.7436C38.6129 15.8621 38.9323 15.9214 39.301 15.9214C39.7092 15.9214 40.0483 15.8523 40.3182 15.714C40.5947 15.5692 40.7725 15.3848 40.8515 15.1609ZM39.2318 12.7512C38.7578 12.7512 38.3726 12.8565 38.0763 13.0672C37.7801 13.2713 37.5891 13.5248 37.5035 13.8277H40.8417C40.8087 13.4985 40.6507 13.2384 40.3676 13.0475C40.0911 12.8499 39.7125 12.7512 39.2318 12.7512Z" fill="white"/>
<path d="M35.3116 16.7893H34.0277V11.8809H35.3116V16.7893ZM34.0968 14.4289L34.1067 14.7647C34.0935 14.8569 34.0606 14.9918 34.0079 15.1696C33.9553 15.3408 33.873 15.5251 33.761 15.7227C33.6557 15.9202 33.5174 16.1111 33.3462 16.2955C33.175 16.4732 32.9644 16.6214 32.7142 16.7399C32.464 16.8518 32.1677 16.9078 31.8253 16.9078C31.5554 16.9078 31.2887 16.8749 31.0253 16.809C30.7686 16.7432 30.5348 16.6346 30.3241 16.4831C30.1134 16.3251 29.9456 16.1144 29.8205 15.8511C29.6954 15.5877 29.6328 15.2552 29.6328 14.8536V11.8809H30.9167V14.6363C30.9167 14.9523 30.9661 15.2025 31.0648 15.3869C31.1702 15.5646 31.3216 15.6897 31.5191 15.7622C31.7167 15.8346 31.9504 15.8708 32.2204 15.8708C32.5759 15.8708 32.8821 15.7951 33.1388 15.6437C33.3956 15.4856 33.603 15.2947 33.761 15.0708C33.9256 14.847 34.0376 14.633 34.0968 14.4289Z" fill="white"/>
<path d="M29.2162 10.3984V11.4947H24.2979V13.2131H28.3273V14.2402H24.2979V16.7883H22.9844V10.3984H29.2162Z" fill="white"/>
<path d="M67.4062 1.97656H68.2556L70.0234 6.71709L69.3321 6.91462L67.4062 1.97656ZM71.9986 1.97656L69.2432 8.88984H68.384L69.579 6.22329L71.1592 1.97656H71.9986Z" fill="white"/>
<path d="M64.9534 7.01204C64.5913 7.01204 64.295 6.92973 64.0646 6.76513C63.8341 6.59395 63.653 6.37667 63.5214 6.11331C63.3963 5.84336 63.3074 5.56354 63.2547 5.27384C63.202 4.97756 63.1757 4.70432 63.1757 4.45412C63.1757 4.09858 63.1987 3.76609 63.2448 3.45664C63.2975 3.14719 63.3864 2.87395 63.5115 2.63692C63.6366 2.39989 63.8144 2.21554 64.0448 2.08386C64.2818 1.94559 64.5847 1.87646 64.9534 1.87646C65.3682 1.87646 65.7369 1.98839 66.0595 2.21225C66.3821 2.43611 66.6356 2.74227 66.82 3.13073C67.0043 3.51919 67.0965 3.96032 67.0965 4.45412C67.0965 4.94793 67.001 5.38906 66.8101 5.77752C66.6192 6.1594 66.3624 6.46227 66.0398 6.68612C65.7172 6.9034 65.355 7.01204 64.9534 7.01204ZM64.7559 6.26145C65.0587 6.26145 65.3254 6.18573 65.5558 6.0343C65.7863 5.87628 65.9673 5.6623 66.099 5.39235C66.2373 5.11582 66.3064 4.80308 66.3064 4.45412C66.3064 3.9274 66.1715 3.49285 65.9015 3.15048C65.6316 2.80152 65.2497 2.62704 64.7559 2.62704C64.4267 2.62704 64.1501 2.70605 63.9263 2.86407C63.709 3.0155 63.5444 3.22949 63.4325 3.50602C63.3271 3.77596 63.2745 4.092 63.2745 4.45412C63.2745 4.78333 63.3271 5.08619 63.4325 5.36273C63.5444 5.63267 63.709 5.84995 63.9263 6.01455C64.1436 6.17915 64.4201 6.26145 64.7559 6.26145ZM63.2745 0V5.92566C63.2745 6.04418 63.2646 6.20219 63.2448 6.39972C63.2317 6.59724 63.2185 6.76842 63.2053 6.91327H62.4844V0H63.2745Z" fill="white"/>
<path d="M56.5806 7.01204C56.1856 7.01204 55.8234 6.9034 55.4942 6.68612C55.1716 6.46227 54.9148 6.1594 54.7239 5.77752C54.533 5.38906 54.4375 4.94793 54.4375 4.45412C54.4375 3.96032 54.5297 3.51919 54.714 3.13073C54.8984 2.74227 55.1519 2.43611 55.4745 2.21225C55.7971 1.98839 56.1658 1.87646 56.5806 1.87646C56.9493 1.87646 57.2489 1.94559 57.4793 2.08386C57.7164 2.21554 57.8974 2.39989 58.0225 2.63692C58.1476 2.87395 58.2332 3.14719 58.2793 3.45664C58.332 3.76609 58.3583 4.09858 58.3583 4.45412C58.3583 4.70432 58.332 4.97756 58.2793 5.27384C58.2266 5.56354 58.1345 5.84336 58.0028 6.11331C57.8777 6.37667 57.6999 6.59395 57.4695 6.76513C57.239 6.92973 56.9427 7.01204 56.5806 7.01204ZM56.7781 6.26145C57.1139 6.26145 57.3905 6.17915 57.6077 6.01455C57.8316 5.84995 57.9962 5.63267 58.1015 5.36273C58.2069 5.08619 58.2596 4.78333 58.2596 4.45412C58.2596 4.092 58.2036 3.77596 58.0917 3.50602C57.9863 3.22949 57.8217 3.0155 57.5979 2.86407C57.3806 2.70605 57.1073 2.62704 56.7781 2.62704C56.2843 2.62704 55.9025 2.80152 55.6325 3.15048C55.3626 3.49285 55.2276 3.9274 55.2276 4.45412C55.2276 4.80308 55.2934 5.11582 55.4251 5.39235C55.5634 5.6623 55.7477 5.87628 55.9782 6.0343C56.2152 6.18573 56.4819 6.26145 56.7781 6.26145ZM58.2596 0H59.0496V6.91327H58.3287C58.3155 6.76842 58.2991 6.59724 58.2793 6.39972C58.2661 6.20219 58.2596 6.04418 58.2596 5.92566V0Z" fill="white"/>
<path d="M53.0383 5.32371H53.779C53.7263 5.64633 53.6078 5.93603 53.4235 6.19281C53.2457 6.44301 53.0087 6.64382 52.7124 6.79525C52.4227 6.9401 52.0869 7.01253 51.705 7.01253C51.2441 7.01253 50.8293 6.90389 50.4606 6.68662C50.0919 6.46276 49.7989 6.15989 49.5817 5.77802C49.371 5.38955 49.2656 4.94842 49.2656 4.45462C49.2656 3.96081 49.3677 3.51968 49.5718 3.13122C49.7825 2.74276 50.0689 2.4366 50.431 2.21274C50.7931 1.98888 51.2013 1.87695 51.6556 1.87695C52.1363 1.87695 52.5412 1.98559 52.8704 2.20286C53.2062 2.41356 53.4531 2.7263 53.6111 3.14109C53.7757 3.54931 53.8416 4.05299 53.8086 4.65214H50.0557C50.0886 4.97476 50.1775 5.25787 50.3224 5.50148C50.4672 5.74509 50.6582 5.93603 50.8952 6.0743C51.1322 6.20598 51.4022 6.27182 51.705 6.27182C52.0408 6.27182 52.3239 6.18623 52.5544 6.01504C52.7914 5.83727 52.9527 5.60683 53.0383 5.32371ZM51.6853 2.61766C51.2771 2.61766 50.9347 2.73617 50.6582 2.9732C50.3816 3.21023 50.1973 3.53285 50.1051 3.94106H52.9988C52.9725 3.50651 52.8309 3.17731 52.5741 2.95345C52.3239 2.72959 52.0276 2.61766 51.6853 2.61766Z" fill="white"/>
<path d="M46.3906 1.97571H47.1807V6.91377H46.3906V1.97571ZM48.7609 2.71642C48.4251 2.71642 48.142 2.80202 47.9115 2.9732C47.6877 3.1378 47.5099 3.34191 47.3782 3.58552C47.2531 3.82255 47.1708 4.05299 47.1313 4.27685L47.1215 3.70403C47.1215 3.64478 47.1346 3.54602 47.161 3.40775C47.1873 3.26948 47.2367 3.11476 47.3091 2.94357C47.3815 2.7658 47.477 2.59791 47.5955 2.43989C47.7206 2.27529 47.8786 2.14032 48.0696 2.03497C48.2605 1.92963 48.4909 1.87695 48.7609 1.87695V2.71642Z" fill="white"/>
<path d="M44.7102 5.32371H45.4509C45.3982 5.64633 45.2797 5.93603 45.0953 6.19281C44.9176 6.44301 44.6805 6.64382 44.3843 6.79525C44.0946 6.9401 43.7588 7.01253 43.3769 7.01253C42.916 7.01253 42.5012 6.90389 42.1325 6.68662C41.7638 6.46276 41.4708 6.15989 41.2535 5.77802C41.0428 5.38955 40.9375 4.94842 40.9375 4.45462C40.9375 3.96081 41.0396 3.51968 41.2437 3.13122C41.4543 2.74276 41.7408 2.4366 42.1029 2.21274C42.465 1.98888 42.8732 1.87695 43.3275 1.87695C43.8082 1.87695 44.2131 1.98559 44.5423 2.20286C44.8781 2.41356 45.125 2.7263 45.283 3.14109C45.4476 3.54931 45.5134 4.05299 45.4805 4.65214H41.7276C41.7605 4.97476 41.8494 5.25787 41.9942 5.50148C42.1391 5.74509 42.33 5.93603 42.5671 6.0743C42.8041 6.20598 43.074 6.27182 43.3769 6.27182C43.7127 6.27182 43.9958 6.18623 44.2262 6.01504C44.4633 5.83727 44.6246 5.60683 44.7102 5.32371ZM43.3571 2.61766C42.9489 2.61766 42.6066 2.73617 42.33 2.9732C42.0535 3.21023 41.8691 3.53285 41.777 3.94106H44.6707C44.6443 3.50651 44.5028 3.17731 44.246 2.95345C43.9958 2.72959 43.6995 2.61766 43.3571 2.61766Z" fill="white"/>
<path d="M38.8085 6.19366L38.611 6.18378L39.7665 1.97656H40.6257L39.1146 6.91462H38.3739L36.9123 2.58888H37.1098L35.6481 6.91462H34.9074L33.4062 1.97656H34.2655L35.4012 6.18378L35.2037 6.19366L36.537 1.97656H37.495L38.8085 6.19366Z" fill="white"/>
<path d="M30.7009 7.01253C30.2795 7.01253 29.8845 6.91048 29.5158 6.70637C29.1471 6.50226 28.8475 6.20927 28.617 5.8274C28.3932 5.43894 28.2812 4.98134 28.2812 4.45462C28.2812 3.92789 28.3932 3.47359 28.617 3.09171C28.8475 2.70325 29.1471 2.40368 29.5158 2.19299C29.8845 1.9823 30.2795 1.87695 30.7009 1.87695C31.1223 1.87695 31.514 1.9823 31.8762 2.19299C32.2449 2.40368 32.5411 2.70325 32.765 3.09171C32.9889 3.47359 33.1008 3.92789 33.1008 4.45462C33.1008 4.98134 32.9889 5.43894 32.765 5.8274C32.5411 6.20927 32.2449 6.50226 31.8762 6.70637C31.514 6.91048 31.1223 7.01253 30.7009 7.01253ZM30.7009 6.27182C30.9774 6.27182 31.2375 6.20269 31.4811 6.06442C31.7247 5.92616 31.9222 5.72205 32.0737 5.4521C32.2317 5.17557 32.3107 4.84308 32.3107 4.45462C32.3107 4.06616 32.2317 3.73695 32.0737 3.46701C31.9222 3.19048 31.7247 2.97979 31.4811 2.83494C31.2375 2.69009 30.9774 2.61766 30.7009 2.61766C30.4244 2.61766 30.161 2.69009 29.9108 2.83494C29.6672 2.9732 29.4664 3.1806 29.3084 3.45713C29.1503 3.72708 29.0713 4.05957 29.0713 4.45462C29.0713 4.84308 29.1471 5.17557 29.2985 5.4521C29.4565 5.72205 29.6606 5.92616 29.9108 6.06442C30.161 6.20269 30.4244 6.27182 30.7009 6.27182Z" fill="white"/>
<path d="M23.6243 4.64211V3.9014H25.639C26.034 3.9014 26.3534 3.77959 26.597 3.53598C26.8472 3.28579 26.9723 2.96317 26.9723 2.56812C26.9723 2.15991 26.8472 1.83729 26.597 1.60026C26.3534 1.35665 26.034 1.23485 25.639 1.23485H23.7823V6.91361H22.9922V0.494141H25.639C25.9353 0.494141 26.2118 0.540229 26.4686 0.632406C26.7254 0.724583 26.9492 0.859557 27.1402 1.03733C27.3377 1.2151 27.4891 1.43237 27.5945 1.68915C27.7064 1.94593 27.7623 2.23892 27.7623 2.56812C27.7623 2.89733 27.7064 3.19032 27.5945 3.4471C27.4891 3.70388 27.3377 3.92115 27.1402 4.09892C26.9492 4.27669 26.7254 4.41166 26.4686 4.50384C26.2118 4.59602 25.9353 4.64211 25.639 4.64211H23.6243Z" fill="white"/>
<path d="M16.9616 0.196899C16.9736 0.450493 16.9904 0.640687 16.9904 0.830882C16.9904 5.17249 16.9832 9.51175 17 13.8534C17.0024 14.5249 16.734 15.0039 16.3146 15.5158C15.3728 16.6617 14.2417 17.035 12.7392 16.9974C8.75161 16.8988 4.75923 16.9646 0.766844 16.9646C0.534395 16.9646 0.299549 16.9646 0 16.9646C0 16.7016 0 16.4926 0 16.286C0 11.3996 0 6.51325 0 1.62923C0 0.565549 0.376233 0.196899 1.4618 0.196899C6.40555 0.196899 11.3493 0.196899 16.293 0.196899C16.4919 0.196899 16.6885 0.196899 16.9616 0.196899ZM11.0809 2.35949C10.9036 2.32661 10.8125 2.29374 10.7214 2.29374C8.14293 2.29139 5.56441 2.282 2.9859 2.29609C2.20947 2.30078 1.9938 2.66239 2.3221 3.35977C2.94277 4.67939 3.5802 5.98962 4.21285 7.3022C4.63941 8.18743 5.13546 8.27666 5.83521 7.58867C7.45996 5.99197 9.08231 4.39058 10.7023 2.78918C10.8197 2.67178 10.9203 2.54029 11.0809 2.35714V2.35949ZM7.92965 9.021C7.90808 9.00926 7.85776 8.967 7.80744 8.967C6.14434 8.9623 4.47885 8.9576 2.81576 8.96465C2.27417 8.96465 2.11362 9.30747 2.11601 9.77474C2.11601 10.8619 2.11601 11.9514 2.11601 13.0386C2.11601 13.5904 2.11601 14.1445 2.11601 14.6188C4.05709 12.7498 5.99337 10.8877 7.93205 9.021H7.92965ZM6.7698 7.81643C6.80814 7.88453 6.84888 7.95028 6.88722 8.01837C7.51747 8.01837 8.14772 8.0489 8.77318 8.00193C9.00563 7.9855 9.26923 7.83522 9.44177 7.67085C11.1768 5.98962 12.8974 4.29196 14.6204 2.59899C14.6731 2.54733 14.7018 2.47689 14.7474 2.4088C13.6139 2.04249 12.5139 2.27965 11.7375 3.04513C11.3445 3.43021 10.9587 3.82234 10.5609 4.20273C9.30039 5.40965 8.03509 6.61187 6.7698 7.81878V7.81643Z" fill="white"/>
</svg>
