<svg width="24" height="24" viewBox="0 0 24 24" fill="none" xmlns="http://www.w3.org/2000/svg">
<g clip-path="url(#clip0_292_13322)">
<path fill-rule="evenodd" clip-rule="evenodd" d="M12 0.25C5.37423 0.25 0 5.62423 0 12.25C0 17.5506 3.46012 22.0414 8.17178 23.661C8.76074 23.7347 8.9816 23.3666 8.9816 23.0721C8.9816 22.7776 8.9816 22.0414 8.9816 21.0107C5.66871 21.7469 4.93252 19.3911 4.93252 19.3911C4.41718 17.9923 3.60736 17.6242 3.60736 17.6242C2.50307 16.888 3.68098 16.888 3.68098 16.888C4.8589 16.9617 5.52147 18.1396 5.52147 18.1396C6.62577 19.9801 8.31902 19.4647 8.9816 19.1702C9.05522 18.3604 9.42331 17.8451 9.71779 17.5506C7.06749 17.2561 4.26994 16.2255 4.26994 11.5874C4.26994 10.2623 4.71166 9.2316 5.52147 8.34816C5.44785 8.1273 5.00614 6.87577 5.66871 5.25614C5.66871 5.25614 6.69939 4.96166 8.9816 6.50767C9.93865 6.21319 10.9693 6.13957 12 6.13957C13.0307 6.13957 14.0614 6.28681 15.0184 6.50767C17.3006 4.96166 18.3313 5.25614 18.3313 5.25614C18.9939 6.87577 18.5521 8.1273 18.4785 8.42178C19.2147 9.2316 19.7301 10.3359 19.7301 11.661C19.7301 16.2991 16.9325 17.2561 14.2822 17.5506C14.7239 17.9187 15.092 18.6549 15.092 19.7592C15.092 21.3788 15.092 22.6304 15.092 23.0721C15.092 23.3666 15.3129 23.7347 15.9018 23.661C20.6871 22.0414 24.0736 17.5506 24.0736 12.25C24 5.62423 18.6258 0.25 12 0.25Z" fill="#E5E5E5"/>
</g>
<defs>
<clipPath id="clip0_292_13322">
<rect width="24" height="23.411" fill="white" transform="translate(0 0.25)"/>
</clipPath>
</defs>
</svg>
