<svg width="124" height="35" viewBox="0 0 124 35" fill="none" xmlns="http://www.w3.org/2000/svg">
<path fill-rule="evenodd" clip-rule="evenodd" d="M16.7087 11.8177V0H18.0025V11.8177H16.7087ZM74.935 26.0326C74.7012 25.408 74.3939 25.209 73.6835 25.3785H73.6854C73.6854 25.8241 73.6833 26.2672 73.6813 26.7086V26.7095C73.6754 27.9997 73.6696 29.2743 73.7148 30.5467C73.7259 30.8489 74.0571 31.2284 74.3424 31.4164C77.3568 33.3934 80.6657 34.2888 84.2802 34.1414C87.3553 34.0143 89.9557 32.9383 92.0114 30.6094C94.1333 28.2049 94.4167 24.1717 92.5948 21.5369C91.3323 19.711 89.457 18.6848 87.5155 17.7635C86.7282 17.3899 85.9369 17.0243 85.1456 16.6586C83.6228 15.955 82.1 15.2515 80.6068 14.4913C75.7944 12.0426 76.2453 6.62382 78.9469 4.18436C80.4173 2.85777 82.2024 2.34187 84.1532 2.29397C86.645 2.23317 88.9031 2.82829 90.5318 4.82923C90.9616 5.35752 91.2868 5.96954 91.6128 6.58311C91.8142 6.9623 92.0163 7.34255 92.2433 7.70352C92.3639 7.89474 92.56 8.03958 92.7561 8.18437C92.8472 8.25163 92.9382 8.31888 93.0217 8.39077C93.0682 8.29546 93.1257 8.20051 93.1833 8.10548C93.3105 7.89553 93.438 7.68514 93.4468 7.46952C93.4984 6.21663 93.5002 4.96005 93.4542 3.70716C93.4413 3.4013 93.2573 2.94621 93.0199 2.82829C88.846 0.761016 84.5268 -0.158387 80.0143 1.62146C74.2724 3.88404 72.9253 10.8652 77.4691 14.9924C78.6311 16.0497 80.0906 16.8183 81.4983 17.5595L81.5289 17.5756C82.6117 18.1468 83.7201 18.6706 84.8283 19.1943C86.1328 19.8108 87.4371 20.4272 88.6988 21.1205C92.8929 23.4255 92.1991 28.6895 89.1534 30.8913C86.5677 32.7614 83.7483 33.1188 80.7504 32.1644C77.701 31.1934 76.0005 28.8866 74.935 26.0326ZM71.0758 17.2716V18.0713C71.019 18.0895 70.9617 18.1103 70.9037 18.1313C70.7737 18.1786 70.6403 18.227 70.5016 18.25C68.8858 18.5153 68.2362 18.9391 68.1828 21.2514C68.1129 24.2805 68.1441 27.3113 68.1828 30.3422C68.192 31.0129 67.9877 31.3943 67.3933 31.702C60.862 35.0848 54.3049 35.2525 47.9152 31.5141C44.0358 29.2423 41.9378 25.5849 41.1373 21.1703C40.4545 17.4116 40.7987 13.7783 42.4439 10.3236C44.7131 5.55891 48.5446 2.66067 53.6055 1.39672C58.8873 0.0793427 64.0384 0.604452 69.0017 2.83939C69.2594 2.95547 69.6035 3.25764 69.6109 3.48242C69.6512 4.70161 69.6464 5.92184 69.6416 7.13996C69.64 7.53629 69.6385 7.9324 69.6385 8.32817C68.9171 8.55848 68.5619 8.37792 68.2674 7.70541C66.7418 4.22863 63.95 2.62198 60.2418 2.35113C56.6881 2.09134 53.3276 2.63672 50.258 4.52896C46.4209 6.89471 44.2051 10.3494 43.5444 14.7769C42.939 18.8377 43.4193 22.7457 45.7013 26.2593C48.1287 29.994 51.6566 31.936 56.0513 32.4998C59.1873 32.9033 62.1668 32.4482 65.0855 31.3317C65.7131 31.0921 66.002 30.7697 65.9854 30.0088C65.9455 28.2632 65.9494 26.517 65.9534 24.771V24.7702C65.9558 23.7005 65.9582 22.6304 65.9505 21.5609C65.9468 20.9861 65.8824 20.3983 65.7388 19.8419C65.4646 18.7806 64.5389 18.5485 63.628 18.3587C63.2584 18.2821 62.8836 18.233 62.4936 18.1818C62.3205 18.1591 62.1443 18.136 61.9643 18.11V17.2698H71.074L71.0758 17.2716ZM124 33.6714L123.996 33.6724L119.863 29.4144C115.937 25.3682 112.043 21.3562 108.111 17.3027C110.919 17.0521 113.492 16.5639 115.752 15.0236C119.848 12.2322 120.189 6.82448 116.414 3.64618C114.029 1.63787 111.09 1.19751 108.123 1.09802C105.849 1.02121 103.571 1.03957 101.294 1.05793C100.293 1.066 99.2928 1.07406 98.2924 1.07406H97.433C97.214 1.8129 97.3428 2.11507 98.0918 2.20535C99.2844 2.34722 100 3.15055 100.125 4.32237C100.21 5.11096 100.263 5.90691 100.263 6.69919C100.273 13.9236 100.271 21.1462 100.265 28.3706C100.265 28.8883 100.232 29.4097 100.179 29.9256C99.9229 32.3946 99.8493 32.4683 97.352 32.9307V33.7101H105.437V32.9473C102.943 32.494 102.54 31.9892 102.54 29.4134C102.541 27.2514 102.539 25.0893 102.537 22.9273C102.536 21.8447 102.535 20.7621 102.534 19.6795V17.3377C104.088 17.0116 105.212 17.3175 106.322 18.5132C108.266 20.6078 110.252 22.663 112.239 24.7181L112.239 24.7186L112.242 24.7215C114.591 27.152 116.941 29.5824 119.219 32.0776C120.509 33.4908 121.817 34.0215 123.593 33.7635C123.63 33.7577 123.667 33.749 123.762 33.7269C123.816 33.714 123.891 33.6965 123.996 33.6724L123.996 33.6732L124 33.6714ZM102.61 2.65492V15.5781C103.176 15.5781 103.737 15.5791 104.294 15.58C105.792 15.5826 107.262 15.5851 108.733 15.5689C109.246 15.5634 109.765 15.4915 110.267 15.3884C112.334 14.9628 114.29 14.2866 115.566 12.4662C117.312 9.96961 117.176 5.13123 112.491 3.46009C110.102 2.60895 107.658 2.63632 105.2 2.66383C104.337 2.67348 103.473 2.68315 102.61 2.65492ZM7.86247 2.69591C8.05118 2.5698 8.24258 2.44189 8.46221 2.29592C9.61134 4.07767 10.7563 5.85418 11.9054 7.6372C12.9095 9.19515 13.9167 10.7581 14.9328 12.3338C14.6274 12.5367 14.3543 12.717 14.0468 12.92L13.7513 13.115C11.5889 9.75984 9.46335 6.46363 7.28256 3.0845V3.08266C7.4896 2.94508 7.67429 2.82166 7.8616 2.69649L7.86247 2.69591ZM1.37667 10.1854C1.29198 10.3761 1.20451 10.573 1.10456 10.7969H1.1064L5.19863 12.6627C7.46473 13.6959 9.72075 14.7244 11.9883 15.7587C12.0939 15.5168 12.1908 15.2962 12.2884 15.0737C12.3745 14.8777 12.4612 14.6802 12.5551 14.4653C8.89836 12.7979 5.30971 11.1617 1.67874 9.50718C1.57148 9.74682 1.47597 9.96184 1.37667 10.1854ZM34.8526 19.2337L34.8307 19.3973C34.7737 19.8251 34.7289 20.1606 34.6667 20.6229C32.693 20.3402 30.7248 20.058 28.7567 19.7758C26.7865 19.4933 24.8164 19.2108 22.8407 18.9278C22.8734 18.6483 22.9018 18.4117 22.9323 18.1584C22.955 17.9693 22.9788 17.7709 23.0064 17.5386L26.9407 18.1017C29.561 18.4767 32.1909 18.8531 34.8526 19.2337ZM22.776 15.7525L22.7763 15.7532H22.7745L22.776 15.7525ZM22.776 15.7525C22.6109 15.395 22.4642 15.079 22.2968 14.7187L22.18 14.4672L25.4936 12.9569C27.9992 11.815 30.5013 10.6746 33.0288 9.52193C33.2221 9.92592 33.3888 10.2767 33.5836 10.6868L33.6343 10.7933C30.0056 12.4513 26.4156 14.0909 22.776 15.7525ZM31.1001 28.3799C30.9328 28.5743 30.7763 28.7569 30.6139 28.9463C30.4762 29.1069 30.3343 29.2723 30.1781 29.4541L29.9482 29.2551C26.9995 26.7031 24.0872 24.1827 21.1329 21.6272C21.3516 21.3845 21.5399 21.1743 21.7249 20.9679L21.7263 20.9664C21.8428 20.8363 21.9581 20.7077 22.0788 20.5733L24.2935 22.4898C26.5631 24.4539 28.8169 26.4043 31.1001 28.3799ZM22.4001 34.2286C22.5895 34.1785 22.7858 34.1266 23.0026 34.0694V34.0676L21.8541 30.1569C21.1136 27.6353 20.381 25.1406 19.6404 22.6202C19.3409 22.7053 19.0757 22.78 18.8064 22.8558L18.8039 22.8565C18.6373 22.9035 18.4686 22.951 18.2895 23.0016C18.9902 25.3975 19.683 27.7631 20.3786 30.1386L20.3872 30.168C20.8014 31.5825 21.2167 33.0005 21.6353 34.4305C21.9007 34.3607 22.1442 34.2963 22.4001 34.2286ZM26.2711 2.31787L26.2718 2.31835C26.6856 2.57607 27.0167 2.78235 27.4618 3.05855C25.3086 6.41372 23.1793 9.73205 21.0096 13.1167L20.935 13.068C20.5396 12.8097 20.2069 12.5924 19.817 12.3392C21.2789 10.069 22.7331 7.81165 24.2024 5.53095L26.2711 2.31971V2.31787ZM4.19904 29.043L4.54045 29.4798H4.54229L7.63696 26.7967C9.64536 25.0555 11.636 23.3297 13.6501 21.5828C13.4617 21.3961 13.2909 21.2275 13.1216 21.0605C12.9668 20.9077 12.8133 20.7563 12.6489 20.5934L9.24496 23.5429C7.38894 25.151 5.53876 26.754 3.67365 28.3706C3.86072 28.6104 4.02446 28.8198 4.19904 29.043ZM15.115 22.6184L15.458 22.7202C15.7946 22.8201 16.1073 22.9129 16.4658 23.0182C15.7649 25.4059 15.0691 27.7776 14.3706 30.1585L13.1274 34.3956C12.8991 34.3403 12.6836 34.2882 12.4614 34.2345L11.7564 34.0639C12.3188 32.1462 12.8775 30.2427 13.4362 28.3393C13.9946 26.4371 14.5529 24.5349 15.115 22.6184ZM11.3051 17.6006C7.52269 18.1452 3.78621 18.6831 0.0151019 19.2245C-0.0474694 20.5511 0.0500683 20.6562 0.973914 20.5217C2.14967 20.3513 3.32583 20.1861 4.50201 20.0209C5.8572 19.8306 7.21242 19.6402 8.56712 19.442C9.3472 19.3282 10.1246 19.1949 10.9154 19.0594C11.2644 18.9995 11.6161 18.9392 11.9717 18.88C11.8738 18.4597 11.7974 18.1363 11.7175 17.798L11.6589 17.5497L11.3051 17.6006ZM1.36658 24.3893C1.50632 24.7085 1.6394 25.0126 1.79651 25.3731H1.79835C3.08073 24.7813 4.33432 24.2032 5.58531 23.6264L5.68731 23.5793C6.78994 23.0708 7.89111 22.563 9.00876 22.0474C8.7732 21.5941 8.57629 21.2146 8.35361 20.7834C7.09512 21.3647 5.86626 21.9317 4.6435 22.4958L4.64119 22.4969L4.5648 22.5322C3.45376 23.0448 2.34733 23.5553 1.22785 24.0723L1.36658 24.3893ZM30.5123 5.79012C30.7071 6.01698 30.8917 6.23206 31.1093 6.48725C29.1181 8.20629 27.1544 9.90323 25.1282 11.6554L24.8614 11.3494C24.6412 11.0969 24.4361 10.8617 24.2044 10.5978L24.8211 10.0632C26.6087 8.51372 28.3648 6.99149 30.1873 5.41308V5.41124C30.3007 5.54359 30.4052 5.66527 30.5067 5.78361L30.5123 5.79012ZM26.0767 21.6387C26.0103 21.7828 25.9424 21.9305 25.8681 22.0916H25.8699C27.5615 22.8631 29.2045 23.6117 30.8589 24.3654L33.0785 25.3767L33.2474 24.9649L33.2483 24.9629C33.3742 24.6559 33.4919 24.3689 33.6177 24.0631C31.194 22.9649 28.8549 21.9037 26.457 20.8147C26.3163 21.118 26.1995 21.3717 26.0772 21.6375L26.0767 21.6387ZM7.81063 16.0918C7.77775 16.2873 7.74196 16.5001 7.70216 16.7391C7.07974 16.6531 6.46674 16.5679 5.85956 16.4835C4.87975 16.3474 3.91509 16.2133 2.95043 16.0813C2.70087 16.0474 2.45009 16.0189 2.19932 15.9903C1.6328 15.9259 1.06616 15.8614 0.513832 15.7349C0.291152 15.6834 0.00774084 15.2596 0.0151022 15.0145C0.0224635 14.7713 0.39053 14.3144 0.550638 14.3347C2.62309 14.6048 4.68861 14.9207 6.75442 15.2367L6.76411 15.2382C7.07617 15.2859 7.38823 15.3336 7.70032 15.3812C7.73195 15.3857 7.76011 15.4097 7.80311 15.4462C7.83016 15.4693 7.86309 15.4973 7.90644 15.5286L7.9046 15.5304C7.8756 15.7056 7.84465 15.8896 7.81063 16.0918ZM9.64971 28.1544C10.2846 27.1728 10.9232 26.1847 11.5742 25.1777L12.7612 25.9276C11.9814 27.1395 11.2127 28.3354 10.4392 29.5385C9.79804 30.5359 9.15366 31.5382 8.49719 32.5588C8.15411 32.3451 7.83277 32.1436 7.47131 31.917L7.28993 31.8033C8.08045 30.5805 8.86194 29.3723 9.64971 28.1544ZM11.7496 0.779384L12.5258 3.42009C13.0141 5.08111 13.4973 6.7249 13.9869 8.39083L14.0678 8.36499C14.5466 8.21198 14.9153 8.09418 15.3285 7.96153L14.6189 5.5536C14.1145 3.84219 13.6192 2.1618 13.1164 0.455225C12.9232 0.500923 12.7457 0.543158 12.5669 0.585705L12.5662 0.58587C12.3128 0.64616 12.0567 0.707085 11.7496 0.779384ZM20.2935 8.23285L20.7648 8.3686V8.37044C21.2061 6.87754 21.6379 5.41536 22.0651 3.96891C22.3702 2.93577 22.673 1.91065 22.9751 0.888087C21.7108 0.302175 21.639 0.331655 21.3132 1.49058C21.2775 1.61652 21.242 1.7427 21.2065 1.86894C21.1432 2.09362 21.0799 2.31851 21.0151 2.54264C20.5671 4.08568 20.1177 5.63006 19.6612 7.19901L19.4324 7.98536C19.7382 8.07281 20.0055 8.14985 20.2935 8.23285ZM3.6626 6.5095L3.67597 6.49324C3.96152 6.14583 4.22361 5.82697 4.55884 5.42059C5.59256 6.31323 6.61506 7.19562 7.64141 8.08133C8.60855 8.91594 9.5791 9.75349 10.5657 10.6054C10.393 10.7865 10.236 10.9516 10.0789 11.1166L10.0782 11.1174C9.92086 11.2827 9.76325 11.4483 9.59031 11.6298C8.17455 10.4061 6.78016 9.20188 5.38008 7.99278L3.6626 6.5095ZM26.8213 15.3757C26.906 15.875 26.9704 16.2509 27.0569 16.7539H27.0587C28.7627 16.5099 30.4539 16.2674 32.1558 16.0234L34.8489 15.6374C34.7734 15.1307 34.7145 14.7309 34.6427 14.2426C32.0037 14.6258 29.4328 14.998 26.8213 15.3757ZM26.7197 32.2775C26.5761 32.3657 26.4302 32.4553 26.2711 32.5533C25.643 31.5796 25.0181 30.6117 24.3955 29.6472C23.6043 28.4216 22.8168 27.2017 22.031 25.983C22.7622 25.397 23.367 25.4726 23.8455 26.2096C24.7962 27.6778 25.7445 29.1461 26.7283 30.6693L27.4691 31.8163C27.1928 31.9869 26.9595 32.1302 26.7197 32.2775ZM16.7326 27.1325V34.9041C17.4248 35.0052 17.7544 35.0534 17.9114 34.911C18.0548 34.7808 18.054 34.4912 18.054 33.9368C18.054 32.7788 18.0573 31.62 18.0605 30.461C18.0622 29.8809 18.0638 29.3008 18.065 28.7207V27.1325H16.7326Z" fill="white"/>
</svg>
