<svg width="28" height="16" viewBox="0 0 28 16" fill="none" xmlns="http://www.w3.org/2000/svg">
<path d="M15.7086 7.58633C15.7086 11.776 12.3414 15.1724 8.18792 15.1724C4.03447 15.1724 0.666992 11.7752 0.666992 7.58633C0.666992 3.39741 4.03421 0 8.18792 0C12.3416 0 15.7086 3.39665 15.7086 7.58633Z" fill="#E5E5E5"/>
<path d="M23.9584 7.5864C23.9584 11.5301 22.2748 14.7283 20.198 14.7283C18.1211 14.7283 16.4375 11.5301 16.4375 7.5864C16.4375 3.64272 18.1209 0.444458 20.1977 0.444458C22.2746 0.444458 23.9582 3.64169 23.9582 7.5864" fill="#E5E5E5"/>
<path d="M27.3324 7.58729C27.3324 11.1199 26.7403 13.9853 26.0098 13.9853C25.2793 13.9853 24.6875 11.1206 24.6875 7.58729C24.6875 4.05395 25.2795 1.18924 26.0098 1.18924C26.7401 1.18924 27.3324 4.0537 27.3324 7.58729Z" fill="#E5E5E5"/>
</svg>
