<svg width="129" height="54" viewBox="0 0 129 54" fill="none" xmlns="http://www.w3.org/2000/svg">
<path fill-rule="evenodd" clip-rule="evenodd" d="M1.76688 18.0421L1.76681 18.0422L1.76674 18.0422L1.76667 18.0422L1.7666 18.0422L1.76653 18.0422L1.76646 18.0422L1.76639 18.0422L1.76632 18.0422L1.76625 18.0422L1.76618 18.0422L1.76611 18.0422L1.76604 18.0422L1.76597 18.0422L1.76591 18.0422C1.17715 18.0844 0.588428 18.1265 0 18.1711V18.4893C0.0937335 18.4871 0.187335 18.4839 0.280852 18.4807H0.280883H0.280914H0.280945H0.280975H0.281006H0.281036H0.281067H0.281097H0.281127H0.281157H0.281187H0.281217H0.281246H0.281276C0.453968 18.4749 0.626368 18.469 0.798769 18.469H127.032C127.085 18.469 127.137 18.4696 127.19 18.4701C127.333 18.4716 127.476 18.4731 127.618 18.4637C127.675 18.4597 127.73 18.4392 127.824 18.4046C127.879 18.3842 127.948 18.3589 128.038 18.3291C127.945 18.2982 127.874 18.2716 127.815 18.2498C127.715 18.213 127.653 18.1898 127.588 18.1818C126.527 18.0538 125.465 17.9272 124.403 17.8006L124.4 17.8003L124.398 17.8L124.395 17.7997L124.393 17.7994L124.39 17.7991C122.478 17.5712 120.566 17.3433 118.656 17.1075L118.362 17.0713C116.028 16.7834 113.695 16.4955 111.367 16.1614C110.463 16.0313 109.561 15.8767 108.659 15.722C107.392 15.5047 106.124 15.2875 104.849 15.1383C102.471 14.8607 100.076 14.6973 97.6837 14.5649C95.0792 14.4207 92.8089 13.6572 90.9913 11.6656C89.2496 9.75625 87.1182 8.44704 84.582 7.74972C83.5038 7.45324 82.4472 7.08033 81.3905 6.70735C80.4565 6.3777 79.5224 6.048 78.573 5.77095C76.732 5.23381 74.8526 5.05334 72.9688 5.7293C71.9832 6.08277 71.067 5.7891 70.2863 5.13236C68.944 4.00255 67.4447 3.12796 65.8803 2.35803C65.5095 2.17545 65.141 1.98506 64.7723 1.79459L64.7719 1.79438C63.75 1.26638 62.7268 0.737734 61.6494 0.37285C59.63 -0.310589 57.6801 -0.145069 56.1552 1.63401C55.8935 1.93942 55.5614 2.19891 55.2229 2.42103C54.5372 2.87063 53.8463 3.31254 53.1554 3.75442L53.1553 3.75446C52.2184 4.35372 51.2815 4.95293 50.3577 5.57126C49.3699 6.23227 48.4152 6.94668 47.4798 7.68031C46.2464 8.64887 44.9105 9.05573 43.3471 8.69585C42.8933 8.5912 42.3935 8.61469 41.9236 8.66275C40.8152 8.77594 39.8434 9.27571 38.9699 9.92498C38.4367 10.3211 37.9303 10.7532 37.4236 11.1855L37.4235 11.1856L37.4235 11.1856C37.0656 11.491 36.7075 11.7965 36.3397 12.0896C34.7924 13.3219 33.0816 13.748 31.152 13.1094C30.3692 12.8499 29.5737 12.7698 28.7439 13.0133C27.9633 13.2418 27.1421 13.2279 26.3882 12.9022C24.8612 12.2423 23.3512 12.2145 21.7761 12.757C21.2934 12.9236 20.611 12.9652 20.1839 12.7452C19.1705 12.2241 18.3087 12.4676 17.48 13.0111C16.5606 13.6134 15.6689 14.2659 14.8231 14.9675C14.0564 15.6039 13.2096 16.0353 12.2848 16.3835C10.1864 17.1726 8.00051 17.5176 5.78894 17.7247C4.45027 17.8501 3.10851 17.9461 1.76688 18.0421ZM65.1467 13.7127C63.0024 13.6572 60.8613 13.6017 58.685 13.5451H58.686C58.3603 12.2401 59.1463 10.932 60.4288 10.6191C62.398 10.1385 64.7654 11.6827 65.1467 13.7127ZM1.2716 24.7883L1.27058 24.7883L1.26956 24.7883L1.26853 24.7883L1.26751 24.7882L1.26649 24.7882L1.26546 24.7882L1.26444 24.7882L1.26341 24.7882L1.26239 24.7882L1.26136 24.7882L1.26034 24.7882L1.25931 24.7882L1.25829 24.7882L1.25727 24.7882C0.838207 24.7851 0.419104 24.782 0 24.7808V25.7398C0.160514 25.7864 0.320749 25.8341 0.481007 25.8818L0.481072 25.8818L0.481131 25.8819L0.481189 25.8819L0.481243 25.8819C0.863586 25.9957 1.24606 26.1096 1.63278 26.2096C1.89441 26.2769 2.00547 26.388 2.00547 26.6774C2.00123 28.4765 2.0001 30.2759 1.99898 32.0753V32.0755C1.99756 34.3548 1.99614 36.6341 1.98838 38.913C1.98731 39.0636 1.8613 39.3092 1.74063 39.3477C1.32413 39.4826 0.897947 39.5868 0.471648 39.691C0.314287 39.7294 0.156911 39.7679 0 39.8079V40.7669H5.40451C5.46217 40.1845 5.23578 39.8229 4.72534 39.6819C4.61691 39.652 4.5092 39.6174 4.40153 39.5828L4.40133 39.5827C4.18669 39.5137 3.9722 39.4448 3.75251 39.4128C3.35953 39.3551 3.29652 39.1533 3.29759 38.7966C3.30749 35.9012 3.30656 33.0057 3.30562 30.1102V30.11C3.30534 29.2584 3.30507 28.4068 3.30507 27.5551C3.30507 27.4955 3.31073 27.4354 3.31641 27.3751C3.31928 27.3447 3.32214 27.3143 3.32429 27.2839C3.94045 28.8345 4.47652 30.3882 5.00939 31.943C5.21516 32.5429 5.42126 33.1427 5.62736 33.7424L5.6274 33.7425C6.38289 35.9409 7.13833 38.1392 7.87663 40.344C8.00905 40.738 8.18952 40.9014 8.59211 40.8427C8.73093 40.8224 8.8783 40.8203 9.01712 40.8427C9.43466 40.911 9.59057 40.7049 9.71871 40.328C10.8302 37.0645 11.9557 33.8063 13.0811 30.5483L13.766 28.5654C13.8903 28.2063 14.0181 27.8488 14.1459 27.4911L14.146 27.4911L14.146 27.4911L14.146 27.4911L14.146 27.4911L14.146 27.491L14.146 27.491L14.146 27.491L14.146 27.491L14.146 27.491L14.146 27.4909L14.146 27.4909L14.146 27.4909L14.146 27.4909C14.2049 27.3262 14.2638 27.1616 14.3223 26.9966L14.4248 27.0191V27.5915V37.8206C14.4248 38.8073 13.9571 39.4306 13.0216 39.6905C12.4998 39.835 12.2962 40.1874 12.4108 40.7477H18.8661C18.9003 40.1753 18.6614 39.8175 18.1496 39.6744C17.7971 39.5761 17.4453 39.4752 17.0965 39.3752L17.0964 39.3752L17.0964 39.3752L17.0963 39.3751L17.0962 39.3751L17.0953 39.3749L17.094 39.3745L17.0933 39.3743L17.0933 39.3743L17.0932 39.3743L17.0932 39.3742L17.0932 39.3742L17.0931 39.3742L17.0931 39.3742L17.093 39.3742L16.7806 39.2847V26.3185C17.5003 26.1135 18.1923 25.916 18.849 25.728V24.7926C18.4249 24.7926 18.0037 24.7938 17.5846 24.795H17.5845C16.4749 24.7981 15.3805 24.8013 14.286 24.7819C13.8866 24.7755 13.7478 24.926 13.6271 25.2806C12.4797 28.664 11.3188 32.0434 10.1581 35.4223L10.158 35.4224L10.158 35.4226L10.1579 35.4227L10.1579 35.4228L10.1578 35.4229L10.1578 35.4231L10.1578 35.4232L10.1577 35.4233L10.1577 35.4234L10.1576 35.4236L10.1576 35.4237L10.1575 35.4238L10.1575 35.4239L10.1575 35.4241L9.59911 37.0496C9.55986 37.1653 9.51504 37.2789 9.45948 37.4197L9.45946 37.4197L9.45942 37.4198C9.42732 37.5012 9.39163 37.5916 9.35137 37.6967C9.01719 36.6747 8.6853 35.6611 8.35544 34.6536L8.35186 34.6427L8.35084 34.6396C7.32778 31.515 6.32428 28.4501 5.33296 25.381C5.19307 24.9495 5.019 24.7691 4.53099 24.7797C3.44555 24.8043 2.359 24.7963 1.27214 24.7883H1.27211H1.27207H1.27203H1.27199H1.27195H1.27191H1.27187H1.27184H1.2718H1.27176H1.27172H1.27168H1.27164H1.2716ZM32.8521 53.6628C30.8509 52.8522 30.0873 51.4854 30.4953 49.4425C30.7804 48.0148 31.7991 47.0889 33.3134 46.995C33.7411 46.9688 34.1733 47.0237 34.6059 47.0786C34.8094 47.1044 35.013 47.1302 35.2163 47.1477C35.526 47.1744 35.636 47.3345 35.6157 47.6442C35.5986 47.8965 35.6027 48.1503 35.6068 48.4043C35.6086 48.5158 35.6104 48.6274 35.6104 48.7388L35.5164 48.774L35.4224 48.8093C35.3868 48.7649 35.3489 48.7217 35.3109 48.6785C35.2282 48.5844 35.1453 48.49 35.086 48.3832C34.4592 47.2459 32.8595 47.1381 32.0565 48.1846C31.2716 49.2065 31.294 51.5089 32.0981 52.5201C32.6524 53.2164 33.9562 53.431 34.6653 52.9035C34.7955 52.8064 34.8817 52.6503 34.9681 52.4937C35.0128 52.4127 35.0575 52.3316 35.1085 52.2585C35.1833 52.1507 35.2646 52.0474 35.346 51.9442L35.3461 51.9441C35.3831 51.897 35.4202 51.85 35.4566 51.8025L35.4568 51.8026C35.524 51.8196 35.5912 51.8367 35.6584 51.8549C35.6584 51.9723 35.6595 52.0898 35.6606 52.2073V52.2074C35.6637 52.5366 35.6669 52.8659 35.6456 53.194C35.6403 53.2837 35.4812 53.4001 35.369 53.4406C35.183 53.508 34.99 53.5554 34.7973 53.6028L34.7972 53.6028L34.7971 53.6028L34.7971 53.6028L34.797 53.6028L34.7969 53.6029L34.7968 53.6029L34.7968 53.6029L34.7967 53.6029L34.7966 53.603L34.7966 53.603L34.7965 53.603L34.7964 53.603L34.7964 53.6031C34.7172 53.6225 34.6381 53.642 34.5596 53.6628H32.8531H32.8521ZM85.3145 31.5762H77.6643L77.6622 31.5783V26.3127C78.1384 26.1834 78.5976 26.0585 79.0568 25.9336C79.6007 25.7848 79.8182 25.4188 79.7093 24.8358H73.2529C73.1689 25.4203 73.3889 25.7855 73.9129 25.9314C74.1811 26.006 74.4494 26.081 74.7229 26.1574L75.3096 26.3212V26.932L75.3098 29.6495C75.31 32.367 75.3102 35.0844 75.3086 37.8019C75.3086 37.9383 75.3215 38.0861 75.3345 38.2346L75.3346 38.2353L75.3346 38.2355C75.3672 38.6076 75.4003 38.9843 75.2317 39.1987C75.0463 39.4331 74.6611 39.5153 74.2826 39.5961C74.1421 39.626 74.0025 39.6558 73.8744 39.6931C73.1141 39.9142 73.0756 39.9708 73.2807 40.7503H79.7488C79.7879 40.1786 79.5509 39.8216 79.0376 39.6792C78.9301 39.6495 78.8233 39.6155 78.7165 39.5815L78.7163 39.5814C78.5008 39.5127 78.2854 39.444 78.0648 39.4112C77.691 39.3557 77.6301 39.1592 77.6333 38.8271C77.6436 37.5907 77.6422 36.3537 77.6407 35.117V35.1169V35.1168C77.6402 34.6841 77.6397 34.2514 77.6397 33.8187V33.0285H85.3476V37.7934C85.3476 38.7993 84.8721 39.4336 83.921 39.6963C83.1799 39.9003 83.1329 39.9921 83.3603 40.7535H89.7804C89.8288 40.179 89.5974 39.8212 89.0863 39.6803C88.9838 39.6522 88.8819 39.6199 88.78 39.5877L88.7799 39.5876C88.5761 39.5231 88.3722 39.4585 88.1636 39.4272C87.7685 39.3674 87.6639 39.1816 87.6649 38.7886C87.6769 35.7914 87.6763 32.7935 87.6757 29.7959C87.6755 28.7971 87.6753 27.7983 87.6756 26.7996C87.6756 26.6921 87.6822 26.5845 87.689 26.4718V26.4718V26.4717V26.4716V26.4716V26.4715V26.4713V26.4712V26.4711V26.471V26.4708V26.4706C87.6922 26.4192 87.6954 26.3667 87.698 26.3127C88.1776 26.1821 88.6351 26.058 89.0924 25.9338L89.1012 25.9314C89.9181 25.7104 89.9192 25.7072 89.743 24.8262H83.3283C83.2365 25.4171 83.4475 25.7848 83.9615 25.9293L84.3842 26.0481C84.6978 26.1363 85.0092 26.2239 85.3145 26.3094V31.5762ZM68.5958 40.9382L68.5947 40.9385V40.2847L68.5945 37.182V37.1624C68.5941 34.0662 68.5937 30.97 68.5969 27.8739C68.5969 27.7373 68.5866 27.5917 68.5763 27.4451C68.5478 27.0423 68.5189 26.6314 68.7005 26.3778C68.8606 26.1552 69.239 26.0867 69.6147 26.0187C69.7726 25.9901 69.93 25.9616 70.0705 25.9218C70.8287 25.7072 70.8405 25.6901 70.6686 24.8336H65.2213C65.1573 25.4231 65.3794 25.7887 65.8877 25.9303C66.3458 26.0574 66.8039 26.1845 67.2567 26.3105V36.513C67.1955 36.4188 67.142 36.3377 67.0939 36.2646C67.011 36.139 66.9439 36.0371 66.8797 35.9331C66.3199 35.0307 65.7558 34.1308 65.1916 33.2309L65.1907 33.2295L65.1891 33.2269L65.189 33.2267C63.7373 30.9113 62.2857 28.5959 60.9082 26.2368C60.2547 25.1156 59.5605 24.6019 58.2481 24.7664C57.5371 24.8559 56.8122 24.8337 56.0916 24.8116H56.0915L56.0914 24.8116L56.0907 24.8115C55.7716 24.8018 55.4533 24.792 55.1374 24.792C54.9666 25.6954 54.9708 25.7029 55.7514 25.9218C55.9937 25.9899 56.2362 26.0578 56.4804 26.126L56.4823 26.1266L56.4846 26.1272L56.4858 26.1276C56.7145 26.1915 56.9445 26.2559 57.1771 26.3212V26.9534L57.1771 29.1112C57.1773 31.996 57.1775 34.8808 57.1749 37.7656C57.1749 37.903 57.1868 38.0507 57.1987 38.1994C57.2298 38.5859 57.2613 38.9786 57.0863 39.2115C56.9127 39.4427 56.5293 39.5203 56.1508 39.5969L56.1508 39.5969C56.003 39.6268 55.856 39.6566 55.7226 39.6952L55.7054 39.7002C54.989 39.9066 54.9879 39.9069 55.1214 40.7482H60.6049C60.6711 40.18 60.4558 39.828 59.9589 39.692C59.8473 39.6617 59.7365 39.627 59.6259 39.5924L59.6258 39.5924L59.6258 39.5924L59.6257 39.5924L59.6257 39.5924L59.6256 39.5924L59.6256 39.5923L59.6255 39.5923L59.6255 39.5923L59.6254 39.5923L59.6254 39.5923L59.6253 39.5923C59.4133 39.526 59.2017 39.4598 58.985 39.424C58.5995 39.361 58.4724 39.1933 58.4745 38.7897C58.4868 36.0589 58.4864 33.3281 58.486 30.5974C58.4858 29.5287 58.4857 28.4599 58.4863 27.3912C58.4863 27.3115 58.4959 27.2319 58.5092 27.1225L58.5092 27.1223L58.5092 27.122C58.5171 27.057 58.5262 26.9815 58.5354 26.8893L58.686 27.1272C58.7633 27.2493 58.8226 27.3428 58.8814 27.4371C59.556 28.5135 60.2321 29.5889 60.9081 30.6642L60.9096 30.6666L60.9123 30.6709L60.9162 30.6771L60.9162 30.6772C62.9096 33.848 64.9027 37.0184 66.8584 40.2121C67.3024 40.9379 67.7774 41.1399 68.5947 40.9385V40.9404L68.5958 40.9382ZM51.6018 38.373C52.8021 36.7007 53.2858 34.8415 53.2815 32.82L53.2805 32.8189L53.4129 32.7955C53.3471 32.4486 53.2945 32.0972 53.2419 31.7458L53.2419 31.7457C53.1262 30.973 53.0105 30.2003 52.7551 29.4765C51.6829 26.4363 49.5312 24.6091 46.2539 24.4116C43.2051 24.2268 40.8227 25.5254 39.4227 28.2378C37.8807 31.2267 37.8796 34.3588 39.4056 37.3531C41.976 42.3956 48.7804 42.3049 51.6018 38.373ZM40.8619 33.5427L40.8619 33.5426L40.8619 33.5425L40.8618 33.5424L40.8618 33.5423L40.8618 33.5422L40.8618 33.542L40.8618 33.5419L40.8618 33.5418L40.8618 33.5417L40.8618 33.5416C40.8331 33.25 40.8044 32.9584 40.7725 32.6673L40.7714 32.6662C40.8333 31.2502 40.9593 29.8609 41.4794 28.5346C42.2515 26.5655 43.7337 25.5542 45.8192 25.5638C47.9496 25.5734 49.4094 26.5858 50.158 28.6041C50.8009 30.3361 50.9002 32.1441 50.7048 33.953C50.5862 35.0529 50.3865 36.1721 50.017 37.209C49.3496 39.082 47.893 40.0111 45.9335 40.0271C43.8202 40.0442 42.3956 39.1589 41.6139 37.2923C41.3897 36.7573 41.2028 36.1902 41.1099 35.62C40.9986 34.9321 40.9303 34.2373 40.8619 33.5427ZM20.9976 32.8115C20.9538 30.5668 21.5208 28.5208 23.0212 26.8036C26.2825 23.0714 32.3779 23.7089 34.7689 28.1075C36.3899 31.0901 36.4049 34.2424 34.8928 37.2634C33.4191 40.2097 30.8701 41.4378 27.597 41.1815C24.843 40.9658 22.3623 38.9421 21.4739 36.0578C21.2541 35.3433 21.1406 34.596 21.0271 33.8488C20.9757 33.5105 20.9243 33.1723 20.863 32.8371C20.8854 32.8328 20.9078 32.8288 20.9302 32.8248C20.9527 32.8208 20.9751 32.8168 20.9976 32.8125V32.8115ZM33.3988 32.6524C33.4052 31.1712 33.2696 29.7136 32.6823 28.3317C31.8942 26.4768 30.4643 25.5926 28.4727 25.567C26.4598 25.5414 24.9477 26.4576 24.2215 28.3264C23.8552 29.2693 23.6363 30.2988 23.5306 31.3079C23.3309 33.2247 23.4462 35.1405 24.1094 36.9751C24.8547 39.0372 26.3113 40.0324 28.4812 40.0271C30.6042 40.0218 32.0255 39.0051 32.773 36.9441C33.276 35.558 33.3935 34.1132 33.3988 32.6524ZM116.563 39.6894C116.068 39.8275 115.856 40.1867 115.926 40.7669L115.927 40.7647H127.6L127.684 39.6259L127.749 38.7617C127.798 38.0998 127.846 37.4415 127.895 36.7837C127.443 36.6449 127.165 36.7228 127.012 37.1532C126.938 37.3595 126.831 37.5538 126.724 37.7478L126.724 37.7484C126.685 37.8193 126.646 37.8902 126.608 37.9616C126.524 38.123 126.451 38.3034 126.378 38.4839L126.378 38.484C126.21 38.9005 126.041 39.3171 125.734 39.5004C125.4 39.699 124.925 39.6658 124.455 39.6328C124.271 39.6199 124.087 39.607 123.913 39.6082C123.079 39.6135 122.246 39.6124 121.402 39.6113H121.402H121.401H121.401H121.4H121.4H121.399H121.399H121.398C121.044 39.6108 120.688 39.6104 120.329 39.6104V26.3303C120.35 26.3204 120.367 26.3114 120.383 26.3035C120.41 26.2895 120.43 26.2792 120.451 26.2737C120.659 26.2181 120.867 26.1632 121.075 26.1082L121.075 26.1081L121.076 26.108C121.347 26.0363 121.619 25.9645 121.89 25.8914C122.616 25.696 122.682 25.5646 122.432 24.8203H115.953C115.772 25.6735 115.792 25.7088 116.556 25.9234C116.872 26.0124 117.188 26.0999 117.517 26.1911L117.973 26.3175V37.8302C117.973 38.8077 117.503 39.4274 116.563 39.6894ZM107.337 39.6117L107.346 39.6117C108.732 39.6129 110.096 39.6141 111.46 39.5971C111.6 39.595 111.795 39.4263 111.867 39.2864C112.226 38.5944 112.574 37.895 112.879 37.1784C113.05 36.778 113.285 36.6274 113.773 36.7812C113.731 37.5493 113.689 38.3264 113.645 39.1172L113.641 39.1899L113.555 40.7494H101.904C101.788 40.1898 101.99 39.8371 102.51 39.6911C103.447 39.4306 103.915 38.808 103.915 37.8234V26.3171L103.392 26.171L103.39 26.1704C103.101 26.0897 102.824 26.012 102.546 25.9348C102.034 25.7924 101.81 25.4261 101.874 24.8359H108.323C108.415 25.4226 108.19 25.7895 107.647 25.9369C107.369 26.0124 107.092 26.0883 106.812 26.165L106.257 26.3171V39.6132L106.258 39.611C106.619 39.611 106.979 39.6113 107.337 39.6117ZM99.1534 40.7741H99.1553L99.1532 40.7763L99.1534 40.7741ZM98.4697 39.686C98.981 39.8268 99.2089 40.1895 99.1534 40.7741H92.6957C92.4971 39.9519 92.5238 39.9134 93.2959 39.6924C93.4256 39.6552 93.5697 39.6269 93.7146 39.5984C94.0813 39.5264 94.4534 39.4533 94.6126 39.2321C94.7892 38.9853 94.7626 38.5864 94.7366 38.1968V38.1967V38.1966V38.1965V38.1964C94.7274 38.0586 94.7183 37.922 94.7183 37.7937C94.7222 35.1593 94.7215 32.5244 94.7209 29.8897V29.8896V29.8895V29.8893V29.8892V29.8891V29.889C94.7207 28.9013 94.7204 27.9136 94.7204 26.9259V26.3215C94.3452 26.2167 93.9882 26.1175 93.6359 26.0196L93.6297 26.0178L93.3162 25.9307C92.7915 25.784 92.5772 25.4185 92.6733 24.834H99.1297C99.2343 25.4178 99.0321 25.7801 98.5231 25.9211C98.218 26.0052 97.9128 26.0881 97.597 26.1738L97.3305 26.2462L97.0537 26.3215V26.8619C97.0537 27.7669 97.0542 28.6721 97.0546 29.5772V29.5773V29.5774V29.5775V29.5776V29.5777C97.0561 32.6324 97.0576 35.6875 97.042 38.742C97.0398 39.1894 97.1701 39.3838 97.5983 39.4489C97.7985 39.4793 97.9938 39.5404 98.1892 39.6016L98.1893 39.6017C98.2826 39.6309 98.3759 39.6601 98.4697 39.686ZM43.5692 47.1109C44.237 47.0483 44.6884 47.3006 44.9233 47.868C45.1188 48.337 45.3159 48.8053 45.513 49.2736L45.5137 49.2753L45.5144 49.277L45.5151 49.2787L45.5152 49.2789L45.5154 49.2794C45.9493 50.3107 46.3833 51.342 46.8006 52.3798C46.9469 52.7439 47.1285 52.9714 47.5257 53.0461C47.6125 53.0623 47.6856 53.1545 47.7587 53.2466C47.7917 53.2882 47.8247 53.3298 47.8589 53.3644C47.8171 53.3816 47.7753 53.4032 47.7334 53.4249C47.6426 53.472 47.5516 53.5192 47.4595 53.5214C46.8209 53.5384 46.1813 53.5384 45.5427 53.5214C45.4523 53.5192 45.3635 53.4703 45.2748 53.4214C45.2334 53.3987 45.1922 53.3759 45.1508 53.358C45.1855 53.3242 45.219 53.2885 45.2526 53.2528C45.3272 53.1733 45.4019 53.0937 45.4903 53.0355C45.5683 52.9847 45.6624 52.9578 45.7573 52.9306L45.7768 52.925C45.7991 52.9186 45.8215 52.9121 45.8436 52.9051L45.8571 52.9008C45.8666 52.8977 45.8761 52.8946 45.8855 52.8913C45.8832 52.8654 45.8825 52.8421 45.8819 52.8206C45.8808 52.7809 45.8798 52.7477 45.8694 52.7172C45.6131 51.9719 45.0906 51.5995 44.3018 51.6002H44.195C43.3699 51.6002 42.8256 52.026 42.5622 52.8774C42.6249 52.8968 42.6885 52.9145 42.7521 52.9323C42.9019 52.974 43.0521 53.0159 43.1923 53.0803C43.2534 53.1083 43.2952 53.1789 43.337 53.2495C43.3558 53.2813 43.3746 53.313 43.3952 53.3409C43.3671 53.3605 43.3392 53.3852 43.3113 53.4099C43.2508 53.4634 43.1903 53.517 43.1282 53.5192C42.543 53.5352 41.9567 53.5363 41.3705 53.5192C41.3109 53.5178 41.2528 53.4609 41.1945 53.4039C41.1671 53.3771 41.1397 53.3503 41.1121 53.3291C41.1347 53.3014 41.1571 53.2663 41.1796 53.2312C41.2281 53.1553 41.2767 53.0793 41.3278 53.0771C41.8862 53.0582 42.0275 52.6647 42.1687 52.271C42.1871 52.2198 42.2055 52.1686 42.2248 52.1182C42.4455 51.541 42.6647 50.9632 42.8838 50.3854L42.8844 50.3838L42.8864 50.3786C43.0681 49.8993 43.2499 49.4201 43.4325 48.9412C43.671 48.3148 43.7162 47.705 43.5682 47.112L43.5692 47.1109ZM43.2243 51.0161C43.5242 50.1718 43.8103 49.3638 44.1518 48.398L44.5063 49.2906C44.7412 49.882 44.9612 50.4357 45.1913 51.0161H43.2243ZM86.2892 52.8007C86.2924 52.8241 86.2959 52.8502 86.3012 52.88H86.3034C86.2583 52.8951 86.2121 52.9083 86.166 52.9215C86.0614 52.9516 85.9568 52.9816 85.8634 53.0327C85.7683 53.0851 85.6839 53.1572 85.5993 53.2296C85.5613 53.2621 85.5233 53.2946 85.4843 53.3253C85.5282 53.347 85.572 53.374 85.6156 53.4011C85.71 53.4595 85.8041 53.5178 85.8997 53.5207C86.5383 53.5421 87.179 53.5389 87.8187 53.5229C87.9091 53.5207 87.9991 53.4739 88.0889 53.4272C88.1295 53.4061 88.17 53.385 88.2106 53.368C88.1774 53.3332 88.1455 53.2912 88.1136 53.2492C88.0427 53.1558 87.9717 53.0624 87.887 53.0477C87.4834 52.9793 87.3018 52.7412 87.1566 52.3835C86.7117 51.2858 86.2541 50.1936 85.7966 49.1014C85.6171 48.6731 85.4377 48.2448 85.259 47.8162C85.0233 47.2523 84.5674 47.0295 83.891 47.1477C84.3269 47.7753 84.0802 48.3254 83.8338 48.875C83.7729 49.0108 83.712 49.1465 83.6615 49.2834C83.4553 49.8418 83.2399 50.3966 83.0245 50.9515L83.024 50.9527C82.8803 51.3229 82.7367 51.693 82.5957 52.0642C82.5735 52.1227 82.5526 52.1822 82.5318 52.2416C82.3897 52.647 82.2495 53.0468 81.687 53.0915C81.6207 53.0968 81.5396 53.2645 81.5225 53.3659C81.5161 53.4065 81.6624 53.5186 81.7414 53.5207C82.3277 53.5336 82.915 53.5336 83.5013 53.5207C83.5824 53.5186 83.7319 53.4193 83.7277 53.3766C83.717 53.2751 83.6572 53.132 83.576 53.0925C83.4341 53.0242 83.2798 52.9807 83.1266 52.9375L83.1265 52.9375C83.0641 52.9199 83.0018 52.9024 82.9406 52.8832C83.1556 52.0289 83.6736 51.6018 84.4944 51.6018H84.6546C85.4441 51.6018 85.9816 51.9656 86.2671 52.6931C86.2788 52.7242 86.2834 52.758 86.2892 52.8007ZM84.519 48.4003C84.897 49.3091 85.2355 50.1217 85.6071 51.0134H83.576L83.6597 50.7816C83.945 49.9911 84.2182 49.2343 84.519 48.4003ZM54.9507 50.6817V52.8858C55.0067 52.9004 55.0651 52.9135 55.1247 52.9269L55.1248 52.9269C55.2742 52.9605 55.4308 52.9957 55.5743 53.0598C55.656 53.0966 55.7185 53.1761 55.7808 53.2555L55.7809 53.2555C55.809 53.2913 55.8371 53.327 55.8669 53.3588C55.8309 53.3768 55.7951 53.3996 55.7593 53.4223L55.7593 53.4224C55.6827 53.4711 55.6063 53.5197 55.5284 53.5212C54.8364 53.5361 54.1444 53.5372 53.4524 53.5212C53.3789 53.5197 53.3064 53.4662 53.2339 53.4126C53.2 53.3876 53.1661 53.3625 53.1321 53.3428C53.1572 53.3134 53.1808 53.2808 53.2043 53.248C53.2578 53.1738 53.3114 53.0994 53.3841 53.063C53.5038 53.0036 53.6368 52.9696 53.774 52.9345L53.7741 52.9345C53.8315 52.9198 53.8897 52.9049 53.9479 52.8879V47.7386C53.8892 47.7201 53.8296 47.7036 53.77 47.6871C53.627 47.6476 53.4845 47.6082 53.3563 47.5411C53.288 47.505 53.2429 47.425 53.1977 47.3448L53.1977 47.3447L53.1977 47.3447L53.1976 47.3447C53.1772 47.3084 53.1568 47.2721 53.1342 47.2399C53.1643 47.2227 53.1946 47.2005 53.2248 47.1783C53.29 47.1304 53.3552 47.0826 53.4193 47.084C53.6865 47.0873 53.9541 47.0874 54.2217 47.0874C55.0014 47.0876 55.7816 47.0878 56.5536 47.1673C57.583 47.273 58.1927 48.0269 58.1671 48.9517C58.1415 49.8616 57.4143 50.5898 56.3987 50.6753C56.0769 50.7023 55.7521 50.6954 55.4191 50.6883H55.419H55.4188C55.2647 50.685 55.1088 50.6817 54.9507 50.6817ZM55.3154 50.2345H55.3156H55.3158C55.956 50.2443 56.5657 50.2537 56.9679 49.6352C57.2818 49.1536 57.2829 48.6047 56.954 48.1305C56.5375 47.5307 55.9363 47.5583 55.3198 47.5867C55.1966 47.5923 55.0727 47.598 54.9496 47.5987V50.2332C55.0718 50.2308 55.1942 50.2327 55.3154 50.2345ZM73.3483 47.6231C73.454 47.6262 73.561 47.6293 73.6694 47.6293V47.6303V52.8875C73.6027 52.9074 73.5373 52.9251 73.4735 52.9424L73.4732 52.9425C73.3185 52.9843 73.1728 53.0237 73.0383 53.0872C72.9528 53.1267 72.8856 53.2602 72.8685 53.3606C72.8621 53.4033 73.003 53.5197 73.0788 53.5207C73.8061 53.5325 74.5343 53.5325 75.2626 53.5207C75.3427 53.5197 75.4912 53.4075 75.4848 53.3691C75.4666 53.2677 75.4015 53.1331 75.3171 53.0936C75.1695 53.0256 75.0108 52.9817 74.857 52.9391L74.857 52.9391C74.7982 52.9228 74.7402 52.9067 74.6838 52.8896V47.6773C75.4477 47.5812 75.9952 47.8521 76.3262 48.49C76.3349 48.5065 76.3417 48.5249 76.3484 48.5432C76.3609 48.5768 76.3732 48.6102 76.3967 48.6309C76.4576 48.6843 76.5622 48.7698 76.5996 48.7495C76.6744 48.7089 76.7598 48.6085 76.7619 48.5306C76.7731 48.1785 76.7718 47.8259 76.7703 47.47C76.7699 47.3508 76.7694 47.2313 76.7694 47.1114H71.6169V48.7484C71.6436 48.7602 71.6703 48.7722 71.697 48.7842L71.698 48.7847C71.7244 48.7965 71.7507 48.8084 71.7771 48.82C71.8204 48.7397 71.8624 48.6586 71.9044 48.5774C72.0042 48.3845 72.1041 48.1917 72.2213 48.0105C72.3164 47.8642 72.4563 47.6688 72.5994 47.6464C72.8422 47.6085 73.0914 47.6157 73.3482 47.6231H73.3483ZM95.5627 53.0251C95.6426 53.0254 95.7223 53.0259 95.8015 53.0263C96.302 53.0289 96.7897 53.0314 97.2769 53.0106C97.389 53.0064 97.5204 52.843 97.5951 52.7223C97.7241 52.5153 97.8385 52.2995 97.953 52.0835L97.9531 52.0833C97.9969 52.0007 98.0407 51.9181 98.0853 51.836C98.1066 51.8434 98.1279 51.8512 98.1493 51.8589C98.1706 51.8666 98.192 51.8744 98.2134 51.8819C98.2134 52.002 98.2143 52.1222 98.2151 52.2423C98.2178 52.6026 98.2203 52.9628 98.1995 53.3224C98.1953 53.3961 98.003 53.5168 97.8962 53.5179C96.5294 53.5317 95.1614 53.5317 93.7945 53.5179C93.724 53.5179 93.6534 53.4594 93.5832 53.4012L93.5831 53.4011C93.5503 53.3739 93.5175 53.3467 93.4849 53.3256C93.513 53.2962 93.5406 53.2592 93.5682 53.2223C93.6276 53.1429 93.687 53.0634 93.7518 53.0576C94.2826 53.0149 94.3263 52.7009 94.3189 52.2567C94.3011 51.1789 94.304 50.1012 94.307 49.0032V49.003C94.3081 48.5834 94.3093 48.1609 94.3093 47.7343C94.2493 47.7157 94.1887 47.6994 94.1284 47.6832C93.987 47.6451 93.8474 47.6075 93.7209 47.5431C93.6503 47.5071 93.602 47.4286 93.5537 47.3501L93.5537 47.35C93.5318 47.3145 93.5099 47.2789 93.4859 47.2473C93.5154 47.229 93.545 47.2057 93.5745 47.1824C93.638 47.1324 93.7016 47.0822 93.7657 47.0807C94.4577 47.0668 95.1507 47.0668 95.8427 47.0807C95.9056 47.0822 95.967 47.1333 96.0287 47.1845C96.057 47.2081 96.0854 47.2317 96.114 47.2505C96.09 47.2822 96.0666 47.3221 96.0432 47.362C95.9924 47.4486 95.9414 47.5355 95.8844 47.5399C95.2672 47.5826 95.2447 47.9681 95.2543 48.4572C95.2723 49.3909 95.2693 50.3246 95.2662 51.2587C95.2649 51.6557 95.2636 52.0528 95.2639 52.45C95.2639 52.5664 95.2707 52.6833 95.2784 52.816L95.2785 52.8174C95.2822 52.8815 95.2861 52.9492 95.2896 53.0224L95.2906 53.0245C95.3818 53.0245 95.4725 53.0248 95.5627 53.0251ZM65.3985 52.9359C65.3327 52.9175 65.2664 52.8991 65.2001 52.8787L65.198 52.8776V47.7379C65.2648 47.7172 65.3312 47.6985 65.3968 47.68C65.5578 47.6345 65.7138 47.5905 65.8579 47.5222C65.9402 47.4838 66.0032 47.3418 66.0139 47.2403C66.0192 47.1933 65.8772 47.0855 65.8003 47.0844C65.2013 47.0751 64.6017 47.0758 63.9946 47.0765C63.8322 47.0767 63.6691 47.0769 63.5054 47.0769C63.502 47.1246 63.4947 47.1728 63.4881 47.2162C63.4759 47.2963 63.4662 47.3603 63.4883 47.3749C63.6603 47.4868 63.8421 47.5846 64.0263 47.6836C64.0846 47.715 64.1432 47.7464 64.2017 47.7785V52.8883C64.1449 52.9076 64.0881 52.9249 64.0319 52.9419C63.8957 52.9832 63.7636 53.0233 63.6464 53.0891C63.5631 53.135 63.5044 53.2727 63.4937 53.3752C63.4894 53.418 63.64 53.5194 63.7211 53.5205C64.4131 53.5322 65.1051 53.5322 65.7971 53.5205C65.875 53.5194 66.0203 53.4116 66.0149 53.3688C66.001 53.2674 65.938 53.1286 65.8547 53.0901C65.7115 53.023 65.5565 52.9799 65.3985 52.9359Z" fill="white"/>
</svg>
