<svg width="36" height="45" viewBox="0 0 36 45" fill="none" xmlns="http://www.w3.org/2000/svg">
<g clip-path="url(#clip0_2562_16962)">
<path d="M4.12169 35.9876C2.83113 34.6131 1.51041 33.2659 0.271112 31.846C0.0238552 31.5645 0.0268705 31.0044 0.0238552 30.5745C0.0057632 26.2876 -0.0243901 22.0008 0.0238552 17.7139C0.132407 7.63251 8.59945 -0.311519 18.8485 0.0093905C28.6423 0.31819 36.5123 9.01 35.9756 18.9279C35.466 28.3403 28.2745 35.6182 18.9782 36.1299C18.737 36.142 18.4927 36.1299 18.146 36.1299V31.8915C19.6567 31.5403 21.2005 31.3283 22.6448 30.8228C28.974 28.6006 32.7311 21.6859 31.2204 15.189C29.6344 8.36515 23.4138 3.83003 16.6323 4.55359C9.8689 5.27412 4.59208 11.0142 4.52876 17.8108C4.47749 23.3086 4.51669 28.8065 4.51368 34.3043C4.51368 34.7857 4.51368 35.2701 4.51368 35.7514C4.38402 35.8302 4.25738 35.9089 4.12772 35.9876H4.12169Z" fill="white"/>
<path d="M13.1257 44.9993C11.8864 43.6974 10.6049 42.4289 9.43189 41.0666C9.12433 40.7094 9.05196 40.0585 9.05196 39.5408C9.02784 32.4323 9.01276 25.3269 9.04291 18.2184C9.06402 13.0657 12.9297 9.10885 17.8959 9.07252C22.9134 9.03619 26.9208 12.9355 27.0384 17.9641C27.15 22.8232 23.3386 26.7861 18.1673 27.0677V22.7657C18.7794 22.5598 19.4247 22.4145 20.0006 22.1329C22.0149 21.146 22.9526 18.9541 22.3315 16.8016C21.7254 14.7005 19.6991 13.3624 17.4768 13.5986C15.3208 13.8286 13.581 15.6027 13.5599 17.8673C13.5026 24.6215 13.5297 31.3757 13.5267 38.13C13.5267 40.34 13.5267 42.547 13.5267 44.7571C13.394 44.8388 13.2583 44.9175 13.1257 44.9993Z" fill="white"/>
</g>
<defs>
<clipPath id="clip0_2562_16962">
<rect width="36" height="45" fill="white"/>
</clipPath>
</defs>
</svg>
