<svg width="120" height="36" viewBox="0 0 120 36" fill="none" xmlns="http://www.w3.org/2000/svg">
<path fill-rule="evenodd" clip-rule="evenodd" d="M20.8987 0.514847C21.0225 0.135319 21.4199 -0.0786358 21.8052 0.0268724C22.1905 0.132381 22.43 0.520781 22.3515 0.912711L19.4856 15.225L33.4359 12.307C33.8344 12.2236 34.2256 12.4659 34.3289 12.8599C34.4322 13.2539 34.2119 13.6635 33.8261 13.795L20.1858 18.4416L29.6371 29.3343C29.9018 29.6394 29.8883 30.1024 29.6061 30.3908C29.324 30.6791 28.871 30.693 28.5725 30.4224L18.0054 20.8451L13.5199 34.5995C13.3961 34.979 12.9986 35.1929 12.6134 35.0874C12.2281 34.9819 11.9885 34.5935 12.067 34.2016L14.9359 19.875L0.917358 22.8072C0.518932 22.8905 0.127735 22.6483 0.0244383 22.2543C-0.0788579 21.8603 0.141426 21.4506 0.527244 21.3192L13.9708 16.7396L4.46257 5.78114C4.19785 5.47605 4.21143 5.01301 4.49356 4.72467C4.77568 4.43633 5.22872 4.42245 5.52724 4.69301L16.3401 14.4931L20.8987 0.514847ZM46.1832 19.9845H49.0306C49.0803 20.3277 49.2542 20.6354 49.5524 20.9076C49.8505 21.1679 50.2481 21.3691 50.745 21.5111C51.2419 21.6531 51.8084 21.7241 52.4445 21.7241C53.0508 21.7241 53.5378 21.6768 53.9055 21.5821C54.2732 21.4756 54.5415 21.3277 54.7105 21.1383C54.8795 20.9371 54.9639 20.6886 54.9639 20.3928C54.9639 20.1206 54.8447 19.9076 54.6062 19.7537C54.3676 19.5999 53.9751 19.4815 53.4284 19.3987C52.8818 19.304 52.1314 19.2212 51.1773 19.1502C50.4518 19.091 49.7959 18.9904 49.2095 18.8484C48.6331 18.6945 48.1411 18.4874 47.7336 18.2271C47.3261 17.9667 47.0131 17.6472 46.7944 17.2685C46.5857 16.878 46.4814 16.4164 46.4814 15.8839C46.4814 15.1147 46.6801 14.4638 47.0777 13.9312C47.4752 13.3869 48.0715 12.9727 48.8666 12.6886C49.6617 12.4046 50.6506 12.2626 51.8333 12.2626C53.5825 12.2626 54.9242 12.6295 55.8584 13.3632C56.7926 14.0969 57.2498 15.1324 57.2299 16.4697H54.5316C54.4819 15.8898 54.2086 15.4697 53.7117 15.2093C53.2147 14.9371 52.5538 14.8011 51.7289 14.8011C50.9338 14.8011 50.3127 14.8957 49.8654 15.0851C49.4182 15.2744 49.1946 15.5999 49.1946 16.0614C49.1946 16.2626 49.2492 16.4342 49.3586 16.5762C49.4778 16.7182 49.6766 16.8366 49.9549 16.9312C50.2332 17.0259 50.6208 17.1087 51.1177 17.1797C51.6146 17.2508 52.2358 17.3218 52.9812 17.3928C53.7465 17.4519 54.4173 17.5525 54.9938 17.6945C55.5702 17.8366 56.0472 18.0377 56.4249 18.2981C56.8125 18.5466 57.1007 18.8661 57.2896 19.2567C57.4883 19.6354 57.5877 20.1028 57.5877 20.659C57.5877 21.4401 57.3989 22.0969 57.0212 22.6294C56.6535 23.162 56.0721 23.5703 55.277 23.8543C54.4819 24.1265 53.4533 24.2626 52.1911 24.2626C51.3761 24.2626 50.6456 24.1797 49.9996 24.0141C49.3635 23.8602 48.802 23.6413 48.315 23.3573C47.828 23.0732 47.4255 22.7478 47.1075 22.3809C46.7894 22.0022 46.5509 21.6117 46.3919 21.2093C46.2428 20.7951 46.1733 20.3868 46.1832 19.9845ZM63.4296 23.9786V20.5703H68.4685C69.0946 20.5703 69.676 20.517 70.2127 20.4105C70.7594 20.2922 71.2364 20.091 71.6439 19.807C72.0514 19.5111 72.3694 19.1147 72.598 18.6176C72.8266 18.1087 72.9409 17.4697 72.9409 16.7005C72.9409 15.9076 72.8266 15.2508 72.598 14.73C72.3694 14.1975 72.0514 13.7715 71.6439 13.4519C71.2364 13.1324 70.7594 12.9016 70.2127 12.7596C69.676 12.6176 69.0946 12.5466 68.4685 12.5466H60.7462V23.9786H63.4296ZM68.8114 18.1916H63.4296V15.1738H68.8114C69.2487 15.1738 69.6015 15.2981 69.8699 15.5466C70.1382 15.7833 70.2724 16.1679 70.2724 16.7005C70.2724 17.2093 70.1382 17.588 69.8699 17.8366C69.6015 18.0732 69.2487 18.1916 68.8114 18.1916ZM77.9119 21.7951L76.946 23.9786H74.0091L79.2865 12.5466H82.2383L87.5604 23.9786H84.6235L83.6481 21.7951H77.9119ZM78.9092 19.5407H82.641L80.766 15.3436L78.9092 19.5407ZM90.356 23.9786V12.5466H98.8982C99.7032 12.5466 100.414 12.6709 101.03 12.9194C101.656 13.1561 102.143 13.5407 102.491 14.0732C102.849 14.6058 103.028 15.3099 103.028 16.1857C103.028 16.7774 102.938 17.2744 102.759 17.6768C102.59 18.0673 102.352 18.3809 102.044 18.6176C101.736 18.8543 101.378 19.0318 100.97 19.1502C100.827 19.1929 100.68 19.2302 100.53 19.2622C100.806 19.2928 101.052 19.3324 101.269 19.3809C101.795 19.4993 102.173 19.7123 102.402 20.02C102.64 20.3277 102.759 20.7774 102.759 21.3691V23.9786H100.091V21.6709C100.091 21.2685 100.026 20.9608 99.897 20.7478C99.7778 20.5229 99.5392 20.3691 99.1814 20.2863C98.8336 20.2034 98.3118 20.162 97.6161 20.162H93.0394V23.9786H90.356ZM93.0394 17.8543H98.8982C99.3454 17.8543 99.6982 17.736 99.9566 17.4993C100.215 17.2626 100.344 16.9135 100.344 16.4519C100.344 16.0141 100.215 15.6945 99.9566 15.4934C99.6982 15.2803 99.3454 15.1738 98.8982 15.1738H93.0394V17.8543ZM112.795 17.8997L118.834 12.5466H115.018L109.263 17.9291V12.5466H106.58V23.9786H109.263V17.9572L115.629 23.9786H119.565L112.795 17.8997Z" fill="#FFFFFD"/>
</svg>
