<svg width="73" height="51" viewBox="0 0 73 51" fill="none" xmlns="http://www.w3.org/2000/svg">
<path d="M63.3049 47.6567L37.7843 19.544L33.6331 22.517L27.4018 11.4297L16.829 35.2037L0.819781 47.4822C0.183335 47.9576 0.0765263 48.8446 0.565423 49.4539C0.851713 49.8151 1.27675 50.0006 1.71168 50.0006C2.02 50.0006 2.32721 49.8974 2.59258 49.7009L14.4296 40.603L11.1384 47.9948C10.8201 48.7074 11.1593 49.5329 11.8926 49.8426C12.0842 49.9249 12.2747 49.9556 12.4762 49.9556C13.0278 49.9556 13.5696 49.6361 13.8031 49.1091L14.6311 47.2406C15.1828 47.2615 15.7246 47.2824 16.2552 47.2824C29.3651 47.2824 35.1724 39.4163 37.3802 35.0599L39.0781 38.0747C39.4602 38.7564 40.341 39.0144 41.0425 38.6422C41.7428 38.2712 41.9982 37.4137 41.6162 36.732L35.0348 25.0146L37.3592 23.3425L61.1279 49.5252C61.4143 49.8349 61.8074 50.0006 62.2104 50.0006C62.5506 50.0006 62.8897 49.8875 63.1661 49.6493C63.7718 49.1333 63.8246 48.2452 63.3049 47.6567ZM27.7101 17.8401L29.8012 21.5673C29.3442 22.641 27.9007 25.1078 24.2603 25.5833L27.7101 17.8401ZM22.9753 28.4838C27.2642 28.4838 29.9498 26.5021 31.4364 24.4788L32.3812 26.1618C31.8504 27.8338 29.1119 34.8129 20.1632 34.802L22.9753 28.4838ZM35.6184 31.9212C34.8542 34.1092 30.4278 44.6288 15.8731 44.4531L18.931 37.5785C19.3659 37.5993 19.802 37.63 20.2159 37.63C28.4535 37.63 32.4241 32.6029 34.144 29.2995L35.6184 31.9212Z" fill="white"/>
<path d="M4.99555 11.7482C4.00674 11.7482 3.13906 11.545 2.3903 11.1388C1.64154 10.7326 1.06346 10.1617 0.656043 9.42508C0.248629 8.68843 0.0449219 7.82881 0.0449219 6.84293V0.857422H2.4894V6.75181C2.4894 7.3205 2.5885 7.80246 2.7867 8.19878C2.98491 8.59401 3.2712 8.89921 3.64227 9.11219C4.01335 9.32628 4.46481 9.43168 4.99445 9.43168C5.52298 9.43168 5.97444 9.32519 6.34552 9.11219C6.71659 8.89921 6.99958 8.59401 7.19337 8.19878C7.38717 7.80246 7.48407 7.3205 7.48407 6.75181V0.857422H9.92855V6.84293C9.92855 7.82881 9.72705 8.68843 9.32514 9.42508C8.92213 10.1617 8.34734 10.7326 7.59749 11.1388C6.85203 11.545 5.98325 11.7482 4.99555 11.7482Z" fill="white"/>
<path d="M12.7236 0.857422H20.2861V3.12669H15.1681V5.13796H18.8194V7.3161H15.1681V11.5198H12.7236V0.857422Z" fill="white"/>
<path d="M43.8107 5.1791C43.4231 5.1791 43.0818 5.10006 42.7888 4.93977C42.4948 4.78058 42.268 4.55662 42.1083 4.26788C41.9476 3.97915 41.8672 3.64101 41.8672 3.25456V0.90625H42.8262V3.21943C42.8262 3.4423 42.8648 3.63112 42.943 3.78702C43.0212 3.94182 43.1335 4.06148 43.2789 4.14493C43.4242 4.22836 43.6015 4.27117 43.8096 4.27117C44.0166 4.27117 44.195 4.22946 44.3404 4.14493C44.4857 4.06148 44.5969 3.94182 44.6729 3.78702C44.7488 3.63112 44.7863 3.4423 44.7863 3.21943V0.90625H45.7453V3.25456C45.7453 3.64101 45.666 3.97915 45.5087 4.26788C45.35 4.55662 45.1243 4.78058 44.8315 4.93977C44.5396 5.10006 44.1982 5.1791 43.8107 5.1791Z" fill="white"/>
<path d="M46.7178 0.90625H47.7242L49.6853 3.71456V0.90625H50.5783V5.08907H49.5718L47.6229 2.27418V5.08907H46.7178V0.90625Z" fill="white"/>
<path d="M52.7462 0.90625H51.7871V5.09017H52.7462V0.90625Z" fill="white"/>
<path d="M55.7925 5.17929C55.3764 5.17929 55.0052 5.08596 54.6771 4.89824C54.3501 4.7116 54.0936 4.4514 53.9075 4.11876C53.7214 3.78611 53.6289 3.41064 53.6289 2.99235C53.6289 2.57846 53.7214 2.20519 53.9075 1.87474C54.0936 1.54428 54.3501 1.28519 54.6771 1.09746C55.0052 0.910821 55.3764 0.816406 55.7925 0.816406C56.1592 0.816406 56.494 0.893256 56.7956 1.04695C57.0974 1.20066 57.3408 1.41474 57.5269 1.6892C57.7129 1.96366 57.8197 2.27216 57.8473 2.61579H56.8761C56.8397 2.44013 56.7715 2.28644 56.6702 2.1525C56.5678 2.01966 56.4411 1.91536 56.2892 1.84181C56.1372 1.76824 55.9698 1.73092 55.7849 1.73092C55.5569 1.73092 55.3543 1.78471 55.176 1.8923C54.9987 1.99989 54.8589 2.1492 54.7598 2.34023C54.6595 2.53126 54.6099 2.75082 54.6099 2.99785C54.6099 3.24486 54.6595 3.46333 54.7598 3.65546C54.8589 3.84649 54.9987 3.99579 55.176 4.10338C55.3533 4.21097 55.5569 4.26477 55.7849 4.26477C55.9731 4.26477 56.1416 4.22744 56.2936 4.15389C56.4456 4.08032 56.5721 3.97713 56.6712 3.8432C56.7715 3.71036 56.8397 3.55555 56.8761 3.3799H57.8473C57.8154 3.72243 57.7063 4.03093 57.5202 4.30649C57.3353 4.58095 57.0908 4.79504 56.7902 4.94873C56.4885 5.10244 56.1559 5.17929 55.7925 5.17929Z" fill="white"/>
<path d="M62.4962 1.87974C62.2992 1.55258 62.047 1.2902 61.7078 1.10466C61.3687 0.908141 60.9954 0.820312 60.5793 0.820312C60.163 0.820312 59.7908 0.908141 59.4506 1.10466C59.1114 1.2902 58.8482 1.55258 58.6622 1.87974C58.4761 2.21788 58.377 2.59006 58.377 3.00504C58.377 3.40906 58.4761 3.78013 58.6622 4.11937C58.8482 4.44652 59.1114 4.70891 59.4506 4.89446C59.7897 5.09098 60.163 5.1788 60.5793 5.1788C60.9954 5.1788 61.3676 5.09098 61.7078 4.89446C62.047 4.70891 62.2992 4.44652 62.4962 4.11937C62.6823 3.78123 62.7814 3.40906 62.7814 3.00504C62.7814 2.59006 62.6823 2.21898 62.4962 1.87974ZM61.6418 3.64949C61.5328 3.846 61.3897 3.98763 61.2036 4.09741C61.0175 4.21708 60.8093 4.27197 60.5793 4.27197C60.3491 4.27197 60.1409 4.21708 59.9548 4.09741C59.7687 3.98763 59.6267 3.846 59.5166 3.64949C59.4077 3.45297 59.3526 3.2345 59.3526 3.00504C59.3526 2.76461 59.4077 2.54614 59.5166 2.34963C59.6267 2.15311 59.7687 2.01149 59.9548 1.9017C60.1409 1.79301 60.3491 1.73812 60.5793 1.73812C60.8093 1.73812 61.0175 1.79301 61.2036 1.9017C61.3897 2.01039 61.5317 2.15311 61.6418 2.34963C61.7508 2.54614 61.8059 2.76461 61.8059 3.00504C61.8059 3.2345 61.7519 3.45297 61.6418 3.64949Z" fill="white"/>
<path d="M66.2235 3.48291C66.4976 3.37313 66.7058 3.22052 66.8588 3.01303C67.0008 2.80554 67.0779 2.55413 67.0779 2.2599C67.0779 1.84492 66.9358 1.50678 66.6286 1.26635C66.3324 1.02592 65.9272 0.90625 65.4241 0.90625H63.6611V5.08907H64.6136V3.61466H65.2049L66.2455 5.08907H67.352L66.2235 3.48291ZM65.9383 2.68588C65.8182 2.79566 65.6531 2.83847 65.4449 2.83847H64.6125V1.73623H65.4449C65.6531 1.73623 65.8171 1.79112 65.9383 1.88883C66.0582 1.98763 66.1244 2.11828 66.1244 2.28186C66.1244 2.45642 66.0594 2.58817 65.9383 2.68588Z" fill="white"/>
<path d="M68.0742 0.90625H69.0805L71.0417 3.71456V0.90625H71.9347V5.08907H70.9283L68.9793 2.27418V5.08907H68.0742V0.90625Z" fill="white"/>
<path d="M33.8467 7.32031H36.8131V8.21176H34.8057V9.06041H36.2383V9.91455H34.8057V11.5042H33.8467V7.32031Z" fill="white"/>
<path d="M39.522 7.31836H38.2734L36.6855 11.5012H37.682L38.0003 10.6273H39.7741L40.0913 11.5012H41.1098L39.522 7.31836ZM38.2513 9.8621L38.8646 8.14724H38.8977L39.511 9.8621H38.2513Z" fill="white"/>
<path d="M43.5085 11.5934C43.0922 11.5934 42.7212 11.5 42.3929 11.3123C42.066 11.1257 41.8094 10.8655 41.6233 10.5328C41.4372 10.2002 41.3447 9.8247 41.3447 9.40642C41.3447 8.99253 41.4372 8.61926 41.6233 8.2888C41.8094 7.95834 42.066 7.69926 42.3929 7.51152C42.7212 7.32489 43.0922 7.23047 43.5085 7.23047C43.8751 7.23047 44.2098 7.30732 44.5116 7.46102C44.8133 7.61472 45.0566 7.82881 45.2427 8.10327C45.4288 8.37773 45.5355 8.68623 45.5631 9.02986H44.5919C44.5555 8.8542 44.4873 8.7005 44.386 8.56656C44.2836 8.43372 44.157 8.32942 44.005 8.25587C43.8531 8.18231 43.6857 8.14499 43.5007 8.14499C43.2728 8.14499 43.0701 8.19877 42.8918 8.30636C42.7145 8.41396 42.5747 8.56327 42.4756 8.7543C42.3753 8.94532 42.3259 9.16489 42.3259 9.41191C42.3259 9.65892 42.3753 9.8774 42.4756 10.0695C42.5747 10.2605 42.7145 10.4099 42.8918 10.5174C43.0691 10.625 43.2728 10.6788 43.5007 10.6788C43.6891 10.6788 43.8575 10.6415 44.0094 10.5679C44.1614 10.4944 44.288 10.3912 44.3871 10.2573C44.4873 10.1244 44.5545 9.96961 44.5919 9.79396H45.5631C45.5312 10.1365 45.4221 10.445 45.236 10.7206C45.0511 10.995 44.8066 11.2091 44.506 11.3628C44.2043 11.5164 43.8718 11.5934 43.5085 11.5934Z" fill="white"/>
<path d="M47.3759 8.23482H45.864V7.32031H49.8391V8.23482H48.3339V11.5042H47.3759V8.23482Z" fill="white"/>
<path d="M54.2675 8.30087C54.0814 7.96273 53.8182 7.70035 53.4791 7.51481C53.1509 7.32928 52.7666 7.23047 52.3504 7.23047C51.9452 7.23047 51.5621 7.32818 51.2328 7.51481C50.8937 7.70035 50.6305 7.96273 50.4444 8.30087C50.2473 8.62804 50.1592 9.00021 50.1592 9.4152C50.1592 9.81921 50.2473 10.1903 50.4444 10.5295C50.6305 10.8567 50.8937 11.1191 51.2328 11.3156C51.5609 11.5011 51.9452 11.5999 52.3504 11.5999C52.7666 11.5999 53.1498 11.5011 53.4791 11.3156C53.8182 11.1191 54.0814 10.8567 54.2675 10.5295C54.4646 10.1914 54.5527 9.81921 54.5527 9.4152C54.5515 9.00021 54.4646 8.62804 54.2675 8.30087ZM53.424 10.0585C53.3151 10.2551 53.1719 10.4077 52.9858 10.5174C52.7997 10.6261 52.5915 10.681 52.3504 10.681C52.1203 10.681 51.9122 10.6261 51.7261 10.5174C51.54 10.4077 51.398 10.2551 51.2879 10.0585C51.1887 9.87301 51.1348 9.65453 51.1348 9.4141C51.1348 9.17367 51.1899 8.9552 51.2879 8.75869C51.3968 8.57314 51.54 8.42055 51.7261 8.31076C51.9122 8.20207 52.1203 8.14718 52.3504 8.14718C52.5915 8.14718 52.7997 8.20207 52.9858 8.31076C53.1719 8.41945 53.3139 8.57314 53.424 8.75869C53.5231 8.9552 53.577 9.17367 53.577 9.4141C53.577 9.65453 53.522 9.87301 53.424 10.0585Z" fill="white"/>
<path d="M57.9917 9.89503C58.2769 9.79622 58.4851 9.63264 58.6271 9.42515C58.7801 9.21765 58.8572 8.96624 58.8572 8.68299C58.8572 8.25703 58.7041 7.91889 58.4079 7.67845C58.1117 7.43802 57.7066 7.31836 57.1923 7.31836H55.4404V11.5012H56.3819V10.0268H56.9842L58.0248 11.5012H59.1204L57.9917 9.89503ZM57.7066 9.10897C57.5865 9.20778 57.4214 9.26156 57.2132 9.26156H56.3808V8.14724H57.2132C57.4214 8.14724 57.5854 8.20213 57.7066 8.29985C57.8375 8.39865 57.8927 8.5293 57.8927 8.70386C57.8927 8.86854 57.8387 9.00027 57.7066 9.10897Z" fill="white"/>
<path d="M60.8096 10.0408L59.0654 7.32031H60.193L61.3183 9.11969L62.4216 7.32031H63.5073L61.7675 10.0408V11.5042H60.8096V10.0408Z" fill="white"/>
<path d="M53.2041 13.8887H53.7557L54.4065 15.6771H54.4186L55.0627 13.8887H55.6078L54.7424 16.125H54.0662L53.2041 13.8887Z" fill="white"/>
<path d="M55.9902 13.8887H57.5384V14.3355H56.4935V14.7922H57.2047V15.2204H56.4935V15.6771H57.6308V16.125H55.9902V13.8887Z" fill="white"/>
<path d="M58.1086 13.8887H58.6471L59.6954 15.3894V13.8887H60.1722V16.125H59.6348L58.5932 14.6198V16.125H58.1086V13.8887Z" fill="white"/>
<path d="M61.3981 14.3772H60.5898V13.8887H62.715V14.3772H61.91V16.125H61.3981V14.3772Z" fill="white"/>
<path d="M64.1008 16.1721C63.8938 16.1721 63.7111 16.1294 63.5546 16.0449C63.3973 15.9592 63.2761 15.8395 63.1913 15.6859C63.1054 15.531 63.0625 15.351 63.0625 15.1446V13.8887H63.5756V15.1249C63.5756 15.2445 63.5965 15.3455 63.6384 15.4278C63.6802 15.5113 63.7397 15.575 63.8178 15.6189C63.896 15.6639 63.9907 15.6859 64.1019 15.6859C64.2131 15.6859 64.3078 15.6628 64.386 15.6189C64.4641 15.5739 64.5236 15.5102 64.5632 15.4278C64.604 15.3444 64.6239 15.2434 64.6239 15.1249V13.8887H65.137V15.1446C65.137 15.351 65.0951 15.5321 65.0104 15.6859C64.9256 15.8407 64.8055 15.9603 64.648 16.0449C64.4895 16.1305 64.3078 16.1721 64.1008 16.1721Z" fill="white"/>
<path d="M67.0876 15.2663C67.2406 15.2113 67.3507 15.1247 67.4267 15.0148C67.5148 14.9062 67.5467 14.7635 67.5467 14.6109C67.5467 14.3924 67.4696 14.2068 67.3056 14.0763C67.1525 13.9566 66.9334 13.8906 66.6592 13.8906H65.7178V16.1291H66.233V15.3322H66.5513L67.1096 16.1291H67.6898L67.0876 15.2663ZM66.9444 14.8403C66.8784 14.8952 66.7913 14.9281 66.6702 14.9281H66.233V14.3276H66.6713C66.7913 14.3276 66.8794 14.3606 66.9454 14.4154C67.0005 14.4703 67.0336 14.5351 67.0336 14.6229C67.0324 14.7206 66.9995 14.7854 66.9444 14.8403Z" fill="white"/>
<path d="M68.0684 13.8887H69.6153V14.3355H68.5716V14.7922H69.2817V15.2204H68.5716V15.6771H69.7079V16.125H68.0684V13.8887Z" fill="white"/>
<path d="M71.0209 16.1728C70.8293 16.1728 70.6554 16.1421 70.5023 16.0817C70.3482 16.0213 70.2248 15.9291 70.129 15.805C70.0344 15.6821 69.9793 15.5305 69.9639 15.3516H70.4737C70.4891 15.435 70.521 15.5053 70.5695 15.5634C70.6191 15.6217 70.6818 15.6678 70.7589 15.6997C70.836 15.7314 70.9229 15.7479 71.0209 15.7479C71.1553 15.7479 71.2632 15.7282 71.3425 15.6886C71.4228 15.6491 71.4625 15.591 71.4625 15.514C71.4625 15.4548 71.4438 15.4087 71.4064 15.3758C71.3689 15.3429 71.3161 15.3165 71.25 15.2956C71.1828 15.2759 71.0771 15.2506 70.9339 15.2198H70.9307C70.7446 15.1792 70.5905 15.1365 70.4659 15.0926C70.3415 15.0475 70.2359 14.9784 70.1488 14.885C70.0618 14.7917 70.0179 14.6677 70.0179 14.5139C70.0179 14.3624 70.0618 14.2362 70.1521 14.1352C70.2424 14.0342 70.3581 13.9595 70.5012 13.9113C70.6444 13.8629 70.8007 13.8398 70.9692 13.8398C71.1443 13.8398 71.3061 13.8684 71.4548 13.9243C71.6034 13.9804 71.7268 14.0693 71.8248 14.1879C71.9227 14.3075 71.9811 14.4568 72.0009 14.638H71.4658C71.4449 14.5184 71.3876 14.4272 71.2963 14.3646C71.2038 14.302 71.0904 14.2703 70.9527 14.2703C70.8822 14.2703 70.8162 14.2779 70.7556 14.2943C70.6939 14.3108 70.6444 14.3361 70.6058 14.3723C70.5673 14.4085 70.5486 14.4536 70.5486 14.5062C70.5486 14.5611 70.5684 14.6062 70.6081 14.6402C70.6477 14.6742 70.6994 14.7006 70.7633 14.7204C70.8271 14.739 70.9196 14.762 71.0418 14.7873C71.0507 14.7895 71.0595 14.7906 71.0672 14.7917C71.0761 14.7929 71.0837 14.7939 71.0892 14.7961C71.0936 14.7982 71.098 14.7994 71.1035 14.7994C71.109 14.7994 71.1135 14.8005 71.1178 14.8027C71.3018 14.8411 71.4548 14.885 71.577 14.9355C71.7004 14.986 71.8005 15.0563 71.8787 15.1485C71.9568 15.2397 71.9954 15.3582 71.9954 15.5031C71.9954 15.6371 71.9568 15.7545 71.881 15.8555C71.8038 15.9565 71.6926 16.0344 71.5462 16.0882C71.4019 16.1465 71.2258 16.1728 71.0209 16.1728Z" fill="white"/>
</svg>
