<svg width="151" height="27" viewBox="0 0 151 27" fill="none" xmlns="http://www.w3.org/2000/svg">
<path fill-rule="evenodd" clip-rule="evenodd" d="M14.255 25.7496C14.1893 25.8529 14.1087 25.9795 14.0115 26.1444L14.0166 26.1495C14.7016 26.1495 15.3716 26.151 16.0303 26.1525H16.0305C18.0919 26.1571 20.042 26.1614 21.9891 26.119C22.2994 26.1088 22.6962 25.7221 22.8794 25.4067C23.9395 23.6018 24.9904 21.7923 26.0414 19.9826L26.0419 19.9817C27.1949 17.9963 28.3481 16.0107 29.5138 14.0306C29.9004 13.3692 29.931 12.8452 29.5341 12.1685C28.6161 10.6096 27.7104 9.04446 26.8049 7.47979L26.8049 7.47976L26.8049 7.47973C25.5325 5.28101 24.2606 3.08312 22.9557 0.904339C22.6962 0.471884 21.9941 0.0546928 21.4905 0.0496051C17.0896 -0.016535 12.6837 -0.016535 8.28279 0.0496051C7.7842 0.0546928 7.09735 0.487147 6.83788 0.92469C5.612 2.97536 4.41592 5.04484 3.22003 7.11399L3.22001 7.11402L3.21999 7.11405L3.21987 7.11426L3.21983 7.11433C2.26174 8.77203 1.30378 10.4295 0.330714 12.0769C-0.08139 12.779 -0.127179 13.3234 0.300188 14.0408C1.60644 16.2472 2.89104 18.4662 4.17547 20.685L4.17572 20.6854C5.04737 22.1911 5.91895 23.6967 6.79718 25.1981C7.62139 26.6176 9.18331 26.5972 10.0177 25.1828C10.2215 24.8394 10.4348 24.5 10.6481 24.1608C11.1803 23.3143 11.7121 22.4685 12.0935 21.5604C13.0398 19.2913 14.5 18.1415 17.0387 18.6757C17.7917 18.8334 18.2903 18.4874 18.6617 17.7904C18.9576 17.2313 19.2814 16.6871 19.6048 16.1434C20.0378 15.4156 20.4701 14.6889 20.8341 13.9289C21.0631 13.4557 21.058 12.6875 20.8291 12.2092C20.4818 11.4771 20.0621 10.7762 19.6421 10.0748C19.3237 9.54301 19.0051 9.01093 18.7177 8.46466C18.331 7.73203 17.8273 7.4573 17.0031 7.46747C14.6825 7.50237 12.3582 7.49239 10.0365 7.48242C9.65028 7.48076 9.26412 7.4791 8.87805 7.47765C8.598 7.47435 8.31794 7.44119 7.984 7.40164C7.80227 7.38012 7.60459 7.35671 7.38227 7.33519C7.56801 7.00326 7.74562 6.69865 7.91371 6.41036C8.24286 5.84583 8.53553 5.34388 8.78138 4.82187C9.19349 3.94678 9.79893 3.63135 10.7809 3.6517C13.574 3.71275 16.3671 3.69749 19.1603 3.66187C19.9641 3.6517 20.4882 3.88064 20.9003 4.61836C22.2994 7.1266 23.7341 9.60939 25.2197 12.0668C25.6827 12.8299 25.6217 13.4252 25.1841 14.1578C23.7545 16.549 22.3503 18.9555 21.002 21.3925C20.534 22.2472 19.9438 22.6899 18.9822 22.5016C16.5757 22.0336 15.1461 23.0714 14.4745 25.3355C14.442 25.4559 14.3719 25.566 14.255 25.7496ZM8.48003 20.4092C8.66055 20.1086 8.83992 19.8344 9.01 19.5743C9.35635 19.0448 9.66423 18.5741 9.86506 18.0601C10.7809 15.6943 12.3021 14.5241 14.9629 14.9922C15.9296 15.1652 17.0184 13.9543 16.9777 13.0385C16.9421 12.1329 15.9398 11.1611 14.9884 11.1561C12.0324 11.151 9.07138 11.1459 6.11543 11.1713C4.67052 11.1815 3.8107 12.6468 4.51789 13.9034C5.5914 15.8164 6.70051 17.7039 7.80963 19.5915C7.89793 19.7452 8.01776 19.8799 8.17722 20.0593C8.26554 20.1587 8.36602 20.2717 8.48003 20.4092ZM128.56 12.4368C126.041 11.9509 125.005 12.7503 124.979 15.1396L124.976 15.4707V15.4713C124.961 16.7955 124.947 18.1196 124.985 19.4438C125.005 20.2731 124.654 20.5325 123.855 20.558L123.778 20.5604C122.615 20.5976 122.035 20.6161 121.746 20.3353C121.459 20.0562 121.459 19.4812 121.459 18.3347C121.459 17.6138 121.462 16.893 121.464 16.1721C121.472 14.3186 121.479 12.4651 121.438 10.6115C121.418 9.66012 121.744 9.27855 122.68 9.40574C122.761 9.41591 122.847 9.41252 122.933 9.40913C122.976 9.40743 123.019 9.40574 123.061 9.40574C124.232 9.40574 124.791 9.89755 124.74 10.8812C124.991 10.7335 125.243 10.5546 125.501 10.3719C126.087 9.95675 126.699 9.52277 127.371 9.39556C128.619 9.16311 128.626 9.83149 128.633 10.5762C128.637 11.0213 128.642 11.4937 128.912 11.8173C129.212 11.5019 129.502 11.1966 129.792 10.8913C132.499 8.09311 137.556 9.0496 138.838 12.6059C138.894 12.7636 138.95 12.9264 138.991 13.0892C139.601 15.5822 139.393 15.8468 136.844 15.8468C136.393 15.8468 135.942 15.8485 135.491 15.8502C134.588 15.8535 133.686 15.8569 132.784 15.8468C131.751 15.8366 131.624 16.3047 132.051 17.1136C132.616 18.1871 134.249 18.7111 135.226 17.8717C136.121 17.1022 137.032 17.1602 137.952 17.2187C138.267 17.2388 138.583 17.2589 138.899 17.2459C139.133 19.3624 136.198 20.9599 133.445 20.7564C129.51 20.4666 127.983 17.9355 128.56 12.4368ZM132.051 13.8575L131.736 13.3029H131.741C131.893 13.1633 132.041 12.9972 132.189 12.8309C132.526 12.4517 132.865 12.0712 133.257 12.0005C133.908 11.883 134.677 12.2083 135.346 12.4915L135.424 12.5245C135.638 12.6161 135.765 13.1808 135.72 13.5013C135.699 13.654 135.19 13.8269 134.895 13.8422C134.212 13.8716 133.525 13.8665 132.84 13.8614C132.577 13.8594 132.314 13.8575 132.051 13.8575ZM65.133 5.7486C65.4887 5.7486 65.8319 5.7415 66.1654 5.7346C66.9958 5.71742 67.7664 5.70147 68.5214 5.79948C68.8521 5.84018 69.2541 6.43035 69.3762 6.84755C70.0825 9.21705 70.7587 11.5948 71.4349 13.9727C71.6792 14.8318 71.9236 15.691 72.1693 16.5498C72.1943 16.634 72.246 16.7125 72.3234 16.8299C72.3722 16.9039 72.4312 16.9934 72.5 17.1094L72.7963 16.1027C73.272 14.486 73.7169 12.9741 74.1688 11.4621C74.3234 10.945 74.4873 10.4297 74.6512 9.9142L74.6513 9.91408L74.6513 9.91395L74.6514 9.91383L74.6514 9.91365L74.6515 9.91348L74.6515 9.91331L74.6516 9.91314C74.9731 8.90213 75.2949 7.89028 75.5475 6.86281C75.7816 5.92667 76.2802 5.66211 77.1654 5.72316C77.7211 5.76089 78.2813 5.75238 78.9101 5.74282C79.214 5.7382 79.534 5.73334 79.8772 5.73334L79.5267 6.78288L79.5251 6.78772C78.7709 9.04656 78.0686 11.1498 77.3588 13.253C77.1425 13.8938 76.9236 14.5337 76.7048 15.1735L76.7045 15.1744C76.2287 16.566 75.7529 17.9573 75.3033 19.3582C75.0388 20.1773 74.6674 20.5793 73.7007 20.5793L73.5756 20.5793C70.1238 20.5797 70.1053 20.5797 68.959 17.2112C67.8448 13.9398 66.7407 10.6684 65.6367 7.39702C65.5269 7.07114 65.4269 6.74032 65.3042 6.33418C65.2507 6.15697 65.1928 5.96543 65.1279 5.75369L65.133 5.7486ZM41.4404 5.74133C41.1582 5.74494 40.8762 5.74854 40.5948 5.74854H40.5897V5.73327C40.3063 5.73327 40.0221 5.7277 39.7379 5.72211C39.0064 5.70775 38.2741 5.69337 37.5523 5.77398C37.2165 5.80959 36.667 6.31836 36.667 6.61853C36.6111 10.9583 36.6213 15.3032 36.6518 19.643C36.6518 19.933 36.9163 20.4011 37.1656 20.4876C39.1244 21.1744 40.1318 20.4418 40.1318 18.4016V18.2745C40.1324 18.1005 40.1323 17.9393 40.1323 17.79C40.1317 16.7794 40.1315 16.3122 40.3641 16.0982C40.5642 15.9142 40.9364 15.9175 41.6287 15.9235C41.8526 15.9254 42.1101 15.9277 42.406 15.9239L42.533 15.9224H42.533C42.8722 15.9183 43.2109 15.9143 43.5456 15.8781C46.471 15.5474 48.2619 13.4768 48.1602 10.5462C48.0686 7.83449 46.1047 5.90117 43.2556 5.75363C42.6518 5.72587 42.0457 5.7336 41.4404 5.74133ZM40.1563 11.7725C40.1854 11.4856 40.2137 11.2067 40.1369 10.994H40.1318C40.1318 9.37268 40.6015 8.56204 41.5411 8.56204C43.4846 8.56712 44.5072 9.37607 44.4767 10.8922C44.4461 12.3829 43.393 13.1003 41.4495 13.1715C40.0091 13.222 40.0851 12.4734 40.1563 11.7725ZM53.6894 17.9782C55.0708 17.9134 56.4608 17.8485 57.8508 17.7836L59.2401 17.7188C60.205 17.6745 60.1764 18.2887 60.1493 18.8713C60.1453 18.9583 60.1413 19.0447 60.1406 19.1281C60.1406 19.2233 60.1464 19.3226 60.1522 19.4226C60.1845 19.9797 60.2181 20.5569 59.2604 20.5526C58.0414 20.5465 56.8225 20.5469 55.6035 20.5473C53.7749 20.5479 51.9464 20.5485 50.1178 20.5272C49.8024 20.5272 49.2122 20.2168 49.2224 20.0947C49.2372 19.9202 49.2459 19.735 49.2547 19.5466C49.2882 18.829 49.324 18.0637 49.7108 17.6526C50.664 16.6424 51.7257 15.7384 52.7877 14.8341C53.3356 14.3676 53.8837 13.901 54.4169 13.4197C55.0071 12.8855 55.6024 12.3207 56.0552 11.6695C56.854 10.54 56.5843 9.15617 55.5566 8.57108C54.3915 7.91477 53.145 8.30652 52.4633 9.55301C52.0766 10.2653 49.8482 10.7486 49.258 10.2195C49.1054 10.0821 49.024 9.76669 49.0443 9.54792C49.0799 9.17652 49.1868 8.80512 49.3292 8.45915C50.1738 6.44442 52.2038 5.3811 54.8799 5.53373C57.5408 5.68636 59.2452 6.85653 59.8455 8.92722C60.2881 10.4586 59.8404 11.8272 58.8382 12.9211C57.866 13.9894 56.8116 14.9829 55.7569 15.9767L55.7569 15.9767C55.3048 16.4027 54.8526 16.8288 54.4068 17.2609C54.1066 17.556 53.8064 17.851 53.6741 17.9833L53.6894 17.9782ZM116.71 18.6346C116.824 18.5042 116.955 18.3553 117.108 18.1763L117.113 18.1814C117.079 18.4053 117.057 18.5581 117.04 18.6734C117.021 18.7992 117.009 18.8802 116.996 18.9598C116.757 20.4658 116.818 20.537 118.349 20.5472C118.421 20.5472 118.492 20.5443 118.563 20.5415H118.564C118.705 20.5359 118.847 20.5302 118.985 20.5472C119.957 20.6693 120.212 20.2012 120.196 19.2956C120.175 17.9569 120.179 16.6168 120.183 15.2768C120.187 14.0857 120.19 12.8947 120.176 11.7048C120.171 11.3124 120.18 10.9872 120.186 10.7176V10.7175V10.7173V10.7172C120.202 10.1178 120.21 9.79326 120.053 9.6168C119.867 9.40857 119.45 9.40648 118.541 9.40191C118.317 9.40078 118.063 9.3995 117.775 9.39494C116.96 9.38476 116.635 9.67476 116.65 10.499C116.676 12.2695 116.696 14.0451 116.615 15.8105C116.553 17.1079 115.846 17.7693 114.747 17.7846C113.664 17.7947 112.987 17.1079 112.931 15.7902C112.886 14.8048 112.893 13.8166 112.9 12.8297V12.8292V12.8287V12.8282V12.8277C112.903 12.465 112.906 12.1025 112.906 11.7404C112.901 9.21178 112.809 9.10494 110.265 9.44073C109.96 9.48143 109.482 9.96476 109.476 10.2497C109.436 12.6104 109.41 14.9761 109.527 17.3317C109.609 18.97 110.687 20.1707 112.153 20.537C113.765 20.9389 115.165 20.6184 116.213 19.2244C116.353 19.0418 116.506 18.8676 116.71 18.6347L116.71 18.6346ZM93.151 11.7356C94.3975 10.3365 95.4252 9.24265 97.1703 9.31387C99.1697 9.39528 100.737 10.596 100.869 12.5853C101.011 14.7772 100.977 16.9779 100.943 19.1751V19.1753L100.935 19.6673C100.935 19.9573 100.543 20.4305 100.264 20.4966C98.0148 21.0105 97.5112 20.5882 97.5061 18.3191C97.5061 17.9516 97.5083 17.5836 97.5106 17.2156C97.5167 16.2334 97.5227 15.25 97.4857 14.2693C97.4348 12.8702 96.7734 12.1732 95.6236 12.1833C94.4789 12.1986 93.7971 12.9211 93.7666 14.2744C93.7259 15.9177 93.7106 17.5661 93.7666 19.2094C93.7971 20.171 93.5122 20.578 92.4845 20.5577C92.3087 20.554 92.1464 20.5513 91.9965 20.5488L91.996 20.5488C91.0062 20.5324 90.5578 20.5249 90.3591 20.2984C90.1945 20.1109 90.2012 19.7731 90.2133 19.1556V19.1555V19.1554C90.2179 18.9222 90.2233 18.6492 90.2205 18.3293C90.2123 17.2996 90.2156 16.2699 90.2189 15.2402C90.2237 13.6955 90.2286 12.1508 90.195 10.6061C90.1747 9.65475 90.4952 9.27317 91.4314 9.39528C91.5128 9.40545 91.5987 9.40206 91.6846 9.39867C91.7276 9.39697 91.7705 9.39528 91.8129 9.39528C93.7005 9.39528 93.7717 9.48177 93.1459 11.7204L93.151 11.7356ZM86.1707 20.3955C87.5851 19.9682 88.6535 19.0473 88.9944 17.2666L88.9842 17.2564C88.6167 17.2672 88.2604 17.2389 87.9131 17.2114C86.9524 17.1351 86.0608 17.0643 85.1939 17.8415C84.3646 18.5894 82.8484 18.335 82.2176 17.4905C82.0404 17.253 81.9594 16.9415 81.8785 16.6298L81.8784 16.6296C81.8432 16.494 81.808 16.3583 81.7648 16.2287C81.884 16.1884 82.0021 16.1385 82.1199 16.0887C82.3742 15.9812 82.6268 15.8744 82.8841 15.8675C84.619 15.8268 86.3488 15.837 88.0837 15.8522C88.7349 15.8573 89.1012 15.6742 89.147 14.9364C89.2997 12.3621 87.6055 9.96576 85.199 9.43664C82.2634 8.7905 79.5364 10.0522 78.6511 12.6317C77.8574 14.9466 77.8981 17.2717 79.6839 19.1541C81.49 21.062 83.8304 21.1027 86.1707 20.3955ZM83.9134 13.8651C83.8726 13.8615 83.8316 13.858 83.7917 13.8578L83.7948 13.8578H83.7897L83.7917 13.8578C83.7286 13.858 83.6641 13.8617 83.5995 13.8655C83.4515 13.8742 83.3029 13.8829 83.169 13.8477C82.8514 13.7637 82.5416 13.6535 82.2322 13.5435L82.2314 13.5432C82.1099 13.5 81.9884 13.4568 81.8665 13.4152C81.9603 13.2806 82.0474 13.1369 82.1343 12.9934C82.3399 12.6542 82.5451 12.3156 82.8383 12.0975C83.1588 11.8584 83.8151 11.7363 84.1356 11.9093C84.5545 12.1348 84.9054 12.4838 85.2574 12.834L85.2576 12.8342C85.4058 12.9816 85.5541 13.1291 85.7077 13.2677L85.5769 13.3183L85.3613 13.4022L85.3611 13.4023C84.9641 13.5567 84.5682 13.7109 84.1662 13.8528C84.09 13.8805 84.0019 13.8728 83.9134 13.8651ZM139.795 17.255C140.194 17.2746 140.588 17.238 140.974 17.2022C141.985 17.1082 142.941 17.0195 143.784 17.9621C144.043 18.2521 144.674 18.4099 145.066 18.3234C145.421 18.2446 145.742 18.0121 146.063 17.7802L146.063 17.7801L146.063 17.78C146.198 17.6825 146.333 17.585 146.47 17.4992C146.351 17.3895 146.237 17.2654 146.123 17.1411C145.86 16.8557 145.597 16.5696 145.275 16.4562C144.766 16.2708 144.224 16.1786 143.68 16.0861C143.343 16.0287 143.006 15.9712 142.675 15.8914C140.986 15.4844 140.024 14.4364 139.948 12.9762C139.866 11.4804 140.635 10.3052 142.283 9.74551C144.41 9.02306 146.582 8.95183 148.454 10.356C148.867 10.6639 149.088 11.2268 149.307 11.7883L149.307 11.7885C149.407 12.0435 149.507 12.2981 149.625 12.5285C149.319 12.5225 149.014 12.5187 148.709 12.5149C147.976 12.5058 147.244 12.4968 146.511 12.4573C146.432 12.4522 146.362 12.3581 146.29 12.2614C146.218 12.1648 146.145 12.0655 146.058 12.0502L145.94 12.0283C145.372 11.9226 144.793 11.8147 144.232 11.8671C143.972 11.8925 143.575 12.3453 143.57 12.6048C143.57 12.8795 143.911 13.3018 144.191 13.4036C144.903 13.658 145.661 13.7953 146.409 13.9225C148.902 14.355 150.138 15.3572 150.154 17.0057C150.169 18.7864 148.709 20.2211 146.384 20.6332C144.725 20.9283 143.082 20.8265 141.576 19.9769C140.619 19.4376 139.922 18.6846 139.79 17.2499L139.795 17.255ZM102.951 14.6521C102.953 14.877 102.954 15.1022 102.954 15.328V15.3331C102.954 15.5298 102.954 15.7265 102.953 15.9232C102.952 16.3167 102.951 16.7101 102.954 17.1036C102.98 19.9679 105.239 21.4943 108.006 20.5683C108.741 20.3235 108.707 19.8427 108.674 19.3597C108.663 19.2004 108.651 19.0408 108.668 18.8894C108.739 18.2483 108.429 17.9583 107.772 18.0092C106.729 18.0906 106.47 17.4699 106.485 16.5795C106.506 15.4806 106.521 14.3817 106.48 13.2878C106.45 12.428 106.668 11.9141 107.666 11.9497C108.52 11.9806 108.517 11.4093 108.513 10.8526C108.513 10.7661 108.512 10.6799 108.515 10.5964C108.536 9.97062 108.52 9.33466 107.635 9.42115C106.602 9.51781 106.394 8.94799 106.49 8.10852C106.649 6.73821 105.851 6.74612 105.032 6.75423C104.881 6.75573 104.729 6.75723 104.582 6.7501C103.611 6.70432 102.761 6.72467 102.944 8.09834C103.036 8.80045 103.015 9.45676 101.967 9.47711C101.754 9.4822 101.372 10.1385 101.392 10.4743C101.423 10.9729 101.687 11.8276 101.957 11.8683C102.924 12.0159 102.975 12.5755 102.954 13.3031C102.944 13.754 102.948 14.2026 102.951 14.6521Z" fill="white"/>
</svg>
