<svg width="24" height="24" viewBox="0 0 24 24" fill="none" xmlns="http://www.w3.org/2000/svg">
<g clip-path="url(#clip0_3297_18592)">
<mask id="mask0_3297_18592" style="mask-type:luminance" maskUnits="userSpaceOnUse" x="0" y="0" width="24" height="24">
<path d="M24 0H0V24H24V0Z" fill="white"/>
</mask>
<g mask="url(#mask0_3297_18592)">
<path d="M9.2001 23C9.0001 23 8.9001 22.9 8.7001 22.8C8.3001 22.5 8.1001 22.1 8.1001 21.6C8.1001 20.7 8.1001 19.8 8.1001 19V18.7H7.8001C7.5001 18.7 7.2001 18.7 7.0001 18.7C6.1001 18.7 5.6001 18.2 5.6001 17.4C5.6001 15.9 5.6001 14.5 5.6001 13V8.5H17.9001V8.7C17.9001 11.6 17.9001 14.4 17.9001 17.3C17.9001 18.2 17.4001 18.7 16.5001 18.7H15.4001V19C15.4001 19.8 15.4001 20.6 15.4001 21.4C15.4001 22.2 15.2001 22.8 14.3001 23.1H13.7001C13.0001 22.8 12.7001 22.4 12.7001 21.7C12.7001 20.8 12.7001 19.9 12.7001 19V18.8H10.9001V19.1C10.9001 20 10.9001 21 10.9001 21.9C10.9001 22.3 10.7001 22.7 10.4001 22.9C10.2001 23 10.0001 23.1 9.9001 23.2H9.3001L9.2001 23Z" fill="#332263"/>
<path d="M21.2 15.1999C21.2 15.2999 21.2 15.3999 21.2 15.5999C21 16.1999 20.4 16.5999 19.7 16.4999C19.1 16.4999 18.6 15.8999 18.5 15.1999C18.5 13.2999 18.5 11.3999 18.5 9.39985C18.5 8.69985 19.1 8.19985 19.7 8.09985C20.6 8.09985 21.1 8.69985 21.2 9.29985C21.2 9.29985 21.2 9.29985 21.2 9.39985V15.1999Z" fill="#332263"/>
<path d="M14.8001 2.89995C16.8001 3.99995 18.0001 5.49995 17.9001 7.79995H5.6001C5.6001 6.69995 5.8001 5.79995 6.4001 4.89995C7.0001 3.99995 7.8001 3.39995 8.7001 2.89995C8.4001 2.39995 8.1001 1.99995 7.8001 1.49995C7.8001 1.49995 7.8001 1.39995 7.7001 1.29995C7.7001 1.19995 7.7001 1.09995 7.7001 0.999951C7.8001 0.999951 7.9001 0.999951 8.0001 0.999951C8.3001 1.39995 8.6001 1.89995 8.9001 2.39995C8.9001 2.39995 9.0001 2.59995 9.1001 2.59995C10.9001 1.89995 12.6001 1.89995 14.4001 2.59995C14.7001 2.09995 15.0001 1.59995 15.4001 1.09995C15.4001 1.09995 15.4001 0.999951 15.5001 0.899951C15.5001 0.799951 15.7001 0.799951 15.8001 0.899951C15.9001 0.899951 15.9001 1.09995 15.8001 1.19995C15.6001 1.39995 15.5001 1.69995 15.3001 1.89995C15.1001 2.19995 14.9001 2.39995 14.8001 2.69995V2.89995ZM8.9001 5.69995C9.2001 5.69995 9.5001 5.39995 9.5001 5.09995C9.5001 4.79995 9.2001 4.49995 8.9001 4.49995C8.6001 4.49995 8.3001 4.79995 8.3001 5.09995C8.3001 5.39995 8.6001 5.69995 8.9001 5.69995ZM14.6001 5.69995C14.9001 5.69995 15.2001 5.49995 15.2001 5.09995C15.2001 4.79995 14.9001 4.49995 14.6001 4.49995C14.3001 4.49995 14.0001 4.79995 14.0001 5.09995C14.0001 5.39995 14.3001 5.69995 14.6001 5.69995Z" fill="#332263"/>
<path d="M5.00005 12.3C5.00005 13.2 5.00005 14.2 5.00005 15.1C5.00005 15.8 4.50005 16.3 3.80005 16.4C3.10005 16.4 2.50005 16.1 2.30005 15.4C2.30005 15.2 2.30005 15.1 2.30005 14.9C2.30005 13.1 2.30005 11.3 2.30005 9.50004C2.30005 8.80004 2.70005 8.30004 3.30005 8.10004C4.10005 7.90004 5.00005 8.50004 5.00005 9.30004C5.00005 10.3 5.00005 11.2 5.00005 12.2V12.3Z" fill="#332263"/>
</g>
</g>
<defs>
<clipPath id="clip0_3297_18592">
<rect width="24" height="24" fill="white"/>
</clipPath>
</defs>
</svg>
