<svg width="36" height="36" viewBox="0 0 36 36" fill="none" xmlns="http://www.w3.org/2000/svg">
<rect x="0.5" y="0.5" width="35" height="35" rx="7.5" fill="#F7F7F7"/>
<rect x="0.5" y="0.5" width="35" height="35" rx="7.5" stroke="#B1B1B1"/>
<path fill-rule="evenodd" clip-rule="evenodd" d="M10.5 13.0003C10.5 12.5401 10.8731 12.167 11.3333 12.167H24.6667C25.1269 12.167 25.5 12.5401 25.5 13.0003C25.5 13.4606 25.1269 13.8337 24.6667 13.8337H11.3333C10.8731 13.8337 10.5 13.4606 10.5 13.0003ZM10.5 18.0003C10.5 17.5401 10.8731 17.167 11.3333 17.167H24.6667C25.1269 17.167 25.5 17.5401 25.5 18.0003C25.5 18.4606 25.1269 18.8337 24.6667 18.8337H11.3333C10.8731 18.8337 10.5 18.4606 10.5 18.0003ZM10.5 23.0003C10.5 22.5401 10.8731 22.167 11.3333 22.167H24.6667C25.1269 22.167 25.5 22.5401 25.5 23.0003C25.5 23.4606 25.1269 23.8337 24.6667 23.8337H11.3333C10.8731 23.8337 10.5 23.4606 10.5 23.0003Z" fill="black"/>
</svg>
