<svg width="24" height="24" viewBox="0 0 24 24" fill="none" xmlns="http://www.w3.org/2000/svg">
<g clip-path="url(#clip0_3297_18559)">
<mask id="mask0_3297_18559" style="mask-type:luminance" maskUnits="userSpaceOnUse" x="0" y="0" width="24" height="24">
<path d="M24 0H0V24H24V0Z" fill="white"/>
</mask>
<g mask="url(#mask0_3297_18559)">
<path d="M15.66 15.0201C14.56 14.9401 13.68 14.0401 13.68 12.9201C13.68 11.8001 13.68 12.8401 13.68 12.8001C13.68 12.7601 13.68 12.7201 13.68 12.6801C13.68 11.5601 14.56 10.6401 15.66 10.5801C16.76 10.6401 17.64 11.5601 17.64 12.6601C17.64 13.7601 17.64 12.7601 17.64 12.8001C17.64 12.8401 17.64 12.8801 17.64 12.9201C17.64 14.0401 16.76 14.9401 15.66 15.0201ZM8.36 15.0201C7.26 14.9401 6.38 14.0401 6.38 12.9201C6.38 11.8001 6.38 12.8401 6.38 12.8001C6.38 12.7601 6.38 12.7201 6.38 12.6801C6.38 11.5601 7.26 10.6401 8.36 10.5801C9.46 10.6401 10.34 11.5601 10.34 12.6601C10.34 13.7601 10.34 12.7601 10.34 12.8001C10.34 12.8201 10.34 12.8801 10.34 12.9201C10.34 14.0401 9.46 14.9601 8.36 15.0201ZM19.62 4.98008C18.32 4.36008 16.82 3.88008 15.26 3.60008H15.16C15.14 3.60008 15.12 3.60008 15.1 3.64008C14.92 3.94008 14.74 4.32008 14.58 4.70008L14.54 4.78008C13.78 4.66008 12.92 4.60008 12.02 4.60008C11.12 4.60008 10.26 4.66008 9.42 4.80008H9.52C9.32 4.32008 9.14 3.96008 8.92 3.58008L8.96 3.64008C8.96 3.62008 8.92 3.60008 8.9 3.60008C7.22 3.90008 5.72 4.38008 4.32 5.04008L4.44 5.00008C4.44 5.00008 4.42 5.00008 4.42 5.02008C2.26 7.96008 1 11.6401 1 15.6201C1 19.6001 1.04 16.9401 1.1 17.5801V17.5001C1.1 17.5201 1.1 17.5401 1.12 17.5601C2.68 18.7401 4.52 19.6801 6.48 20.3001L6.6 20.3401C6.6 20.3401 6.6 20.3401 6.62 20.3401C6.64 20.3401 6.66 20.3401 6.68 20.3201C7.08 19.8001 7.44 19.2001 7.76 18.5601L7.8 18.4801C7.8 18.4801 7.8 18.4801 7.8 18.4401C7.8 18.4001 7.8 18.3801 7.76 18.3801C7.1 18.1201 6.52 17.8401 5.98 17.5401L6.04 17.5801C6.02 17.5801 6 17.5401 6 17.5201C6 17.5001 6 17.4801 6.02 17.4601C6.14 17.3801 6.26 17.2801 6.36 17.2001C6.36 17.2001 6.38 17.2001 6.4 17.2001C6.42 17.2001 6.4 17.2001 6.42 17.2001C8.04 17.9801 9.94 18.4401 11.94 18.4401C13.94 18.4401 15.84 17.9801 17.54 17.1801L17.46 17.2201C17.46 17.2201 17.46 17.2201 17.48 17.2201H17.52C17.62 17.3201 17.74 17.4001 17.86 17.4801C17.86 17.4801 17.88 17.5201 17.88 17.5401C17.88 17.5601 17.88 17.5801 17.84 17.6001C17.36 17.8801 16.8 18.1601 16.2 18.4001H16.12C16.1 18.4401 16.08 18.4601 16.08 18.5001C16.08 18.5401 16.08 18.5201 16.08 18.5401C16.44 19.2401 16.82 19.8401 17.24 20.4001V20.3601C17.24 20.3601 17.24 20.3801 17.26 20.3801C17.28 20.3801 17.26 20.3801 17.28 20.3801C19.38 19.7201 21.2 18.7801 22.82 17.5801L22.78 17.6201C22.78 17.6201 22.8 17.5801 22.8 17.5601C22.86 16.9801 22.9 16.3201 22.9 15.6401C22.9 11.6601 21.64 8.00008 19.52 4.98008L19.56 5.04008C19.56 5.04008 19.56 5.02008 19.54 5.02008L19.62 4.98008Z" fill="url(#paint0_linear_3297_18559)"/>
</g>
</g>
<defs>
<linearGradient id="paint0_linear_3297_18559" x1="1" y1="3.58008" x2="19.8309" y2="23.3268" gradientUnits="userSpaceOnUse">
<stop stop-color="#FAC8FF"/>
<stop offset="0.33" stop-color="#C8FFEE"/>
<stop offset="0.66" stop-color="#E9FF44"/>
<stop offset="1" stop-color="#35EBFF"/>
</linearGradient>
<clipPath id="clip0_3297_18559">
<rect width="24" height="24" fill="white"/>
</clipPath>
</defs>
</svg>
