<svg width="182" height="58" viewBox="0 0 182 58" fill="none" xmlns="http://www.w3.org/2000/svg">
<path d="M8.92255 5.68408C7.15804 5.68408 5.73755 7.11567 5.73755 8.86908V53.6255H45.4002C46.743 53.6255 48.0304 53.0929 48.9847 52.1385L52.203 48.9202C53.1574 47.9658 53.6901 46.6785 53.6901 45.3357V5.68408H8.92255ZM13.5058 11.8543H37.0438L21.4517 27.4464C21.0633 27.8348 20.5417 28.0457 19.9979 28.0457C19.1989 28.0457 18.4775 27.5907 18.1335 26.8693L12.0965 14.096C11.6082 13.0529 12.3628 11.8543 13.5169 11.8543H13.5058ZM11.8967 47.4664V32.296C11.8967 31.4859 12.5515 30.8312 13.3616 30.8312H28.5319L11.8967 47.4664ZM32.405 26.9581C31.7169 27.6462 30.7736 28.0457 29.786 28.0457H24.7588L39.8736 12.9308C40.5617 12.2427 41.505 11.8432 42.4927 11.8432H47.5199L32.405 26.9581Z" fill="black"/>
<path d="M62.6125 22.6745V8.23657H68.0726C68.9382 8.23657 69.6373 8.31425 70.1811 8.48072C70.7249 8.64718 71.191 8.92462 71.5794 9.32413C71.9456 9.70145 72.2119 10.1786 72.3673 10.7557C72.5227 11.3328 72.6004 11.9543 72.6004 12.6312C72.6004 13.3082 72.5005 13.9185 72.3118 14.5178C72.1232 15.106 71.8235 15.6054 71.4018 16.016C70.6028 16.7928 69.5041 17.1923 68.0947 17.1923H64.6323V22.6856H62.6125V22.6745ZM64.6323 15.3723H68.8605C69.3488 15.3723 69.7372 15.2169 70.0257 14.9062C70.3143 14.5955 70.4696 14.196 70.4696 13.7299V11.6213C70.4696 11.133 70.3254 10.7557 70.0479 10.4672C69.7594 10.1786 69.371 10.0455 68.8716 10.0455H64.6434V15.3723H64.6323Z" fill="black"/>
<path d="M74.6424 17.27C74.6424 16.4488 74.7423 15.683 74.9421 14.9839C75.1418 14.2847 75.4415 13.6855 75.841 13.1861C76.2405 12.6867 76.751 12.2983 77.3613 12.0208C77.9717 11.7323 78.682 11.5991 79.5143 11.5991C80.3466 11.5991 81.0457 11.7434 81.6561 12.0208C82.2665 12.3094 82.7659 12.6978 83.1654 13.1861C83.5649 13.6855 83.8645 14.2736 84.0643 14.9839C84.264 15.683 84.3639 16.4488 84.3639 17.27C84.3639 18.0912 84.264 18.868 84.0643 19.5561C83.8645 20.2441 83.5649 20.8434 83.1654 21.3428C82.7659 21.8422 82.2554 22.2306 81.645 22.5191C81.0346 22.8077 80.3244 22.9408 79.5032 22.9408C78.682 22.9408 77.9606 22.7966 77.3503 22.5191C76.7399 22.2306 76.2294 21.8422 75.8299 21.3428C75.4304 20.8434 75.1196 20.2552 74.931 19.5561C74.7312 18.868 74.6313 18.1023 74.6313 17.27H74.6424ZM76.6622 18.9457C76.6622 19.3119 76.7399 19.6449 76.8953 19.9556C77.0506 20.2552 77.2504 20.5216 77.5056 20.7324C77.7609 20.9433 78.0605 21.1097 78.4045 21.2318C78.7485 21.3539 79.1148 21.4094 79.5032 21.4094C79.8916 21.4094 80.2467 21.3539 80.5907 21.2318C80.9348 21.1097 81.2344 20.9433 81.4896 20.7324C81.7449 20.5216 81.9446 20.2663 82.1 19.9556C82.2554 19.656 82.3331 19.3119 82.3331 18.9457V15.5831C82.3331 15.2169 82.2554 14.884 82.1 14.5733C81.9446 14.2736 81.7449 14.0073 81.4896 13.7964C81.2344 13.5856 80.9348 13.4191 80.5907 13.297C80.2467 13.175 79.8805 13.1195 79.5032 13.1195C79.1259 13.1195 78.7596 13.175 78.4156 13.297C78.0716 13.4191 77.7609 13.5856 77.5056 13.7964C77.2504 14.0073 77.0506 14.2736 76.8953 14.5733C76.7399 14.8729 76.6622 15.2169 76.6622 15.5831V18.9457Z" fill="black"/>
<path d="M86.2504 11.8544H88.1591L90.3232 20.3218H90.4119L92.3207 11.8544H94.629L96.6155 20.3218H96.6932L98.8572 11.8544H100.722L97.5588 22.6745H95.5612L93.5193 13.9074L93.3417 13.8852L91.2776 22.6745H89.3799L86.2393 11.8544H86.2504Z" fill="black"/>
<path d="M102.619 17.27C102.619 16.4488 102.719 15.683 102.93 14.9839C103.13 14.2847 103.441 13.6855 103.84 13.1861C104.24 12.6867 104.739 12.2983 105.305 12.0208C105.882 11.7323 106.537 11.5991 107.291 11.5991C108.046 11.5991 108.745 11.7323 109.322 11.9986C109.899 12.265 110.377 12.6312 110.754 13.0973C111.131 13.5634 111.42 14.1072 111.608 14.7397C111.797 15.3723 111.897 16.0492 111.897 16.7706V17.7916H104.639V18.9457C104.639 19.3341 104.717 19.6892 104.861 19.9889C105.005 20.2885 105.216 20.5549 105.471 20.7657C105.727 20.9766 106.015 21.1319 106.326 21.2429C106.648 21.3539 106.97 21.3983 107.314 21.3983C107.991 21.3983 108.579 21.2207 109.067 20.8767C109.566 20.5327 109.844 19.9778 109.91 19.2342H111.808C111.764 19.8113 111.619 20.3329 111.353 20.7879C111.087 21.2429 110.754 21.6202 110.343 21.942C109.933 22.2639 109.455 22.508 108.934 22.6745C108.412 22.852 107.857 22.9297 107.28 22.9297C106.703 22.9297 105.815 22.7855 105.227 22.508C104.639 22.2195 104.151 21.8311 103.762 21.3317C103.374 20.8323 103.085 20.2441 102.886 19.545C102.697 18.8569 102.597 18.0912 102.597 17.2589L102.619 17.27ZM104.639 16.2712H109.933V15.6719C109.933 15.2835 109.866 14.9173 109.722 14.6066C109.578 14.2847 109.389 14.0184 109.145 13.7964C108.901 13.5745 108.612 13.408 108.301 13.297C107.991 13.1861 107.647 13.1306 107.291 13.1306C106.936 13.1306 106.603 13.1861 106.293 13.297C105.971 13.408 105.693 13.5745 105.449 13.7964C105.205 14.0184 105.005 14.2847 104.861 14.6066C104.717 14.9284 104.65 15.2835 104.65 15.6719V16.2712H104.639Z" fill="black"/>
<path d="M114.815 22.6745V11.8544H120.02V13.4968H116.724V22.6634H114.815V22.6745Z" fill="black"/>
<path d="M121.829 17.27C121.829 16.4488 121.929 15.683 122.14 14.9839C122.34 14.2847 122.65 13.6855 123.05 13.1861C123.449 12.6867 123.949 12.2983 124.515 12.0208C125.092 11.7323 125.747 11.5991 126.501 11.5991C127.256 11.5991 127.955 11.7323 128.532 11.9986C129.109 12.265 129.586 12.6312 129.964 13.0973C130.341 13.5634 130.629 14.1072 130.818 14.7397C131.007 15.3723 131.107 16.0492 131.107 16.7706V17.7916H123.849V18.9457C123.849 19.3341 123.927 19.6892 124.071 19.9889C124.215 20.2885 124.426 20.5549 124.681 20.7657C124.936 20.9766 125.225 21.1319 125.536 21.2429C125.857 21.3539 126.179 21.3983 126.523 21.3983C127.2 21.3983 127.788 21.2207 128.277 20.8767C128.776 20.5327 129.054 19.9778 129.12 19.2342H131.018C130.973 19.8113 130.829 20.3329 130.563 20.7879C130.297 21.2429 129.964 21.6202 129.553 21.942C129.142 22.2639 128.665 22.508 128.144 22.6745C127.622 22.852 127.067 22.9297 126.49 22.9297C125.913 22.9297 125.025 22.7855 124.437 22.508C123.849 22.2195 123.361 21.8311 122.972 21.3317C122.584 20.8323 122.295 20.2441 122.095 19.545C121.907 18.8569 121.807 18.0912 121.807 17.2589L121.829 17.27ZM123.849 16.2712H129.142V15.6719C129.142 15.2835 129.076 14.9173 128.932 14.6066C128.787 14.2847 128.599 14.0184 128.354 13.7964C128.11 13.5745 127.822 13.408 127.511 13.297C127.189 13.1861 126.856 13.1306 126.501 13.1306C126.146 13.1306 125.813 13.1861 125.502 13.297C125.181 13.408 124.903 13.5745 124.659 13.7964C124.415 14.0184 124.215 14.2847 124.071 14.6066C123.927 14.9284 123.86 15.2835 123.86 15.6719V16.2712H123.849Z" fill="black"/>
<path d="M133.47 17.27C133.47 16.4932 133.559 15.7496 133.737 15.0616C133.914 14.3624 134.181 13.7632 134.536 13.2638C134.891 12.7533 135.335 12.3538 135.879 12.0541C136.422 11.7545 137.044 11.6102 137.765 11.6102C138.487 11.6102 139.263 11.7878 139.84 12.1318C140.418 12.4759 140.884 12.9752 141.217 13.63V8.24768H143.125V22.6856H141.217V20.9211C140.884 21.5759 140.429 22.0752 139.863 22.4193C139.297 22.7633 138.62 22.9409 137.81 22.9409C136.999 22.9409 136.434 22.7966 135.89 22.4969C135.346 22.1973 134.891 21.7978 134.536 21.2873C134.181 20.7768 133.903 20.1776 133.737 19.4895C133.559 18.8015 133.47 18.069 133.47 17.2811V17.27ZM135.501 18.9457C135.501 19.3119 135.568 19.6449 135.712 19.9556C135.856 20.2552 136.045 20.5216 136.3 20.7324C136.544 20.9433 136.833 21.1098 137.166 21.2318C137.499 21.3539 137.865 21.4094 138.265 21.4094C139.219 21.4094 139.951 21.1098 140.462 20.4994C140.972 19.889 141.228 19.1233 141.228 18.1911V16.3711C141.228 15.4389 140.972 14.6621 140.462 14.0517C139.951 13.4413 139.219 13.1306 138.265 13.1306C137.31 13.1306 137.51 13.1861 137.177 13.3082C136.844 13.4302 136.556 13.5967 136.3 13.8076C136.056 14.0184 135.856 14.2848 135.712 14.5844C135.568 14.884 135.501 15.228 135.501 15.5943V18.9568V18.9457Z" fill="black"/>
<path d="M153.979 22.6745V8.23657H155.888V13.6189C156.22 12.9641 156.687 12.4647 157.253 12.1207C157.83 11.7767 158.529 11.5991 159.35 11.5991C160.171 11.5991 160.693 11.7434 161.237 12.043C161.78 12.3427 162.224 12.7422 162.579 13.2527C162.934 13.7632 163.201 14.3624 163.378 15.0505C163.556 15.7496 163.645 16.4821 163.645 17.2589C163.645 18.0357 163.556 18.7904 163.378 19.4784C163.201 20.1664 162.934 20.7546 162.579 21.2762C162.224 21.7867 161.78 22.1973 161.248 22.4858C160.715 22.7855 160.082 22.9297 159.361 22.9297C158.64 22.9297 157.841 22.7522 157.264 22.4082C156.687 22.0641 156.232 21.5647 155.899 20.91V22.6745H153.99H153.979ZM155.888 18.18C155.888 19.1122 156.143 19.8779 156.653 20.4883C157.164 21.0986 157.896 21.3983 158.862 21.3983C159.827 21.3983 160.327 21.1763 160.848 20.7213C161.359 20.2663 161.625 19.6782 161.625 18.9457V15.5832C161.625 14.8507 161.37 14.2515 160.848 13.7965C160.338 13.3415 159.672 13.1084 158.862 13.1084C158.052 13.1084 157.164 13.4191 156.653 14.0295C156.143 14.6399 155.888 15.4167 155.888 16.3489V18.1689V18.18Z" fill="black"/>
<path d="M165.465 11.8544H167.529L170.348 20.3218H170.437L173.333 11.8544H175.308L170.004 26.2812H166.308V24.6388H168.794L169.482 22.6745L165.465 11.8544Z" fill="black"/>
<path d="M133.437 30.7646H136.611L141.871 48.4431H141.993L147.254 30.7646H150.428L143.58 51.9277H140.284L133.448 30.7646H133.437Z" fill="black"/>
<path d="M154.356 51.9277V30.7646H159.05L164.455 47.1114H164.577L169.948 30.7646H174.576V51.9277H171.779V33.9164H171.657L165.665 51.9277H163.301L157.275 33.9164H157.153V51.9277H154.356Z" fill="black"/>
<path d="M79.37 50.374V30.7646H82.0889V49.2088H92.7204L92.6649 30.7868L95.4393 30.7646V50.374C95.4393 51.2286 94.7401 51.9277 93.8856 51.9277H80.9125C80.058 51.9277 79.3589 51.2286 79.3589 50.374H79.37Z" fill="black"/>
<path d="M115.936 50.374V30.7646H118.655V49.2088H129.62V51.9277H117.49C116.635 51.9277 115.936 51.2286 115.936 50.374Z" fill="black"/>
<path d="M62.6125 51.9277H65.3315V42.7389H75.5745V40.02H65.3315V33.4947H75.408C75.7077 33.4947 75.9851 33.3171 76.1072 33.0508L77.1947 30.7758H64.1662C63.3117 30.7758 62.6125 31.4749 62.6125 32.3294V51.9388V51.9277Z" fill="black"/>
<path d="M98.4021 32.3183C98.4021 31.4638 99.1012 30.7646 99.9558 30.7646H112.984L111.897 33.0396C111.764 33.306 111.497 33.4836 111.198 33.4836H101.121V40.0089H111.364V42.7278H101.121V49.1977H112.984V51.9166H99.9558C99.1012 51.9166 98.4021 51.2175 98.4021 50.3629V32.3072V32.3183Z" fill="black"/>
</svg>
