<svg width="182" height="58" viewBox="0 0 182 58" fill="none" xmlns="http://www.w3.org/2000/svg">
<mask id="path-1-inside-1_1_2400" fill="white">
<path d="M0 0.5H181.406V57.5H0V0.5Z"/>
</mask>
<path d="M180.406 0.5V57.5H182.406V0.5H180.406Z" fill="#DBD3FF" mask="url(#path-1-inside-1_1_2400)"/>
<path d="M153.873 46.9692H152.409L161.053 33.468H164.144V48.5029H161.053V37.5811L161.797 37.7903L154.895 48.5029H151.433L144.531 37.8367L145.275 37.6276V48.5029H142.184V33.468H145.275L153.873 46.9692Z" fill="black"/>
<path d="M130.431 48.5029L123.785 33.468H127.201L132.894 47.039H131.825L137.495 33.468H140.865L134.288 48.5029H130.431Z" fill="black"/>
<path d="M110.626 42.2287V45.9235H122.222V48.5029H107.535V33.468H122.198V36.0474H110.626V39.7887H120.107V42.2287H110.626Z" fill="black"/>
<path d="M101.304 32.3098H104.325V48.5066H101.304V32.3098Z" fill="black"/>
<path d="M96.1196 44.672H99.0476C98.9237 45.4621 98.5906 46.167 98.0484 46.7867C97.5217 47.4063 96.8013 47.8943 95.8873 48.2506C94.9732 48.607 93.8578 48.7851 92.541 48.7851C91.0693 48.7851 89.7679 48.5527 88.637 48.088C87.5061 47.6077 86.6231 46.9183 85.9879 46.0198C85.3527 45.1213 85.0352 44.0368 85.0352 42.7665C85.0352 41.4962 85.345 40.4117 85.9647 39.5132C86.5843 38.5992 87.4442 37.902 88.5441 37.4218C89.6595 36.9415 90.9608 36.7014 92.448 36.7014C93.9663 36.7014 95.2288 36.9415 96.2358 37.4218C97.2428 37.902 97.9864 38.6302 98.4667 39.6062C98.9624 40.5667 99.1715 41.7983 99.0941 43.301H88.0793C88.1568 43.8897 88.3737 44.4241 88.73 44.9044C89.1018 45.3846 89.5975 45.7642 90.2172 46.043C90.8524 46.3219 91.6037 46.4613 92.4713 46.4613C93.4318 46.4613 94.2296 46.2987 94.8648 45.9733C95.5154 45.6325 95.9337 45.1987 96.1196 44.672ZM92.3086 39.002C91.1932 39.002 90.2869 39.2498 89.5898 39.7456C88.8926 40.2258 88.4434 40.8223 88.242 41.5349H96.0964C96.0189 40.7603 95.6471 40.1484 94.981 39.6991C94.3303 39.2343 93.4395 39.002 92.3086 39.002Z" fill="black"/>
<path d="M83.0844 48.5041H80.0635V36.9548H83.0844V48.5041ZM80.2262 42.9502L80.2494 43.7403C80.2184 43.9572 80.141 44.2748 80.017 44.6931C79.8931 45.0958 79.6995 45.5296 79.4361 45.9944C79.1882 46.4591 78.8629 46.9084 78.4601 47.3422C78.0573 47.7605 77.5616 48.109 76.9729 48.3879C76.3842 48.6512 75.687 48.7829 74.8815 48.7829C74.2463 48.7829 73.6189 48.7055 72.9992 48.5505C72.395 48.3956 71.8451 48.14 71.3493 47.7837C70.8536 47.4119 70.4585 46.9161 70.1642 46.2965C69.8698 45.6768 69.7227 44.8944 69.7227 43.9494V36.9548H72.7436V43.4382C72.7436 44.1818 72.8598 44.7705 73.0922 45.2043C73.34 45.6226 73.6963 45.9169 74.1611 46.0873C74.6259 46.2577 75.1758 46.3429 75.811 46.3429C76.6476 46.3429 77.3679 46.1648 77.9721 45.8085C78.5763 45.4367 79.0643 44.9874 79.4361 44.4607C79.8234 43.9339 80.0868 43.4305 80.2262 42.9502Z" fill="black"/>
<path d="M68.7412 33.468V36.0474H57.1688V40.0908H66.6498V42.5076H57.1688V48.5029H54.0781V33.468H68.7412Z" fill="black"/>
<path d="M158.6 13.6497H160.599L164.758 24.8039L163.131 25.2686L158.6 13.6497ZM169.406 13.6497L162.922 29.9162H160.901L163.712 23.642L167.431 13.6497H169.406Z" fill="black"/>
<path d="M152.828 25.4992C151.976 25.4992 151.279 25.3055 150.737 24.9182C150.194 24.5154 149.768 24.0042 149.459 23.3845C149.164 22.7493 148.955 22.0909 148.831 21.4093C148.707 20.7121 148.645 20.0692 148.645 19.4805C148.645 18.644 148.699 17.8616 148.808 17.1335C148.932 16.4054 149.141 15.7625 149.435 15.2048C149.73 14.6471 150.148 14.2133 150.69 13.9034C151.248 13.5781 151.96 13.4154 152.828 13.4154C153.804 13.4154 154.672 13.6788 155.431 14.2055C156.19 14.7323 156.786 15.4526 157.22 16.3667C157.654 17.2807 157.871 18.3186 157.871 19.4805C157.871 20.6424 157.646 21.6804 157.197 22.5944C156.747 23.4929 156.143 24.2056 155.384 24.7323C154.625 25.2435 153.773 25.4992 152.828 25.4992ZM152.363 23.7331C153.076 23.7331 153.703 23.5549 154.246 23.1986C154.788 22.8268 155.214 22.3233 155.524 21.6881C155.849 21.0375 156.012 20.3016 156.012 19.4805C156.012 18.2412 155.694 17.2187 155.059 16.4131C154.424 15.5921 153.525 15.1815 152.363 15.1815C151.589 15.1815 150.938 15.3674 150.411 15.7392C149.9 16.0955 149.513 16.599 149.249 17.2497C149.002 17.8849 148.878 18.6285 148.878 19.4805C148.878 20.2551 149.002 20.9678 149.249 21.6184C149.513 22.2536 149.9 22.7648 150.411 23.1521C150.923 23.5394 151.573 23.7331 152.363 23.7331ZM148.878 9.00024V22.943C148.878 23.2218 148.854 23.5936 148.808 24.0584C148.777 24.5232 148.746 24.926 148.715 25.2668H147.019V9.00024H148.878Z" fill="black"/>
<path d="M133.128 25.4992C132.198 25.4992 131.346 25.2435 130.571 24.7323C129.812 24.2056 129.208 23.4929 128.759 22.5944C128.31 21.6804 128.085 20.6424 128.085 19.4805C128.085 18.3186 128.302 17.2807 128.736 16.3667C129.169 15.4526 129.766 14.7323 130.525 14.2055C131.284 13.6788 132.152 13.4154 133.128 13.4154C133.995 13.4154 134.7 13.5781 135.242 13.9034C135.8 14.2133 136.226 14.6471 136.52 15.2048C136.815 15.7625 137.016 16.4054 137.125 17.1335C137.248 17.8616 137.31 18.644 137.31 19.4805C137.31 20.0692 137.248 20.7121 137.125 21.4093C137.001 22.0909 136.784 22.7493 136.474 23.3845C136.179 24.0042 135.761 24.5154 135.219 24.9182C134.677 25.3055 133.98 25.4992 133.128 25.4992ZM133.592 23.7331C134.382 23.7331 135.033 23.5394 135.544 23.1521C136.071 22.7648 136.458 22.2536 136.706 21.6184C136.954 20.9678 137.078 20.2551 137.078 19.4805C137.078 18.6285 136.946 17.8849 136.683 17.2497C136.435 16.599 136.048 16.0955 135.521 15.7392C135.01 15.3674 134.367 15.1815 133.592 15.1815C132.43 15.1815 131.532 15.5921 130.897 16.4131C130.262 17.2187 129.944 18.2412 129.944 19.4805C129.944 20.3016 130.099 21.0375 130.409 21.6881C130.734 22.3233 131.168 22.8268 131.71 23.1986C132.268 23.5549 132.895 23.7331 133.592 23.7331ZM137.078 9.00024H138.937V25.2668H137.241C137.21 24.926 137.171 24.5232 137.125 24.0584C137.094 23.5936 137.078 23.2218 137.078 22.943V9.00024Z" fill="black"/>
<path d="M124.792 21.5253H126.535C126.411 22.2844 126.132 22.9661 125.698 23.5702C125.28 24.1589 124.722 24.6314 124.025 24.9878C123.343 25.3286 122.553 25.499 121.655 25.499C120.57 25.499 119.594 25.2434 118.727 24.7321C117.859 24.2054 117.17 23.4928 116.659 22.5943C116.163 21.6802 115.915 20.6423 115.915 19.4804C115.915 18.3185 116.155 17.2805 116.635 16.3665C117.131 15.4525 117.805 14.7321 118.657 14.2054C119.509 13.6786 120.47 13.4153 121.539 13.4153C122.67 13.4153 123.622 13.6709 124.397 14.1821C125.187 14.6779 125.768 15.4137 126.14 16.3897C126.527 17.3502 126.682 18.5354 126.604 19.9451H117.774C117.852 20.7042 118.061 21.3704 118.401 21.9436C118.742 22.5168 119.192 22.9661 119.749 23.2914C120.307 23.6012 120.942 23.7561 121.655 23.7561C122.445 23.7561 123.111 23.5548 123.653 23.152C124.211 22.7337 124.591 22.1915 124.792 21.5253ZM121.608 15.1581C120.648 15.1581 119.842 15.437 119.192 15.9947C118.541 16.5524 118.107 17.3115 117.89 18.272H124.699C124.637 17.2495 124.304 16.4749 123.7 15.9482C123.111 15.4215 122.414 15.1581 121.608 15.1581Z" fill="black"/>
<path d="M109.155 13.6477H111.014V25.2666H109.155V13.6477ZM114.732 15.3905C113.942 15.3905 113.276 15.5919 112.733 15.9947C112.207 16.382 111.788 16.8622 111.479 17.4354C111.184 17.9931 110.991 18.5354 110.898 19.0621L110.874 17.7143C110.874 17.5749 110.905 17.3425 110.967 17.0172C111.029 16.6918 111.145 16.3278 111.316 15.925C111.486 15.5067 111.711 15.1117 111.99 14.7398C112.284 14.3525 112.656 14.035 113.105 13.7871C113.554 13.5392 114.097 13.4153 114.732 13.4153V15.3905Z" fill="black"/>
<path d="M105.2 21.5253H106.943C106.819 22.2844 106.54 22.9661 106.106 23.5702C105.688 24.1589 105.13 24.6314 104.433 24.9878C103.752 25.3286 102.962 25.499 102.063 25.499C100.979 25.499 100.003 25.2434 99.135 24.7321C98.2675 24.2054 97.5781 23.4928 97.0669 22.5943C96.5711 21.6802 96.3232 20.6423 96.3232 19.4804C96.3232 18.3185 96.5634 17.2805 97.0436 16.3665C97.5394 15.4525 98.2133 14.7321 99.0653 14.2054C99.9174 13.6786 100.878 13.4153 101.947 13.4153C103.078 13.4153 104.03 13.6709 104.805 14.1821C105.595 14.6779 106.176 15.4137 106.548 16.3897C106.935 17.3502 107.09 18.5354 107.013 19.9451H98.1823C98.2597 20.7042 98.4689 21.3704 98.8097 21.9436C99.1505 22.5168 99.5998 22.9661 100.157 23.2914C100.715 23.6012 101.35 23.7561 102.063 23.7561C102.853 23.7561 103.519 23.5548 104.061 23.152C104.619 22.7337 104.999 22.1915 105.2 21.5253ZM102.017 15.1581C101.056 15.1581 100.25 15.437 99.5998 15.9947C98.9491 16.5524 98.5154 17.3115 98.2985 18.272H105.107C105.045 17.2495 104.712 16.4749 104.108 15.9482C103.519 15.4215 102.822 15.1581 102.017 15.1581Z" fill="black"/>
<path d="M91.3107 23.5722L90.846 23.549L93.5648 13.6497H95.5865L92.0311 25.2686H90.2883L86.8491 15.0904H87.3138L83.8746 25.2686H82.1318L78.5996 13.6497H80.6213L83.2937 23.549L82.8289 23.5722L85.966 13.6497H88.2201L91.3107 23.5722Z" fill="black"/>
<path d="M72.2333 25.499C71.2418 25.499 70.3123 25.2589 69.4448 24.7786C68.5772 24.2984 67.8723 23.609 67.3301 22.7104C66.8034 21.7964 66.54 20.7197 66.54 19.4804C66.54 18.241 66.8034 17.1721 67.3301 16.2735C67.8723 15.3595 68.5772 14.6546 69.4448 14.1589C70.3123 13.6632 71.2418 13.4153 72.2333 13.4153C73.2248 13.4153 74.1466 13.6632 74.9986 14.1589C75.8662 14.6546 76.5633 15.3595 77.09 16.2735C77.6168 17.1721 77.8801 18.241 77.8801 19.4804C77.8801 20.7197 77.6168 21.7964 77.09 22.7104C76.5633 23.609 75.8662 24.2984 74.9986 24.7786C74.1466 25.2589 73.2248 25.499 72.2333 25.499ZM72.2333 23.7561C72.884 23.7561 73.4959 23.5935 74.0691 23.2681C74.6423 22.9428 75.1071 22.4626 75.4634 21.8274C75.8352 21.1767 76.0211 20.3944 76.0211 19.4804C76.0211 18.5663 75.8352 17.7918 75.4634 17.1566C75.1071 16.5059 74.6423 16.0102 74.0691 15.6694C73.4959 15.3285 72.884 15.1581 72.2333 15.1581C71.5827 15.1581 70.963 15.3285 70.3743 15.6694C69.8011 15.9947 69.3286 16.4827 68.9568 17.1333C68.585 17.7685 68.3991 18.5509 68.3991 19.4804C68.3991 20.3944 68.5772 21.1767 68.9335 21.8274C69.3053 22.4626 69.7856 22.9428 70.3743 23.2681C70.963 23.5935 71.5827 23.7561 72.2333 23.7561Z" fill="black"/>
<path d="M55.5849 19.9228V18.1799H60.3254C61.2549 18.1799 62.0063 17.8933 62.5795 17.3201C63.1682 16.7314 63.4625 15.9723 63.4625 15.0428C63.4625 14.0823 63.1682 13.3232 62.5795 12.7655C62.0063 12.1923 61.2549 11.9057 60.3254 11.9057H55.9567V25.2675H54.0977V10.1628H60.3254C61.0226 10.1628 61.6732 10.2713 62.2774 10.4882C62.8816 10.7051 63.4083 11.0226 63.8576 11.4409C64.3223 11.8592 64.6786 12.3704 64.9265 12.9746C65.1899 13.5788 65.3216 14.2682 65.3216 15.0428C65.3216 15.8174 65.1899 16.5068 64.9265 17.111C64.6786 17.7152 64.3223 18.2264 63.8576 18.6447C63.4083 19.063 62.8816 19.3805 62.2774 19.5974C61.6732 19.8143 61.0226 19.9228 60.3254 19.9228H55.5849Z" fill="black"/>
<path d="M39.9097 9.46313C39.9379 10.0598 39.9774 10.5073 39.9774 10.9549C39.9774 21.1704 39.9605 31.3804 40 41.596C40.0056 43.1761 39.3741 44.3032 38.3873 45.5076C36.1714 48.2038 33.51 49.0822 29.9746 48.9938C20.592 48.7618 11.1982 48.9165 1.80434 48.9165C1.2574 48.9165 0.70482 48.9165 0 48.9165C0 48.2977 0 47.806 0 47.3198C0 35.8225 0 24.3251 0 12.8333C0 10.3305 0.885254 9.46313 3.43952 9.46313C15.0719 9.46313 26.7042 9.46313 38.3366 9.46313C38.8046 9.46313 39.2669 9.46313 39.9097 9.46313ZM26.0727 14.5516C25.6555 14.4742 25.4412 14.3969 25.2269 14.3969C19.1598 14.3913 13.0927 14.3692 7.02565 14.4024C5.19875 14.4134 4.69128 15.2643 5.46377 16.9052C6.92415 20.0102 8.42401 23.0931 9.91259 26.1815C10.9163 28.2644 12.0834 28.4743 13.7299 26.8555C17.5528 23.0986 21.3702 19.3306 25.1818 15.5626C25.4581 15.2864 25.6949 14.977 26.0727 14.546V14.5516ZM18.658 30.2257C18.6073 30.1981 18.4888 30.0987 18.3704 30.0987C14.4573 30.0876 10.5385 30.0766 6.62531 30.0931C5.351 30.0931 4.97321 30.8998 4.97885 31.9992C4.97885 34.5573 4.97885 37.1208 4.97885 39.6788C4.97885 40.9772 4.97885 42.2811 4.97885 43.3971C9.54609 38.9993 14.102 34.618 18.6636 30.2257H18.658ZM15.9289 27.3914C16.0192 27.5517 16.115 27.7064 16.2052 27.8666C17.6882 27.8666 19.1711 27.9384 20.6428 27.8279C21.1897 27.7892 21.81 27.4356 22.2159 27.0489C26.2983 23.0931 30.3467 19.0986 34.4009 15.1151C34.5249 14.9936 34.5926 14.8278 34.6997 14.6676C32.0327 13.8057 29.4446 14.3637 27.6177 16.1648C26.693 17.0709 25.7851 17.9936 24.8491 18.8886C21.8833 21.7284 18.9061 24.5572 15.9289 27.397V27.3914Z" fill="black"/>
</svg>
