<svg width="24" height="24" viewBox="0 0 24 24" fill="none" xmlns="http://www.w3.org/2000/svg">
<g clip-path="url(#clip0_3297_18527)">
<path d="M6.53998 19.82C6.49998 19.84 6.47998 19.88 6.47998 19.94C6.47998 20 6.47998 20.02 6.53998 20.06C6.57998 20.1 6.61998 20.1 6.69998 20.1C6.77998 20.1 6.81998 20.1 6.87998 20.06C6.93998 20.02 6.95998 19.98 6.97998 19.92V19.78H6.73998C6.63998 19.78 6.57998 19.78 6.53998 19.82Z" fill="#332263"/>
<path d="M17.32 19.82C17.28 19.84 17.26 19.88 17.26 19.94C17.26 20 17.26 20.02 17.32 20.06C17.36 20.1 17.42 20.1 17.48 20.1C17.54 20.1 17.6 20.1 17.66 20.06C17.72 20.02 17.74 19.98 17.76 19.92V19.78H17.52C17.42 19.78 17.36 19.78 17.32 19.82Z" fill="#332263"/>
<path d="M15.78 19.28C15.72 19.26 15.68 19.24 15.6 19.24C15.52 19.24 15.48 19.24 15.42 19.28C15.36 19.32 15.32 19.36 15.3 19.4C15.28 19.44 15.26 19.52 15.26 19.6C15.26 19.68 15.26 19.76 15.3 19.82C15.34 19.88 15.38 19.92 15.42 19.96C15.48 20 15.52 20 15.6 20C15.68 20 15.72 20 15.78 19.96C15.84 19.94 15.88 19.88 15.9 19.82C15.94 19.76 15.94 19.7 15.94 19.6C15.94 19.5 15.94 19.44 15.9 19.4C15.86 19.34 15.82 19.3 15.78 19.28Z" fill="#332263"/>
<path d="M6.2 1C3.32 1 1 3.32 1 6.2V23H23V1H6.2ZM5.56 6.68H7.24V9.7H10.36V6.68H12.04V14.42H10.36V11.06H7.24V14.42H5.56V6.68ZM5.64 20.44H5.04V19.62H4.24V20.44H3.64V18.34H4.24V19.12H5.04V18.34H5.64V20.44ZM7.56 20.44H7.02V20.22C6.98 20.28 6.94 20.34 6.88 20.38C6.8 20.44 6.68 20.46 6.54 20.46C6.4 20.46 6.3 20.44 6.22 20.4C6.14 20.36 6.06 20.3 6.02 20.22C5.98 20.14 5.94 20.06 5.94 19.96C5.94 19.86 5.96 19.78 6.02 19.7C6.08 19.62 6.14 19.56 6.26 19.54C6.36 19.5 6.5 19.48 6.66 19.48H6.98C6.98 19.4 6.96 19.34 6.9 19.3C6.84 19.26 6.76 19.22 6.64 19.22C6.52 19.22 6.48 19.22 6.4 19.26C6.32 19.28 6.26 19.32 6.2 19.36L6.02 18.98C6.12 18.92 6.22 18.88 6.36 18.84C6.48 18.8 6.62 18.78 6.74 18.78C7 18.78 7.2 18.84 7.36 18.96C7.5 19.08 7.58 19.28 7.58 19.54V20.44H7.56ZM9.22 20.2C9.16 20.28 9.06 20.34 8.94 20.4C8.82 20.44 8.68 20.48 8.5 20.48C8.32 20.48 8.22 20.48 8.1 20.44C7.96 20.4 7.86 20.36 7.78 20.32L7.94 19.92C8.02 19.96 8.1 20 8.22 20.04C8.32 20.06 8.42 20.08 8.52 20.08C8.62 20.08 8.68 20.08 8.72 20.04C8.76 20.02 8.78 20 8.78 19.96C8.78 19.92 8.78 19.9 8.72 19.9C8.66 19.9 8.64 19.88 8.58 19.86C8.52 19.84 8.46 19.86 8.4 19.84C8.34 19.82 8.26 19.82 8.2 19.8C8.12 19.8 8.06 19.76 8 19.72C7.94 19.68 7.9 19.64 7.86 19.58C7.82 19.52 7.8 19.44 7.8 19.36C7.8 19.28 7.84 19.16 7.9 19.08C7.96 19 8.06 18.94 8.16 18.88C8.26 18.82 8.42 18.8 8.6 18.8C8.78 18.8 8.82 18.8 8.94 18.84C9.06 18.86 9.16 18.9 9.24 18.94L9.06 19.34C8.98 19.3 8.9 19.26 8.82 19.24C8.74 19.24 8.66 19.22 8.6 19.22C8.54 19.22 8.44 19.22 8.4 19.26C8.36 19.28 8.34 19.3 8.34 19.34C8.34 19.38 8.34 19.4 8.4 19.42C8.44 19.42 8.48 19.46 8.54 19.46C8.6 19.46 8.66 19.46 8.72 19.48C8.78 19.48 8.86 19.5 8.92 19.52C8.98 19.52 9.04 19.56 9.1 19.6C9.16 19.64 9.2 19.68 9.24 19.74C9.28 19.8 9.3 19.88 9.3 19.96C9.3 20.04 9.28 20.14 9.2 20.22L9.22 20.2ZM11.3 20.44H10.72V19.6C10.72 19.48 10.7 19.4 10.64 19.34C10.6 19.28 10.52 19.26 10.44 19.26C10.36 19.26 10.32 19.26 10.28 19.3C10.24 19.34 10.2 19.36 10.16 19.42C10.12 19.48 10.12 19.56 10.12 19.64V20.42H9.54V18.2H10.12V18.96C10.16 18.92 10.2 18.9 10.24 18.86C10.34 18.8 10.46 18.76 10.6 18.76C10.74 18.76 10.84 18.78 10.94 18.84C11.04 18.9 11.12 18.98 11.18 19.08C11.24 19.18 11.26 19.32 11.26 19.5V20.44H11.3ZM12.22 19.64C12.24 19.72 12.28 19.78 12.34 19.84C12.4 19.9 12.46 19.94 12.52 19.96C12.6 19.98 12.68 20 12.76 20C12.84 20 12.94 19.98 13.02 19.94C13.1 19.9 13.18 19.84 13.24 19.76L13.62 20.1C13.52 20.24 13.4 20.32 13.24 20.4C13.08 20.46 12.92 20.5 12.72 20.5C12.52 20.5 12.4 20.48 12.26 20.42C12.12 20.36 12 20.3 11.9 20.2C11.8 20.1 11.72 19.98 11.66 19.86C11.6 19.74 11.58 19.58 11.58 19.42C11.58 19.26 11.6 19.12 11.66 18.98C11.72 18.84 11.8 18.74 11.9 18.64C12 18.54 12.12 18.46 12.26 18.42C12.4 18.36 12.56 18.34 12.72 18.34C12.88 18.34 13.08 18.38 13.24 18.44C13.4 18.5 13.52 18.6 13.62 18.74L13.24 19.08C13.18 19 13.1 18.94 13.02 18.9C12.94 18.86 12.84 18.84 12.76 18.84C12.68 18.84 12.6 18.84 12.52 18.88C12.44 18.9 12.38 18.94 12.34 19C12.28 19.06 12.24 19.12 12.22 19.2C12.2 19.28 12.18 19.36 12.18 19.44C12.18 19.52 12.18 19.62 12.22 19.68V19.64ZM14.44 20.44H13.88V18.22H14.44V20.44ZM16.42 20.06C16.34 20.18 16.24 20.28 16.1 20.36C15.96 20.44 15.8 20.46 15.62 20.46C15.44 20.46 15.28 20.42 15.14 20.36C15 20.28 14.9 20.18 14.82 20.06C14.74 19.94 14.7 19.78 14.7 19.62C14.7 19.46 14.74 19.32 14.82 19.18C14.9 19.06 15 18.96 15.14 18.88C15.28 18.8 15.44 18.78 15.62 18.78C15.8 18.78 15.96 18.82 16.1 18.88C16.24 18.96 16.34 19.06 16.42 19.18C16.5 19.3 16.54 19.46 16.54 19.62C16.54 19.78 16.5 19.92 16.42 20.06ZM18.32 20.44H17.78V20.22C17.74 20.28 17.7 20.34 17.64 20.38C17.56 20.44 17.44 20.46 17.3 20.46C17.16 20.46 17.06 20.44 16.98 20.4C16.88 20.36 16.82 20.3 16.78 20.22C16.74 20.14 16.7 20.06 16.7 19.96C16.7 19.86 16.72 19.78 16.78 19.7C16.84 19.62 16.92 19.56 17.02 19.54C17.12 19.5 17.26 19.48 17.42 19.48H17.74C17.74 19.4 17.72 19.34 17.66 19.3C17.6 19.26 17.52 19.22 17.4 19.22C17.28 19.22 17.24 19.22 17.16 19.26C17.08 19.3 17.02 19.32 16.96 19.36L16.78 18.98C16.88 18.92 16.98 18.88 17.12 18.84C17.24 18.8 17.38 18.78 17.5 18.78C17.76 18.78 17.96 18.84 18.12 18.96C18.26 19.08 18.34 19.28 18.34 19.54V20.44H18.32ZM16.02 13.3C16.58 13.3 16.86 12.98 17.02 12.54H18.6C18.4 13.5 17.72 14.56 15.98 14.56C14.24 14.56 13.24 13.3 13.24 11.56C13.24 9.82 14.28 8.48 16.06 8.48C17.84 8.48 18.56 9.88 18.6 10.54H17.02C16.92 10.06 16.66 9.74 16.02 9.74C15.38 9.74 14.86 10.38 14.86 11.52C14.86 12.66 15.3 13.32 16 13.32L16.02 13.3ZM19.88 20.44L19.42 19.88L19.24 20.06V20.46H18.68V18.24H19.24V19.4L19.82 18.84H20.5L19.82 19.54L20.56 20.46H19.86L19.88 20.44Z" fill="#332263"/>
</g>
<defs>
<clipPath id="clip0_3297_18527">
<rect width="24" height="24" fill="white"/>
</clipPath>
</defs>
</svg>
