<svg width="155" height="56" viewBox="0 0 155 56" fill="none" xmlns="http://www.w3.org/2000/svg">
<g clip-path="url(#clip0_3747_17613)">
<path d="M67.8968 37.7909C67.0038 36.8288 66.0899 35.8858 65.2323 34.8918C65.0612 34.6948 65.0633 34.3027 65.0612 34.0018C65.0487 31.001 65.0279 28.0002 65.0612 24.9993C65.1364 17.9424 70.9952 12.3815 78.0873 12.6062C84.8642 12.8223 90.31 18.9066 89.9386 25.8492C89.586 32.4378 84.6097 37.5324 78.177 37.8905C78.0101 37.899 77.841 37.8905 77.6011 37.8905V34.9236C78.6464 34.6778 79.7147 34.5295 80.7142 34.1755C85.0937 32.62 87.6935 27.7798 86.6482 23.2319C85.5507 18.4552 81.2462 15.2806 76.5537 15.7871C71.8737 16.2915 68.2223 20.3095 68.1785 25.0672C68.143 28.9157 68.1701 32.7641 68.168 36.6126C68.168 36.9496 68.168 37.2887 68.168 37.6256C68.0783 37.6807 67.9907 37.7358 67.901 37.7909H67.8968Z" fill="black"/>
<path d="M74.1273 44.0981C73.2697 43.1868 72.383 42.2989 71.5713 41.3452C71.3585 41.0952 71.3084 40.6396 71.3084 40.2772C71.2917 35.3013 71.2813 30.3275 71.3021 25.3515C71.3168 21.7446 73.9916 18.9748 77.4281 18.9494C80.9 18.924 83.673 21.6535 83.7544 25.1735C83.8316 28.5749 81.1942 31.3489 77.6159 31.546V28.5346C78.0395 28.3905 78.486 28.2888 78.8845 28.0917C80.2783 27.4008 80.9272 25.8665 80.4973 24.3597C80.078 22.889 78.6758 21.9523 77.1381 22.1176C75.6462 22.2787 74.4423 23.5205 74.4277 25.1057C74.3881 29.8337 74.4069 34.5616 74.4048 39.2896C74.4048 40.8366 74.4048 42.3815 74.4048 43.9286C74.313 43.9858 74.2191 44.0409 74.1273 44.0981Z" fill="black"/>
</g>
<defs>
<clipPath id="clip0_3747_17613">
<rect width="24.9107" height="31.5" fill="white" transform="translate(65.0447 12.5996)"/>
</clipPath>
</defs>
</svg>
