<svg width="24" height="24" viewBox="0 0 24 24" fill="none" xmlns="http://www.w3.org/2000/svg">
<path d="M3.3999 9.52C3.3999 4.82 7.2199 1 11.9199 1C16.6199 1 20.4399 4.82 20.4399 9.52V21.7C20.4399 22.42 19.8599 23 19.1399 23H4.6999C3.9799 23 3.3999 22.42 3.3999 21.7V9.52Z" fill="url(#paint0_linear_3297_18569)" fill-opacity="0.8"/>
<path fill-rule="evenodd" clip-rule="evenodd" d="M19.4199 21.94V9.54C19.4199 5.38 16.0599 2.02 11.9199 2.02C7.7799 2.02 4.4199 5.38 4.4199 9.54V21.94C4.4199 21.94 4.4199 21.98 4.4599 21.98H19.3799C19.3799 21.98 19.4199 21.98 19.4199 21.94ZM11.9199 1C7.2199 1 3.3999 4.82 3.3999 9.54V21.94C3.3999 22.52 3.8799 23 4.4599 23H19.3799C19.9599 23 20.4399 22.52 20.4399 21.94V9.54C20.4399 4.82 16.6199 1 11.9199 1Z" fill="url(#paint1_linear_3297_18569)"/>
<defs>
<linearGradient id="paint0_linear_3297_18569" x1="3.3999" y1="1" x2="25.5459" y2="14.8149" gradientUnits="userSpaceOnUse">
<stop stop-color="#FAC8FF" stop-opacity="0"/>
<stop offset="0.33" stop-color="#C8FFEE" stop-opacity="0"/>
<stop offset="0.66" stop-color="#E9FF44"/>
<stop offset="1" stop-color="#35EBFF"/>
</linearGradient>
<linearGradient id="paint1_linear_3297_18569" x1="3.3999" y1="1" x2="25.5459" y2="14.8149" gradientUnits="userSpaceOnUse">
<stop stop-color="#FAC8FF"/>
<stop offset="0.33" stop-color="#C8FFEE"/>
<stop offset="0.66" stop-color="#E9FF44"/>
<stop offset="1" stop-color="#35EBFF"/>
</linearGradient>
</defs>
</svg>
