<svg width="32" height="32" viewBox="0 0 32 32" fill="none" xmlns="http://www.w3.org/2000/svg">
<path d="M10.6666 17.3337V17.347M16 22.667V22.6803M16 16.0003V16.0137M21.3333 18.667V18.6803M14.6666 10.667V10.6803M17.5311 4.63551L21.0871 6.10751C20.3824 7.03473 20.0005 8.16717 19.9999 9.33183C19.9992 10.4965 20.3798 11.6294 21.0835 12.5574C21.7872 13.4854 22.7754 14.1575 23.897 14.4712C25.0187 14.7848 26.2121 14.7226 27.2951 14.2942L27.3658 14.4702C27.7717 15.4502 27.7717 16.5514 27.3658 17.5315C26.7031 18.5795 26.2485 19.4035 26.0005 20.0008C25.7485 20.6088 25.4551 21.5928 25.1205 22.9555C24.7142 23.9354 23.9353 24.7138 22.9551 25.1195C21.5578 25.4702 20.5725 25.7635 20.0005 26.0008C19.3671 26.2635 18.5445 26.7182 17.5311 27.3662C16.5511 27.7721 15.4499 27.7721 14.4698 27.3662C13.4005 26.6955 12.5778 26.2408 12.0005 26.0008C11.3725 25.7408 10.3871 25.4475 9.04581 25.1208C8.06589 24.7146 7.28748 23.9357 6.88181 22.9555C6.52848 21.5528 6.23514 20.5688 6.00048 20.0008C5.73648 19.3622 5.28048 18.5395 4.63514 17.5315C4.2292 16.5514 4.2292 15.4502 4.63514 14.4702C5.27514 13.4782 5.72848 12.6555 6.00048 12.0008C6.22848 11.4502 6.52181 10.4648 6.88048 9.04618C7.28675 8.06625 8.06564 7.28785 9.04581 6.88218C10.4218 6.54084 11.4058 6.24751 12.0005 6.00084C12.6111 5.74751 13.4338 5.29284 14.4698 4.63551C15.4499 4.22957 16.5511 4.22957 17.5311 4.63551Z" stroke="black" stroke-width="3" stroke-linecap="round" stroke-linejoin="round"/>
</svg>
