<svg width="25" height="25" viewBox="0 0 25 25" fill="none" xmlns="http://www.w3.org/2000/svg">
<g clip-path="url(#clip0_3672_17574)">
<path d="M12.6124 2.91113C10.8021 2.91147 9.02588 3.4032 7.47315 4.3339C5.92042 5.26459 4.64945 6.59932 3.79582 8.19572C2.94219 9.79211 2.53793 11.5903 2.62614 13.3984C2.71435 15.2066 3.29174 16.9569 4.29672 18.4626C5.30169 19.9683 6.69655 21.173 8.3325 21.9481C9.96846 22.7232 11.7841 23.0397 13.5859 22.8638C15.3876 22.6879 17.1078 22.0263 18.5629 20.9494C20.0181 19.8725 21.1536 18.4208 21.8484 16.7491C22.1894 15.9291 21.3724 15.1051 20.5504 15.4391C19.1416 16.0098 17.5773 16.0687 16.1296 15.6056C14.6818 15.1424 13.4422 14.1866 12.6262 12.9042C11.8101 11.6217 11.4694 10.0939 11.6631 8.58629C11.8568 7.07866 12.5727 5.6866 13.6864 4.65213L13.7634 4.57213C14.3144 3.94213 13.8764 2.91913 13.0054 2.91913H12.7394L12.6714 2.91313L12.6114 2.91113H12.6124Z" fill="white"/>
</g>
<defs>
<clipPath id="clip0_3672_17574">
<rect width="24" height="24" fill="white" transform="translate(0.612305 0.918945)"/>
</clipPath>
</defs>
</svg>
