<svg width="24" height="25" viewBox="0 0 24 25" fill="none" fill-rule="evenodd" xmlns="http://www.w3.org/2000/svg">
    <g clip-path="url(#clip0_3672_14977)">
        <mask id="mask0_3672_14977" style="mask-type:luminance" maskUnits="userSpaceOnUse" x="0" y="0" width="24"
              height="25">
            <path d="M24 0.5H0V24.5H24V0.5Z" fill="currentColor"/>
        </mask>
        <g mask="url(#mask0_3672_14977)">
            <path d="M14.34 1.82017C14.42 1.58017 14.66 1.46017 14.92 1.52017C15.16 1.58017 15.3 1.82017 15.26 2.08017L13.46 11.0402L22.2 9.20017C22.46 9.14017 22.7 9.30017 22.76 9.54017C22.82 9.78017 22.68 10.0402 22.44 10.1202L13.9 13.0402L19.82 19.8602C19.98 20.0602 19.98 20.3402 19.82 20.5202C19.64 20.7002 19.36 20.7002 19.18 20.5202L12.56 14.5202L9.75999 23.1402C9.67999 23.3802 9.43999 23.5002 9.17999 23.4402C8.93999 23.3802 8.79999 23.1402 8.83999 22.8802L10.64 13.9002L1.85999 15.7402C1.59999 15.8002 1.35999 15.6402 1.29999 15.4002C1.23999 15.1602 1.37999 14.9002 1.61999 14.8202L10.04 11.9402L4.01999 5.12017C3.85999 4.94017 3.85999 4.64017 4.01999 4.46017C4.17999 4.28017 4.47999 4.28017 4.65999 4.46017L11.44 10.6002L14.3 1.84017L14.34 1.82017Z"
                  fill="currentColor"/>
        </g>
    </g>
    <defs>
        <clipPath id="clip0_3672_14977">
            <rect width="24" height="24" fill="currentColor" transform="translate(0 0.5)"/>
        </clipPath>
    </defs>
</svg>
